<?xml version="1.0" encoding="UTF-8"?>
<svg xmlns="http://www.w3.org/2000/svg" width="1500" height="500" viewBox="0 0 1500 500">
  <defs>
    <linearGradient id="bg-alaa" x1="0%" y1="0%" x2="100%" y2="100%">
      <stop offset="0%" style="stop-color:#0a0a0f"/>
      <stop offset="100%" style="stop-color:#1a1a2e"/>
    </linearGradient>
  </defs>
  <rect width="1500" height="500" fill="url(#bg-alaa)"/>
  <path d="M 0 100 L 0 139.0967326185505 L 20 138.47513831017991 L 40 137.4656164763163 L 60 136.07834567184324 L 80 134.3273131247215 L 100 132.23017370905677 L 120 129.80807193893946 L 140 127.08542877781355 L 160 124.08969541287894 L 180 120.85107647711001 L 200 117.4022255095178 L 220 113.77791572419362 L 240 110.01468940762142 L 260 106.15048947922854 L 280 102.22427692998392 L 300 98.27563799623864 L 320 94.34438502949834 L 340 90.47015508637814 L 360 86.69201028597712 L 380 83.04804396408936 L 400 79.57499659522163 L 420 76.30788535490329 L 440 73.2796510572453 L 460 70.52082602751787 L 480 68.05922625843871 L 500 65.91967095402151 L 520 64.12373228869757 L 540 62.68951790477766 L 560 61.631488341233585 L 580 60.96031123458364 L 600 60.68275376190854 L 620 60.8016144104467 L 640 61.31569476170527 L 660 62.21981157457512 L 680 63.50484904562118 L 700 65.15785071963099 L 720 67.1621501237289 L 740 69.49753880793061 L 760 72.14047009786104 L 780 75.06429650528806 L 800 78.23953840276857 L 820 81.63418125348143 L 840 85.21399839941199 L 860 88.94289615336034 L 880 92.78327771536588 L 900 96.69642224434192 L 920 100.64287526291177 L 940 104.58284645917004 L 960 108.47661087451205 L 980 112.28490943253583 L 1000 115.96934477066293 L 1020 119.49276838348614 L 1040 122.81965517445178 L 1060 125.91646163944009 L 1080 128.75196407084 L 1100 131.29757337215818 L 1120 133.52762330902868 L 1140 135.41962929031735 L 1160 136.95451507014755 L 1180 138.11680508511307 L 1200 138.8947804874277 L 1220 139.2805973008 L 1240 139.2703655077205 L 1260 138.8641882707598 L 1280 138.0661608924266 L 1300 136.88432952407345 L 1320 135.33061004016915 L 1340 133.42066789589262 L 1360 131.17376017938977 L 1380 128.61254145120952 L 1400 125.76283532855251 L 1420 122.65337411734676 L 1440 119.31550911732117 L 1460 115.78289452094295 L 1480 112.09114809332178 L 1500 108.2774920542939 L 1500 500 L 0 500 Z" fill="#8b5cf6" opacity="0.1"/><path d="M 0 180 L 0 173.8627340646151 L 20 157.55428813532916 L 40 143.0256533468742 L 60 131.4288638255661 L 80 123.683475846222 L 100 120.40365250149894 L 120 121.84946422997737 L 140 127.90626678079082 L 160 138.09379181926823 L 180 151.60422934275545 L 200 167.36628219806872 L 220 184.13011355920798 L 240 200.56645153676055 L 260 215.37199251428112 L 280 227.3727453554363 L 300 235.61712190237105 L 320 239.4513922437371 L 340 238.57152159945417 L 360 233.04727846626798 L 380 223.3167023918829 L 400 210.15137005020028 L 420 194.5952138108303 L 440 177.88174412558052 L 460 161.33623950319688 L 480 146.27065982426285 L 500 133.8796157439142 L 520 125.14564318855409 L 540 120.76129411427387 L 560 121.0742212653814 L 580 126.05961138430797 L 600 135.32215275500963 L 620 148.1273810653995 L 640 163.45991804879023 L 660 180.10398492726782 L 680 196.73980642091874 L 700 212.04826105969187 L 720 224.81547965203427 L 740 234.02909787530493 L 760 238.95853073135328 L 780 239.2129035814924 L 800 234.77204617514914 L 820 225.98809203048975 L 840 213.55755634567197 L 860 198.46610649590414 L 880 181.91040448664435 L 900 165.2032187904636 L 920 149.6693296332368 L 940 136.54048181990237 L 960 126.85771471447515 L 980 121.38881402463102 L 1000 120.56743097224117 L 1020 124.45869633668772 L 1040 132.7540559723359 L 1060 144.79573731283776 L 1080 159.62890681433535 L 1100 176.07738256325106 L 1120 192.83689849023006 L 1140 208.5785248940621 L 1160 222.0540446445769 L 1180 232.19492935982586 L 1200 238.19706733674036 L 1220 239.5845248154768 L 1240 236.24728468929473 L 1260 228.44997020525443 L 1280 216.81086191827535 L 1300 202.25287172900923 L 1320 185.9303614720547 L 1340 169.13760890419627 L 1360 153.20617919412666 L 1380 139.3993397426878 L 1400 128.81189060895122 L 1420 122.28335339217921 L 1440 120.33140217380827 L 1460 123.11081504890458 L 1480 130.40120114593384 L 1500 141.6244763090143 L 1500 500 L 0 500 Z" fill="#4ade80" opacity="0.2"/><path d="M 0 260 L 0 307.9209127100297 L 20 320.70668856202883 L 40 330.07502225326004 L 60 335.49852974596854 L 80 336.671898337323 L 100 333.5290740324638 L 120 326.24698000967203 L 140 315.23555684916454 L 160 301.11468520413047 L 180 284.679290036705 L 200 266.85459085242354 L 220 248.64401709107713 L 240 231.07272074197598 L 260 215.12986610291262 L 280 201.71294544198955 L 300 191.5772552746388 L 320 185.2933774548021 L 340 183.2150586536174 L 360 185.45929642873318 L 380 191.89975292557133 L 400 202.17386698179143 L 420 215.70326426382414 L 440 231.72631646057891 L 460 249.34101663643733 L 480 267.555757104402 L 500 285.345151313219 L 520 301.70775729292114 L 540 315.7224531562897 L 560 326.6002910353333 L 580 333.72891037034447 L 600 336.7070103353253 L 620 335.3669407978047 L 640 329.7841400701724 L 660 320.27288816067284 L 680 307.368614591936 L 700 291.7977567564879 L 720 274.43686561282476 L 740 256.26326083935794 L 760 238.30001328111499 L 780 221.55835186531905 L 800 206.98073714975837 L 820 195.38780614021334 L 840 187.4321750827243 L 860 183.56170087140606 L 880 183.99426924612072 L 900 188.70552906144795 L 920 197.43026311802132 L 940 209.67731838620463 L 960 224.75725513521795 L 980 241.82115847860467 L 1000 259.90842746621786 L 1020 278.0008514679675 L 1040 295.07992965571356 L 1060 310.1842068216625 L 1080 322.46339785197404 L 1100 331.2262539547751 L 1120 335.97947604550353 L 1140 336.45548468675094 L 1160 332.6274832925394 L 1180 324.71096662408775 L 1200 313.1515896573142 L 1220 298.60007973601216 L 1240 281.8756043141448 L 1260 263.9196564755428 L 1280 245.7430542146269 L 1300 228.36903711796242 L 1320 212.77566378064765 L 1340 199.84075265619748 L 1360 190.29246585770946 L 1380 184.6683177619549 L 1400 183.2849159994289 L 1420 186.2201382409536 L 1440 193.30874812663166 L 1460 204.15169713547846 L 1480 218.1385887532445 L 1500 234.48204033322517 L 1500 500 L 0 500 Z" fill="#1a1a2e" opacity="0.30000000000000004"/><path d="M 0 340 L 0 320.81009608866344 L 20 326.69199769481344 L 40 333.1661383168775 L 60 339.94440268533793 L 80 346.72514127180403 L 100 353.2065944390646 L 120 359.10032149125533 L 140 364.14403699819604 L 160 368.1132831457175 L 180 370.8314186635208 L 200 372.17747979857467 L 220 372.09156350129257 L 240 370.5774932593917 L 260 367.70264894323304 L 280 363.59496823494675 L 300 358.43725308516196 L 320 352.45903457409815 L 340 345.92635821081956 L 360 339.12994425009845 L 380 332.37224992206865 L 400 325.95400933744787 L 420 320.16085007583575 L 440 315.25058205200764 L 460 311.441724337092 L 480 308.90378051946436 L 500 307.74969537584843 L 520 308.0308285494168 L 540 309.73466891864757 L 560 312.7853913731743 L 580 317.04723121872786 L 600 322.3305260418046 L 620 328.4001561561401 L 640 334.98600801024537 L 660 341.7949949084929 L 680 348.52410009393355 L 700 354.8738617434014 L 720 360.56169975927315 L 740 365.3344912826893 L 760 368.9798352867964 L 780 371.33550494775176 L 800 372.2966671396038 L 820 371.82054776767023 L 840 369.92833532153975 L 860 366.7042379348824 L 880 362.2917359152379 L 900 356.8871965154742 L 920 350.7311351053805 L 940 344.0975116428685 L 960 337.2815387782886 L 980 330.58654416136955 L 1000 324.3104716106157 L 1020 318.7326218765098 L 1040 314.1012230673499 L 1060 310.6223838845129 L 1080 308.4509212754954 L 1100 307.68347069685694 L 1120 308.3541855974048 L 1140 310.43321750525337 L 1160 313.8280443586445 L 1180 318.3875879665211 L 1200 323.9089373616756 L 1220 330.14637884062984 L 1240 336.8223308311385 L 1260 343.6396969586686 L 1280 350.2950875698444 L 1300 356.49232132236546 L 1320 361.95560598725456 L 1340 366.4418118851359 L 1360 369.75129175827544 L 1380 371.7367655673174 L 1400 372.3098748172881 L 1420 371.44511472915104 L 1440 369.18096926555165 L 1460 365.6181984993016 L 1480 360.91535454093895 L 1500 355.28172557767806 L 1500 500 L 0 500 Z" fill="#8b5cf6" opacity="0.4"/><path d="M 0 420 L 0 374.4048829267099 L 20 365.36901130111033 L 40 359.00042394660187 L 60 355.61005854314084 L 80 355.3634451045393 L 100 358.27262419900774 L 120 364.1955590846661 L 140 372.8430704617166 L 160 383.7929552613622 L 180 396.51060014066417 L 200 410.37508325728055 L 220 424.7094899401702 L 240 438.8139621345681 L 260 451.9998680266971 L 280 463.62342356241857 L 300 473.1171243345643 L 320 480.01745321948204 L 340 483.98751097484717 L 360 484.8334648903535 L 380 482.5140124081191 L 400 477.14239766431524 L 420 468.98088249709923 L 440 458.4279418664204 L 460 445.99880885204436 L 480 432.3003190940007 L 500 418.00128286169024 L 520 403.79983129537874 L 540 390.3893310957544 L 560 378.4245318308157 L 580 368.4895986721289 L 600 361.0695913189532 L 620 356.52678161325707 L 640 355.0829661061032 L 660 356.80863714046967 L 680 361.61954115776877 L 700 369.2807922641025 L 720 379.4183402169349 L 740 391.5372329232137 L 760 405.0457818071261 L 780 419.2844502060296 L 800 433.5580543576276 L 820 447.1697048086616 L 840 459.45483110166214 L 860 469.8136285303608 L 880 477.7403427947344 L 900 482.8479627719322 L 920 484.8871158118823 L 940 483.75824302027695 L 960 479.51646008718177 L 980 472.3688663378751 L 1000 462.6644333878764 L 1020 450.87696707493194 L 1040 437.5819745286276 L 1060 423.4285658117244 L 1080 409.10776199764626 L 1100 395.31875699945243 L 1120 382.73478037094793 L 1140 371.97022778258247 L 1160 363.5506639822784 L 1180 357.88716280612863 L 1200 355.2562370533013 L 1220 355.78633812191396 L 1240 359.451584542931 L 1260 366.073025607949 L 1280 375.3273783959498 L 1300 386.76281162548594 L 1320 399.82100570702244 L 1340 413.86441194316143 L 1360 428.2073799830983 L 1380 442.14963377536805 L 1400 455.01046160068165 L 1420 466.16195090265575 L 1440 475.0596452706927 L 1460 481.269126789209 L 1480 484.48722590589693 L 1500 484.55682327583554 L 1500 500 L 0 500 Z" fill="#4ade80" opacity="0.5"/>
  <text x="80" y="270" font-family="monospace" font-size="72" font-weight="bold" fill="#8b5cf6">Alaa</text>
  <text x="80" y="320" font-family="monospace" font-size="24" fill="#888888">mad scientist inventor</text>
  <circle cx="1350" cy="250" r="80" fill="#8b5cf6" opacity="0.3"/>
  <circle cx="1350" cy="250" r="50" fill="#4ade80" opacity="0.5"/>
  <text x="1350" y="270" font-family="monospace" font-size="64" font-weight="bold" fill="#ffffff" text-anchor="middle">A</text>
</svg>