<?xml version="1.0" encoding="UTF-8"?>
<svg xmlns="http://www.w3.org/2000/svg" width="1500" height="500" viewBox="0 0 1500 500">
  <defs>
    <linearGradient id="bg-ash" x1="0%" y1="0%" x2="100%" y2="100%">
      <stop offset="0%" style="stop-color:#0a0a0f"/>
      <stop offset="100%" style="stop-color:#1a1a2e"/>
    </linearGradient>
  </defs>
  <rect width="1500" height="500" fill="url(#bg-ash)"/>
  <path d="M 0 100 L 0 171.0334640960514 L 20 165.41777581508418 L 40 156.19308496857371 L 60 143.86830419557862 L 80 129.12337354106813 L 100 112.77174916275858 L 120 95.71552615020072 L 140 78.89567126424559 L 160 63.24011118352356 L 180 49.612540153098124 L 200 38.7647712420952 L 220 31.295259921408388 L 240 27.616088154752177 L 260 27.93023044224516 L 280 32.22035601549325 L 300 40.24978495061578 L 320 51.5755454518639 L 340 65.57281195468047 L 360 81.46937583396561 L 380 98.38824701922483 L 400 115.39603624809169 L 420 131.5544487803918 L 440 145.97204874020946 L 460 157.85343832326834 L 480 166.54313872502019 L 500 171.5617519431181 L 520 172.63240846076934 L 540 169.6960417311389 L 560 162.9146467919451 L 580 152.66234323726727 L 600 139.5047355892792 L 620 124.16770972787117 L 640 107.49738683328763 L 660 90.41344412392016 L 680 73.85837761556125 L 700 58.74550600113421 L 720 45.90858420045435 L 740 36.05580632643814 L 760 29.730735656528182 L 780 27.282317045399324 L 800 28.84562615007279 L 820 34.33441750440106 L 840 43.44588255470456 L 860 55.67735516272517 L 880 70.3540429578464 L 900 86.66625464062703 L 920 103.71406946201485 L 940 120.55698452871052 L 960 136.26580096579727 L 980 149.97388645328692 L 1000 160.9249860577669 L 1020 168.51494370582057 L 1040 172.3250325868389 L 1060 172.14505569587607 L 1080 167.984942093545 L 1100 160.07419913433287 L 1120 148.8492508830972 L 1140 134.9293612406974 L 1160 119.08247006454332 L 1180 102.18282705508766 L 1200 85.16276068449211 L 1220 68.96124300479993 L 1240 54.4720879395689 L 1260 42.4946408830965 L 1280 33.68967998959049 L 1300 28.542962013361674 L 1320 27.338423822469466 L 1340 30.142518018933018 L 1360 36.80054684632483 L 1380 46.94519663767728 L 1400 60.01680197075062 L 1420 75.29422158699488 L 1440 91.9346226951247 L 1460 109.0199788177394 L 1480 125.60771596311487 L 1500 140.78271304729012 L 1500 500 L 0 500 Z" fill="#ef4444" opacity="0.1"/><path d="M 0 180 L 0 155.29960622477577 L 20 148.14420742516063 L 40 141.80086205126213 L 60 136.43127178823775 L 80 132.17231579731188 L 100 129.13256145423836 L 120 127.38949679896567 L 140 126.98755524564396 L 160 127.93698290617098 L 180 130.21357740095158 L 200 133.7593048149886 L 220 138.4837790721403 L 240 144.2665660160058 L 260 150.96025346285367 L 280 158.39420896619492 L 300 166.3789295017701 L 320 174.71087219275174 L 340 183.1776429325046 L 360 191.56341063888505 L 380 199.6544091223616 L 400 207.24438631682912 L 420 214.13986196379466 L 440 220.16505972343208 L 460 225.16638798536667 L 480 229.01635515639146 L 500 231.61681961837587 L 520 232.90149150991243 L 540 232.83762255741823 L 560 231.42684087928166 L 580 228.70510948260664 L 600 224.7418095105356 L 620 219.6379716095954 L 640 213.52370050224823 L 660 206.55485841627635 L 680 198.90909191551555 L 700 190.78130341416846 L 720 182.37868281280075 L 740 173.91542590730432 L 760 165.6072742067528 L 780 157.66601534863634 L 800 150.2940843043997 L 820 143.67940299890336 L 840 137.99058988989032 L 860 133.3726616226877 L 880 129.94333633161227 L 900 127.7900328226464 L 920 126.96764213285834 L 940 127.49712827296457 L 960 129.36499382227043 L 980 132.52362399880096 L 1000 136.8925004337415 L 1020 142.36025370920078 L 1040 148.78750233693358 L 1060 156.01040580806477 L 1080 163.84484114108088 L 1100 172.09109646142156 L 1120 180.53896196606627 L 1140 188.9730884965559 L 1160 197.17847712213336 L 1180 204.94595979503816 L 1200 212.07753136757543 L 1220 218.39139704959445 L 1240 223.72660663888155 L 1260 227.9471573907642 L 1280 230.9454609384352 L 1300 232.6450858868348 L 1320 233.00270616713163 L 1340 232.00920548523123 L 1360 229.68990971021356 L 1380 226.1039412787573 L 1400 221.3427120727811 L 1420 215.52759318918197 L 1440 208.8068210028448 L 1460 201.3517183921614 L 1480 193.3523274538667 L 1500 185.01256503604512 L 1500 500 L 0 500 Z" fill="#3b82f6" opacity="0.2"/><path d="M 0 260 L 0 209.31025195282157 L 20 215.00448366757053 L 40 221.44103575494896 L 60 228.51372021816513 L 80 236.1058543698278 L 100 244.09218582232393 L 120 252.34095885812917 L 140 260.7160880897921 L 160 269.0794035493067 L 180 277.29293016816916 L 200 285.2211640420512 L 220 292.7333079270658 L 240 299.7054290871872 L 260 306.0225038934084 L 280 311.580315443551 L 300 316.287172896456 L 320 320.06542415557794 L 340 322.8527369462556 L 360 324.6031271518911 L 380 325.28771744390593 L 400 324.89521368985993 L 420 323.432091280119 L 440 320.9224882991174 L 460 317.4078073036399 L 480 312.9460322778453 L 500 307.61077203367086 L 520 301.49004583826473 L 540 294.68483130274194 L 560 287.30739848869075 L 580 279.4794577157597 L 600 271.3301516271524 L 620 262.99392463923425 L 640 254.60830492432967 L 660 246.31163551878717 L 680 238.24079198770093 L 700 230.52892429946266 L 720 223.30326016391143 L 740 216.68300607384467 L 760 210.77738067777688 L 780 205.6838129286782 L 800 201.48633473500792 L 820 198.25419463152687 L 840 196.04071534106555 L 860 194.88241407479586 L 880 194.7984000839873 L 900 195.79005940222822 L 920 197.84103197912603 L 940 200.91748158272628 L 960 204.96865401789435 L 980 209.92771445136717 L 1000 215.712850029578 L 1020 222.2286195986482 L 1040 229.36752825933618 L 1060 237.01180078048293 L 1080 245.03532461379686 L 1100 253.30573045479562 L 1120 261.68657602553463 L 1140 270.0395970518348 L 1160 278.2269882991697 L 1180 286.11367703547677 L 1200 293.56955141409355 L 1220 300.4716070137322 L 1240 306.70597612262384 L 1260 312.1698062884079 L 1280 316.7729571421044 L 1300 320.4394875025579 L 1320 323.1089082276208 L 1340 324.7371801429744 L 1360 325.297440585103 L 1380 324.7804465721705 L 1400 323.1947272915183 L 1420 320.5664433881006 L 1440 316.938955375266 L 1460 312.3721082880954 L 1480 306.94124438083566 L 1500 300.73596015660405 L 1500 500 L 0 500 Z" fill="#000000" opacity="0.30000000000000004"/><path d="M 0 340 L 0 303.67964914848784 L 20 314.73749376367346 L 40 326.76121253523763 L 60 339.2910965524185 L 80 351.84808443304746 L 100 363.9520785192596 L 120 375.14030069365583 L 140 384.98498600872927 L 160 393.1097376400891 L 180 399.20391785629596 L 200 403.0345247880941 L 220 404.4551009065251 L 240 403.41133260758136 L 260 399.9431268116517 L 280 394.1830851820848 L 300 386.35143429884135 L 320 376.7476056244667 L 340 365.7387871897956 L 360 353.74588470857 L 380 341.22742887676367 L 400 328.6620441369635 L 420 316.53014918839085 L 440 305.295588896203 L 460 295.38789987656116 L 480 287.1858878063046 L 500 281.00314435424303 L 520 277.0760574725456 L 540 275.5547734568094 L 560 276.49745632692895 L 580 279.86806401275516 L 600 285.5377263687619 L 620 293.2896723313884 L 640 302.8275178365635 L 660 313.78659762127654 L 680 325.74790765470317 L 700 338.2541251308778 L 720 350.8270935224439 L 740 362.9861041805929 L 760 374.26627551155224 L 780 384.2363270292855 L 800 392.5150687200762 L 820 398.78597527279067 L 840 402.80928795091745 L 860 404.43118140939856 L 880 403.58964497671593 L 900 400.31685354020544 L 920 394.73793738734435 L 940 387.06619803628917 L 960 377.5949529712333 L 980 366.6863210869327 L 1000 354.7573776141633 L 1020 342.2642078718347 L 1040 329.6844695267073 L 1060 317.49913006664235 L 1080 306.17407772779 L 1100 296.14230895442245 L 1120 287.78737342725304 L 1140 281.42870961483317 L 1160 277.3094315212945 L 1180 275.58703358587707 L 1200 276.32736911851197 L 1220 279.5021324969727 L 1240 284.9899413900216 L 1260 292.5809776293679 L 1280 301.9850092936365 L 1300 312.84248729196077 L 1320 324.7382921859159 L 1340 337.2176056606082 L 1360 349.8032998229541 L 1380 362.0141794733255 L 1400 373.38337988458045 L 1420 383.4762166769036 L 1440 391.90680532517865 L 1460 398.35281487687655 L 1480 402.5677917941134 L 1500 404.39058273620304 L 1500 500 L 0 500 Z" fill="#ef4444" opacity="0.4"/><path d="M 0 420 L 0 432.8088951984254 L 20 446.41834629515836 L 40 459.0618314329666 L 60 470.2770515675102 L 80 479.65393103580936 L 100 486.84961164885704 L 120 491.60098903040506 L 140 493.73433282060034 L 160 493.1716389893272 L 180 489.93348199193713 L 200 484.1382624805445 L 220 475.9978780777317 L 240 465.8099755074014 L 260 453.94706737749016 L 280 440.84291155078455 L 300 426.9766511313844 L 320 412.8552949756759 L 340 398.99517931409025 L 360 385.90308832479934 L 380 374.0577239706552 L 400 363.89220264014523 L 420 355.77821858885534 L 440 350.0124532326941 L 460 346.8057272263297 L 480 346.2752919725236 L 500 348.44054241722995 L 520 353.2223078887206 L 540 360.44574691064366 L 560 369.8467401424625 L 580 381.08154769445946 L 600 393.73937770521184 L 620 407.35740662143456 L 640 421.43770197552504 L 660 435.46542889282085 L 680 448.9276746220162 L 700 461.33220278465666 L 720 472.2254516093975 L 740 481.2091180598095 L 760 487.9547214702038 L 780 492.21561418163753 L 800 493.8360000186841 L 820 492.75663085349254 L 840 489.01697296676934 L 860 482.75376399440745 L 880 474.19601322386706 L 900 463.6566280505221 L 920 451.52097276597897 L 940 438.2327780172337 L 960 424.2779161461597 L 980 410.16663565121894 L 1000 396.4149043542674 L 1020 383.5255434448194 L 1040 371.96984222053663 L 1060 362.17032576642805 L 1080 354.4853056589577 L 1100 349.19577858635625 L 1120 346.49515192673346 L 1140 346.4821719601106 L 1160 349.15731328871163 L 1180 354.422761483508 L 1200 362.0859895915318 L 1220 371.86679773179435 L 1240 383.4075583825456 L 1260 396.2862927490429 L 1280 410.03210008477186 L 1300 424.1423758051795 L 1320 438.10118882719684 L 1340 451.3981461816493 L 1360 463.5470551289092 L 1380 474.1037004122753 L 1400 482.6820866378556 L 1420 488.96855189116695 L 1440 492.733236537211 L 1460 493.8384878564142 L 1480 492.24389320755824 L 1500 488.00775768407595 L 1500 500 L 0 500 Z" fill="#3b82f6" opacity="0.5"/>
  <text x="80" y="270" font-family="monospace" font-size="72" font-weight="bold" fill="#ef4444">Ash</text>
  <text x="80" y="320" font-family="monospace" font-size="24" fill="#888888">anime pokemon trainer</text>
  <circle cx="1350" cy="250" r="80" fill="#ef4444" opacity="0.3"/>
  <circle cx="1350" cy="250" r="50" fill="#3b82f6" opacity="0.5"/>
  <text x="1350" y="270" font-family="monospace" font-size="64" font-weight="bold" fill="#ffffff" text-anchor="middle">A</text>
</svg>