<?xml version="1.0" encoding="UTF-8"?>
<svg xmlns="http://www.w3.org/2000/svg" width="1500" height="500" viewBox="0 0 1500 500">
  <defs>
    <linearGradient id="bg-bags-bot" x1="0%" y1="0%" x2="100%" y2="100%">
      <stop offset="0%" style="stop-color:#0a0a0f"/>
      <stop offset="100%" style="stop-color:#1a1a2e"/>
    </linearGradient>
  </defs>
  <rect width="1500" height="500" fill="url(#bg-bags-bot)"/>
  <path d="M 0 100 L 0 129.30316974847318 L 20 130.58272964621634 L 40 131.50714405798684 L 60 132.0656781144873 L 80 132.25184577437275 L 100 132.06348514415598 L 120 131.50278358344588 L 140 130.57625230398077 L 160 129.29465075742905 L 180 127.67286169001179 L 200 125.72971831489068 L 220 123.4877856093014 L 240 120.9730982761451 L 260 118.21485841298903 L 280 115.24509639933045 L 300 112.09829894010922 L 320 108.81100858485706 L 340 105.42139937311376 L 360 101.96883353397683 L 380 98.49340438766257 L 400 95.03547075718673 L 420 91.63518829686348 L 440 88.3320431801242 L 460 85.16439356176059 L 480 82.16902413941474 L 500 79.38071898702226 L 520 76.83185762072972 L 540 74.55203898801764 L 560 72.56773774649865 L 580 70.90199682389336 L 600 69.57415982936635 L 620 68.5996464236271 L 640 67.9897732563361 L 660 67.75162255020155 L 680 67.88795985784887 L 700 68.39720194652082 L 720 69.27343518355116 L 740 70.50648420910804 L 760 72.0820300987372 L 780 73.98177664352866 L 800 76.18366281695926 L 820 78.66211896111535 L 840 81.38836371730335 L 860 84.33073825290697 L 880 87.45507390324362 L 900 90.72508895913572 L 920 94.1028099924558 L 940 97.54901282695353 L 960 101.02367803354015 L 980 104.48645566053833 L 1000 107.89713380216392 L 1020 111.21610556393381 L 1040 114.40482900230992 L 1060 117.42627469747742 L 1080 120.24535576176591 L 1100 122.82933529019161 L 1120 125.1482065215536 L 1140 127.1750412954196 L 1160 128.8863027585042 L 1180 130.26211868910042 L 1200 131.28651226555328 L 1220 131.9475875989495 L 1240 132.23766787550363 L 1260 132.15338450444636 L 1280 131.69571623617438 L 1300 130.86997779639825 L 1320 129.68575816827519 L 1340 128.156809239233 L 1360 126.30088610558626 L 1380 124.13954088942651 L 1400 121.69787246211108 L 1420 119.00423498071603 L 1440 116.08990862210695 L 1460 112.98873633826625 L 1480 109.73673085109854 L 1500 106.37165645053093 L 1500 500 L 0 500 Z" fill="#4ade80" opacity="0.1"/><path d="M 0 180 L 0 152.01401541149545 L 20 142.86484459578406 L 40 135.07701213309142 L 60 128.93601231859273 L 80 124.66696817876681 L 100 122.42637868217902 L 120 122.29638164088038 L 140 124.281742618827 L 160 128.30968023098234 L 180 134.23253423746567 L 200 141.83317862303375 L 220 150.8329812237142 L 240 160.90201810848936 L 260 171.67116826682363 L 280 182.74564522265734 L 300 193.71946951917937 L 320 204.1903515272895 L 340 213.77443898859747 L 360 222.12038866250717 L 380 228.92224622461117 L 400 233.9306622519632 L 420 236.96203312821396 L 440 237.90523177199952 L 460 236.7256814466852 L 480 233.4666233095972 L 500 228.24753123363152 L 520 221.25973201232404 L 540 212.75939150736613 L 560 203.0581238595135 L 580 192.51156802000173 L 600 181.50635037561446 L 620 170.44591140477547 L 640 159.73571594554284 L 660 149.76838925256465 L 680 140.9093237405629 L 700 133.48328405700215 L 720 127.76250152883466 L 740 123.95669442921982 L 760 122.20537991144536 L 780 122.57275944700899 L 800 125.04536526267984 L 820 129.532554055848 L 840 135.86982988904168 L 860 143.82487444956024 L 880 153.10606361082264 L 900 163.3731580866505 L 920 174.24977626959222 L 940 185.3371920112739 L 960 196.22895153169344 L 980 206.52577361590485 L 1000 215.85018687150728 L 1020 223.8603674594438 L 1040 230.26267002047808 L 1060 234.8223924258835 L 1080 237.37237972714752 L 1100 237.81915189233982 L 1120 236.14633069234256 L 1140 232.41524011065633 L 1160 226.76265826634778 L 1180 219.39580326243737 L 1200 210.5847367736049 L 1220 200.6524638502312 L 1240 189.9630918702461 L 1260 178.90848271998448 L 1280 167.8938875220031 L 1300 157.3230905266377 L 1320 147.58360677765558 L 1340 139.0324761910546 L 1360 131.9831748221386 L 1380 126.69412314097258 L 1400 123.35921259156154 L 1420 122.1006977217963 L 1440 122.9647144517075 L 1460 125.91958877591468 L 1480 130.856997901579 L 1500 137.59594125568128 L 1500 500 L 0 500 Z" fill="#1a1a2e" opacity="0.2"/><path d="M 0 260 L 0 273.86655214646925 L 20 262.93850717572667 L 40 251.8953607021098 L 60 241.16967343742297 L 80 231.18157119715616 L 100 222.32228854701458 L 120 214.93884412144058 L 140 209.32044788282343 L 160 205.6871727498717 L 180 204.18133432814633 L 200 204.86191639922805 L 220 207.70226052244396 L 240 212.59111024759284 L 260 219.33696903679325 L 280 227.67560119539425 L 300 237.28038200003317 L 320 247.7750916087015 L 340 258.7486516145929 L 360 269.7712270120306 L 380 280.4110628595017 L 400 290.2513961466942 L 420 298.9067804266855 L 440 306.03818377646 L 460 311.3662686977321 L 480 314.6823337835607 L 500 315.8564885650164 L 520 314.8427413286641 L 540 311.68080061474586 L 560 306.49451983127034 L 580 299.4870459085691 L 600 290.9328620218128 L 620 281.1670360685253 L 640 270.57209603887696 L 660 259.5630463712948 L 680 248.57111220363907 L 700 238.0268482586085 L 720 228.34327398934653 L 740 219.89969558261134 L 760 213.0268485126196 L 780 207.99394261262117 L 800 204.99811710953384 L 820 204.15671866856326 L 840 205.5027049172667 L 860 208.9833534932985 L 880 214.46232718251534 L 900 221.72501425585736 L 920 230.4869348236877 L 940 240.4048839301863 L 960 251.09037491211845 L 980 262.1248564448081 L 1000 273.07610722270846 L 1020 283.5151660939454 L 1040 293.033134494446 L 1060 301.25719302929525 L 1080 307.86520483086616 L 1100 312.5983336793073 L 1120 315.271182632847 L 1140 315.77905603715794 L 1160 314.102060460436 L 1180 310.3058839203212 L 1200 304.53922288029423 L 1220 297.02795780025565 L 1240 288.0663053853206 L 1260 278.00529409977764 L 1280 267.2390143610224 L 1300 256.1891819941961 L 1320 245.28861959794264 L 1340 234.96430285717705 L 1360 225.6206358798181 L 1380 217.62361066354939 L 1400 211.28647116724866 L 1420 206.85744352627276 L 1440 204.51001301979994 L 1460 204.33612864200654 L 1480 206.34260145443275 L 1500 210.45083779629252 L 1500 500 L 0 500 Z" fill="#ffffff" opacity="0.30000000000000004"/><path d="M 0 340 L 0 399.30554706369537 L 20 400.76357121447063 L 40 401.12455332062893 L 60 400.38197611302536 L 80 398.54924628257413 L 100 395.6594524322036 L 120 391.76476768621785 L 140 386.9355077425175 L 160 381.2588613738611 L 180 374.83731629804373 L 200 367.78680883675884 L 220 360.23463076970813 L 240 352.31713117418235 L 260 344.17725474172835 L 280 335.9619610158013 L 300 327.8195711441891 L 320 319.89709004866125 L 340 312.3375523581207 L 360 305.27744002250284 L 380 298.8442182305234 L 400 293.15403411848604 L 420 288.30961981828744 L 440 284.39843770356106 L 460 281.4911013201905 L 480 279.64010051014293 L 500 278.87885374558266 L 520 279.22110478268405 L 540 280.66067452811853 L 560 283.1715725980864 L 580 286.7084665557765 L 600 291.20750035551237 L 620 296.5874472171719 L 640 302.7511761165729 L 660 309.5874054154059 L 680 316.9727119702058 L 700 324.7737594473591 L 720 332.84970561354345 L 740 341.0547451397221 L 760 349.240742010219 L 780 357.25990401064405 L 800 364.96745100873653 L 820 372.2242288542586 L 840 378.89922170587863 L 860 384.8719174268115 L 880 390.03448334372 L 900 394.29371308713394 L 920 397.5727093645995 L 940 399.8122722853167 L 960 400.97196817107186 L 980 401.030859556864 L 1000 399.9878832015934 L 1020 397.8618692841057 L 1040 394.6912014380208 L 1060 390.53312376316927 L 1080 385.462707325042 L 1100 379.5714948013513 L 1120 372.96584774562507 L 1140 365.7650263067845 L 1160 358.0990360739729 L 1180 350.1062809202829 L 1200 341.9310642215805 L 1220 333.72098356410174 L 1240 325.62426597747856 L 1260 317.7870918036227 L 1280 310.35095551706667 L 1300 303.45011114522856 L 1320 297.20914840967936 L 1340 291.7407433494166 L 1360 287.14362403700403 L 1380 283.5007881150924 L 1400 280.8780043344003 L 1420 279.3226251467974 L 1440 278.8627317912566 L 1460 279.50662730752657 L 1480 281.24268663079357 L 1500 284.0395664737637 L 1500 500 L 0 500 Z" fill="#4ade80" opacity="0.4"/><path d="M 0 420 L 0 399.52513438522885 L 20 391.5323609717224 L 40 384.87371868417523 L 60 379.86126367601906 L 80 376.7299038100805 L 100 375.62638974100906 L 120 376.6024374704732 L 140 379.6123046854204 L 160 384.51493446390225 L 180 391.0805658840512 L 200 399.0015017311283 L 220 407.90652867585766 L 240 417.37831412481023 L 260 426.97296444236343 L 280 436.24082795144534 L 300 444.74756778392543 L 320 452.0945170050547 L 340 457.9373620724626 L 360 462.00227903254176 L 380 464.0987662340843 L 400 464.12857215619744 L 420 462.090299949343 L 440 458.0794728984566 L 460 452.28405774022866 L 480 444.97565563353197 L 500 436.49677361668745 L 520 427.2447730725895 L 540 417.6532474541763 L 560 408.171702000019 L 580 399.24448774674653 L 600 391.2899770922791 L 620 384.6809568436073 L 640 379.72715762563763 L 660 376.6607384074326 L 680 375.6254064110833 L 700 376.66968229686154 L 720 379.74462625061835 L 740 384.70613153996135 L 760 391.3216780520866 L 780 399.2812293098454 L 800 408.2117622792206 L 820 417.69474903121795 L 840 427.2857709830274 L 860 436.535346500329 L 880 445.0099957786579 L 900 452.31255580170046 L 920 458.10079331940534 L 940 462.1034435518187 L 960 464.1329229674758 L 980 464.0941203541248 L 1000 461.98885418972907 L 1020 457.9157874198023 L 1040 452.0658036350235 L 1060 444.7130613437913 L 1080 436.20214557973475 L 1100 426.9319189819354 L 1120 417.33682916428 L 1140 407.866548400939 L 1160 398.9648998106961 L 1180 391.04905766096454 L 1200 384.48999656574864 L 1220 379.59510582261214 L 1240 376.59378366482974 L 1260 375.62668655167954 L 1280 376.7391373270827 L 1300 379.87900117212826 L 1320 384.89912889461266 L 1340 391.56425305123986 L 1360 399.5620137168717 L 1380 408.5175971800022 L 1400 418.01130152445165 L 1420 427.59820588923776 L 1440 436.8290216100654 L 1460 445.2711480571839 L 1480 452.52894639130614 L 1500 458.26228111142115 L 1500 500 L 0 500 Z" fill="#1a1a2e" opacity="0.5"/>
  <text x="80" y="270" font-family="monospace" font-size="72" font-weight="bold" fill="#4ade80">Bags Bot</text>
  <text x="80" y="320" font-family="monospace" font-size="24" fill="#888888">cute helpful robot mascot</text>
  <circle cx="1350" cy="250" r="80" fill="#4ade80" opacity="0.3"/>
  <circle cx="1350" cy="250" r="50" fill="#1a1a2e" opacity="0.5"/>
  <text x="1350" y="270" font-family="monospace" font-size="64" font-weight="bold" fill="#ffffff" text-anchor="middle">B</text>
</svg>