<?xml version="1.0" encoding="UTF-8"?>
<svg xmlns="http://www.w3.org/2000/svg" width="1500" height="500" viewBox="0 0 1500 500">
  <defs>
    <linearGradient id="bg-bnn" x1="0%" y1="0%" x2="100%" y2="100%">
      <stop offset="0%" style="stop-color:#0a0a0f"/>
      <stop offset="100%" style="stop-color:#1a1a2e"/>
    </linearGradient>
  </defs>
  <rect width="1500" height="500" fill="url(#bg-bnn)"/>
  <path d="M 0 100 L 0 22.52898456065489 L 20 27.237999342658384 L 40 34.64500534646946 L 60 44.47535320844198 L 80 56.3645368402426 L 100 69.87170919556597 L 120 84.49602873464022 L 140 99.6952304649572 L 160 114.90573295010215 L 180 129.56353572536182 L 200 143.12513225076526 L 220 155.08766295608785 L 240 165.0075611094917 L 260 172.51700012708244 L 280 177.33753246251547 L 300 179.29041435107928 L 320 178.3032335701168 L 340 174.4125944605932 L 360 167.76276065008733 L 380 158.60030580459437 L 400 147.2649707575166 L 420 134.1770660305134 L 440 119.82188685662265 L 460 104.73171859150722 L 480 89.46609974630024 L 500 74.59107448234622 L 520 60.65820387855647 L 540 48.18411422673178 L 560 37.631340697381745 L 580 29.39117668665679 L 600 23.76916478500719 L 620 20.97376735771317 L 640 21.10863682845971 L 660 24.168772281317104 L 680 30.040704893070455 L 700 38.50670532012786 L 720 49.25285703147491 L 740 61.88069623112607 L 760 75.92198676554975 L 780 90.85608216732501 L 800 106.12923105612116 L 820 121.1751100590366 L 840 135.43582289631658 L 860 148.38258699320903 L 880 159.53534056514692 L 900 168.48054315194184 L 920 174.88650956299378 L 940 178.51570865583727 L 960 179.2335709133312 L 980 177.01347823740662 L 1000 171.9377509394504 L 1020 164.1945953300431 L 1040 154.0711250904268 L 1060 141.94271519097018 L 1080 128.2590831098569 L 1100 113.52761345586305 L 1120 98.29454431276496 L 1140 83.12471290958294 L 1160 68.58061164059335 L 1180 55.20153103104723 L 1200 43.483563020615144 L 1220 33.86120603627758 L 1240 26.691253932550723 L 1260 22.239566191882474 L 1280 20.671209941867545 L 1300 22.04433932006374 L 1320 26.308039137563213 L 1340 33.304212797569406 L 1360 42.77344446557512 L 1380 54.36461812378618 L 1400 67.64793683839403 L 1420 82.1308594895186 L 1440 97.27636403507957 L 1460 112.52286011273654 L 1480 127.3050126271207 L 1500 141.07470419054442 L 1500 500 L 0 500 Z" fill="#ef4444" opacity="0.1"/><path d="M 0 180 L 0 228.28465074895934 L 20 220.59178034086835 L 40 212.14895548405144 L 60 203.11216179944012 L 80 193.64835879383796 L 100 183.9323951953943 L 120 174.1437785315721 L 140 164.46335863335352 L 160 155.06998633968269 L 180 146.1372091343364 L 200 137.83006476506475 L 220 130.3020320845722 L 240 123.69219544815132 L 260 118.12267505721259 L 280 113.69637072446136 L 300 110.49506074584538 L 320 108.5778910036111 L 340 107.980282215083 L 360 108.71327551631843 L 380 110.7633284713234 L 400 114.09256527566617 L 420 118.63947653184519 L 440 124.32005566769494 L 460 131.02935100190228 L 480 138.64340478140838 L 500 147.02154336596348 L 520 156.00897624747026 L 540 165.4396558858724 L 560 175.13934552461637 L 580 184.92883830618672 L 600 194.6272682128664 L 620 204.05545166135101 L 640 213.03919801350628 L 660 221.41252783984044 L 680 229.0207394765886 L 700 235.723267220155 L 720 241.39627835227026 L 740 245.93496101446283 L 760 249.2554606621602 L 780 251.2964293214161 L 800 252.02015902493122 L 820 251.4132784865419 L 840 249.48700014275104 L 860 246.276912997078 L 880 241.8423250945379 L 900 236.2651677743783 L 920 229.64848194558073 L 940 222.11451435198003 L 960 213.8024589995036 L 980 204.86588547384855 L 1000 195.46990166177522 L 1020 185.78810329623377 L 1040 175.99936668407594 L 1060 166.28454387239194 L 1080 156.82312131201087 L 1100 147.78990375110683 L 1120 139.35178462572094 L 1140 131.6646626159265 L 1160 124.8705613358819 L 1180 119.09500537301058 L 1200 114.44470115535903 L 1220 111.00556549432764 L 1240 108.841138226482 L 1260 107.99140828171954 L 1280 108.47207486679937 L 1300 110.27425741425662 L 1320 113.36465965554801 L 1340 117.68618478709041 L 1360 123.1589903636779 L 1380 129.68196342956648 L 1400 137.13458863340654 L 1420 145.37917481261877 L 1440 154.26339890989718 L 1460 163.6231202216493 L 1480 173.28541298365283 L 1500 183.07176126532005 L 1500 500 L 0 500 Z" fill="#1e293b" opacity="0.2"/><path d="M 0 260 L 0 202.04876156083225 L 20 199.4342890733188 L 40 198.65889827235918 L 60 199.74613394922463 L 80 202.6629821230389 L 100 207.3208725124193 L 120 213.57836797773652 L 140 221.24545926890696 L 160 230.0893346684261 L 180 239.84144933406276 L 200 250.20567968017198 L 220 260.86731518931555 L 240 271.50261461725506 L 260 281.78863641654294 L 280 291.4130448772678 L 300 300.0835942208659 L 320 307.53700266188156 L 340 313.546946976224 L 360 317.9309348203443 L 380 320.555846122921 L 400 321.3419752843412 L 420 320.26545144233114 L 440 317.3589633122166 L 460 312.7107665919906 L 480 306.46200407239843 L 500 298.8024198270682 L 520 289.96459762157735 L 540 280.2168984925329 L 560 269.8553119475291 L 580 259.1944682248142 L 600 248.55808452598112 L 620 238.26913532243267 L 640 228.64004521489753 L 660 219.96320214044462 L 680 212.50207899406936 L 700 206.48323325738443 L 720 202.0894275661976 L 740 199.4540801113844 L 760 198.6572133869882 L 780 199.72302430206912 L 800 202.61914944001308 L 820 207.25764777574702 L 840 213.49767101059135 L 860 221.14974043985814 L 880 229.98150048584068 L 900 239.7247741897929 L 920 250.08370642243685 L 940 260.7437475438888 L 960 271.38120472359435 L 980 281.67307089383564 L 1000 291.3068328800033 L 1020 299.9899608831353 L 1040 307.4587911659748 L 1060 313.48653221921717 L 1080 317.89015130019857 L 1100 320.5359322338344 L 1120 321.34353571282963 L 1140 320.28843880588386 L 1160 317.4026795980688 L 1180 312.77388435232587 L 1200 306.54260673238684 L 1220 298.8980598817832 L 1240 290.07237095463944 L 1260 280.3335325597899 L 1280 269.9772651480675 L 1300 259.3180374418989 L 1320 248.67951757243083 L 1340 238.3847448760239 L 1360 228.7463207841405 L 1380 220.05691666088063 L 1400 212.580386818291 L 1420 206.54375656329995 L 1440 202.13032855975115 L 1460 199.47411683129053 L 1480 198.65577741696518 L 1500 199.7001592454386 L 1500 500 L 0 500 Z" fill="#ffffff" opacity="0.30000000000000004"/><path d="M 0 340 L 0 375.0833158070057 L 20 355.1178492773529 L 40 333.95326634545654 L 60 313.26829776690755 L 80 294.703632283033 L 100 279.73178059793344 L 120 269.5402788880976 L 140 264.9374958996053 L 160 266.2885148183127 L 180 273.4861756298922 L 200 285.9595748295788 L 220 302.71934830230066 L 240 322.4361456292033 L 260 343.54607140157805 L 280 364.3747301561945 L 300 383.27003594543004 L 320 398.73325236296085 L 340 409.5378692023728 L 360 414.82688669905633 L 380 414.1807909713955 L 400 407.65082899045365 L 420 395.75494377667775 L 440 379.4366922353756 L 460 359.99040418292003 L 480 338.9585187942663 L 500 318.0092415315113 L 520 298.8042255517977 L 540 282.8667728304353 L 560 271.4610090123856 L 580 265.4916155919157 L 600 265.43207245565577 L 620 271.28710244149227 L 640 282.5922967328773 L 660 298.4509508014981 L 680 317.60518914784996 L 700 338.53573737302713 L 720 359.5824278682445 L 740 379.07588086110496 L 760 395.4699161515504 L 780 407.4641929136421 L 800 414.1073500288364 L 820 414.87246607376375 L 840 409.69885363302126 L 860 398.99687289890437 L 880 383.61538275334385 L 900 364.7744110446212 L 920 343.968384512655 L 940 322.84759396417866 L 960 303.08729663389494 L 980 286.2548382604234 L 1000 273.6853344779668 L 1020 266.37577221747586 L 1040 264.90593077420436 L 1060 269.39239491831313 L 1080 279.4793076330678 L 1100 294.36659595422844 L 1120 312.87343109568076 L 1140 333.5318893359618 L 1160 354.70338467870914 L 1180 374.7086380902611 L 1200 391.9608744244492 L 1220 405.0916821311792 L 1240 413.05955281815403 L 1260 415.23249153315385 L 1280 411.43814529088127 L 1300 401.97747375374803 L 1320 387.600877736598 L 1340 369.44867897278914 L 1360 348.96067216295233 L 1380 327.7619234500447 L 1400 307.53387354843903 L 1420 289.8809693591072 L 1440 276.2034025741557 L 1460 267.58604938025127 L 1480 264.7124203329739 L 1500 267.8104457193198 L 1500 500 L 0 500 Z" fill="#ef4444" opacity="0.4"/><path d="M 0 420 L 0 464.88950567508493 L 20 467.61662732344814 L 40 469.2539101517835 L 60 469.7638803933421 L 80 469.1348659621837 L 100 467.3812636012942 L 120 464.54320937312104 L 140 460.68566003426514 L 160 455.8969063196226 L 180 450.28655216359886 L 200 443.98300610953333 L 220 437.13054232339937 L 240 429.88599847864737 L 260 422.4151860902713 L 280 414.8890954575776 L 300 407.47998207608543 L 320 400.3574240918969 L 340 393.6844410346468 L 360 387.61376266261436 L 380 382.2843333178421 L 400 377.81813179880896 L 420 374.3173795367062 L 440 371.8622009739608 L 460 370.50878969374287 L 480 370.28812227367985 L 500 371.20524930080865 L 520 373.2391797748581 L 540 376.34336154561385 L 560 380.44674678822247 L 580 385.4554181300706 L 600 391.25473821080874 L 620 397.7119734768649 L 640 404.6793321576208 L 660 411.99734689072494 L 680 419.49852457576316 L 700 427.01117991924417 L 720 434.3633649295728 L 740 441.38680442459764 L 760 447.92074747671097 L 780 453.81564664447654 L 800 458.93658078134735 L 820 463.1663430809855 L 840 466.40812368068634 L 860 468.58772542407496 L 880 469.6552620691878 L 900 469.58630007373 L 920 468.3824178245799 L 940 466.07116951201954 L 960 462.70545447553064 L 980 458.3623064554283 L 1000 453.1411304616745 L 1020 447.1614276140257 L 1040 440.5600600268718 L 1060 433.4881183394738 L 1080 426.1074635868763 L 1100 418.587022560386 L 1120 411.09892144858674 L 1140 403.8145462512575 L 1160 396.90062013456816 L 1180 390.51538750817826 L 1200 384.80499216223643 L 1220 379.9001323606797 L 1240 375.91306944831575 L 1260 372.9350584380263 L 1280 371.03425938624366 L 1300 370.2541773606753 L 1320 370.6126667059495 L 1340 372.10152239733 L 1360 374.68666783550486 L 1380 378.30893478424423 L 1400 382.8854175998867 L 1420 388.3113707573492 L 1440 394.4626062425062 L 1460 401.1983359399517 L 1480 408.36439396020285 L 1500 415.7967651544338 L 1500 500 L 0 500 Z" fill="#1e293b" opacity="0.5"/>
  <text x="80" y="270" font-family="monospace" font-size="72" font-weight="bold" fill="#ef4444">BNN</text>
  <text x="80" y="320" font-family="monospace" font-size="24" fill="#888888">news anchor broadcaster</text>
  <circle cx="1350" cy="250" r="80" fill="#ef4444" opacity="0.3"/>
  <circle cx="1350" cy="250" r="50" fill="#1e293b" opacity="0.5"/>
  <text x="1350" y="270" font-family="monospace" font-size="64" font-weight="bold" fill="#ffffff" text-anchor="middle">B</text>
</svg>