<?xml version="1.0" encoding="UTF-8"?>
<svg xmlns="http://www.w3.org/2000/svg" width="1500" height="500" viewBox="0 0 1500 500">
  <defs>
    <linearGradient id="bg-carlo" x1="0%" y1="0%" x2="100%" y2="100%">
      <stop offset="0%" style="stop-color:#0a0a0f"/>
      <stop offset="100%" style="stop-color:#1a1a2e"/>
    </linearGradient>
  </defs>
  <rect width="1500" height="500" fill="url(#bg-carlo)"/>
  <path d="M 0 100 L 0 142.46824405019146 L 20 145.97556601259103 L 40 148.3183370939259 L 60 149.43721542277342 L 80 149.30386005944175 L 100 147.9216488656807 L 120 145.32559294419372 L 140 141.58144981517813 L 160 136.78405779293627 L 180 131.054933752427 L 200 124.53919513379833 L 220 117.40188414984286 L 240 109.82378730338526 L 260 101.99685610529797 L 280 94.11934498534204 L 300 86.39078955147123 L 320 79.00695239717719 L 340 72.15486447845332 L 360 66.00808766119806 L 380 60.72231843768042 L 400 56.431444168953554 L 420 53.24415174772078 L 440 51.241174583470546 L 460 50.47324764313596 L 480 50.959822345644966 L 500 52.688573861796854 L 520 55.61571329944999 L 540 59.667096866439074 L 560 64.74010391637177 L 580 70.70623630682105 L 600 77.41437322874796 L 620 84.69459906304756 L 640 92.3625073054614 L 660 100.22387154239442 L 680 108.07956516285549 L 700 115.73060519130969 L 720 122.98319248227716 L 740 129.65362060966663 L 760 135.57292910976778 L 780 140.59118321228988 L 800 144.5812716548093 L 820 147.44212638282974 L 840 149.10128258116646 L 860 149.51671419162872 L 880 148.67789842374447 L 900 146.60608229470694 L 920 143.3537444471459 L 940 139.0032658767594 L 960 133.66484323998029 L 980 127.47369759713128 L 1000 120.58664929298419 L 1020 113.17814573223953 L 1040 105.4358426654904 L 1060 97.55585091071744 L 1080 89.73776890980379 L 1100 82.17962694431029 L 1120 75.07287107240442 L 1140 68.5975138427055 L 1160 62.91757461638873 L 1180 58.17692499317714 L 1200 54.49564457565818 L 1220 51.96697937960679 L 1240 50.65497993310504 L 1260 50.59287889088439 L 1280 51.78224925855859 L 1300 54.19296454874064 L 1320 57.76396187828069 L 1340 62.40478867754081 L 1360 67.99789383390464 L 1380 74.40160523536498 L 1400 81.45371829367126 L 1420 88.9756045505428 L 1440 96.77673629686312 L 1460 104.6595125972573 L 1480 112.4242644779199 L 1500 119.8743124973971 L 1500 500 L 0 500 Z" fill="#4ade80" opacity="0.1"/><path d="M 0 180 L 0 246.36740513241222 L 20 249.83356059988876 L 40 250.33067748003484 L 60 247.83762038770203 L 80 242.46038395704574 L 100 234.42758638136257 L 120 224.080749498599 L 140 211.85977867370906 L 160 198.28425981412823 L 180 183.93136869309336 L 200 169.41133178641405 L 220 155.34148192797508 L 240 142.3200118318354 L 260 130.90054137427086 L 280 121.56857993134841 L 300 114.72088449757771 L 320 110.64859119436657 L 340 109.52483734784153 L 360 111.39740039487297 L 380 116.18666658104132 L 400 123.689015813234 L 420 133.58547875672625 L 440 145.45529811223514 L 460 158.79381750267783 L 480 173.0339374070232 L 500 187.57022592231493 L 520 201.78465926245764 L 540 215.07289761259162 L 560 226.86997919674172 L 580 236.6743401516257 L 600 244.06913897941496 L 620 248.73997895056215 L 640 250.48827497230593 L 660 249.23969661804276 L 680 245.04732835434243 L 700 238.08941260562523 L 720 228.66177161219906 L 740 217.16523027338928 L 760 204.08857470524862 L 780 189.98777104557016 L 800 175.4623280379767 L 820 161.12980836174657 L 840 147.5995723818224 L 860 135.44687062782083 L 880 125.18838648432063 L 900 117.26026891763439 L 920 111.9995891980536 L 940 109.63001000221762 L 960 110.25227618700805 L 980 113.83993152853536 L 1000 120.24044353303103 L 1020 129.1816884972674 L 1040 140.28352110014734 L 1060 153.07393663354947 L 1080 167.00913872019547 L 1100 181.49665932090645 L 1120 195.92054806269917 L 1140 209.66755994007943 L 1160 222.15322799512887 L 1180 232.84671247221144 L 1200 241.29336996244552 L 1220 247.13408298983478 L 1240 250.12052822377882 L 1260 250.12573417575044 L 1280 247.1494795098739 L 1300 241.31830245322521 L 1320 232.88012090576552 L 1340 222.19369198092437 L 1360 209.713359114237 L 1380 195.96973523085873 L 1400 181.54714324500134 L 1420 167.0587730293775 L 1440 153.1206110791369 L 1460 140.3252512748034 L 1480 129.21670020391934 L 1500 120.26724821650316 L 1500 500 L 0 500 Z" fill="#fbbf24" opacity="0.2"/><path d="M 0 260 L 0 183.93391898007417 L 20 188.18897442438188 L 40 196.7802504710013 L 60 209.18897346512273 L 80 224.66585790547126 L 100 242.2763511292505 L 120 260.95706512714406 L 140 279.5799879225195 L 160 297.02059718954627 L 180 312.2257631530353 L 200 324.277340536771 L 220 332.44760963862103 L 240 336.2432187911793 L 260 335.4349747964135 L 280 330.0716824755014 L 300 320.47719764963114 L 320 307.2308715039031 L 340 291.13256717740524 L 360 273.15436100971505 L 380 254.38184490475052 L 400 235.94857419665547 L 420 218.96761930284458 L 440 204.46435433359193 L 460 193.3145411354434 L 480 186.1914474874649 L 500 183.5251926531118 L 520 185.47677515665055 L 540 191.9283510849616 L 560 202.49034994753225 L 580 216.52499841217065 L 600 233.18483146454574 L 620 251.46386554247167 L 640 270.25834361805863 L 660 288.4333842105341 L 680 304.89150981093314 L 700 318.63891671387995 L 720 328.8454846340411 L 740 334.894902500247 L 760 336.4218836427534 L 780 333.3342231802569 L 800 325.8183656984336 L 820 314.3281470225691 L 840 299.5573898985158 L 860 282.3980083581325 L 880 263.8861505856556 L 900 245.13963238188526 L 920 227.29043922962433 L 940 211.41637274027008 L 960 198.4759689269465 L 980 189.25061818434273 L 1000 184.29738198920248 L 1020 183.9153554270689 L 1040 188.12760670280431 L 1060 196.67978419536524 L 1080 209.05547516811941 L 1100 224.50738871784216 L 1120 242.10248001830558 L 1140 260.7782910864206 L 1160 279.4071060029492 L 1180 296.8640466535599 L 1200 312.0949971125193 L 1220 324.18025513851376 L 1240 332.3900672651847 L 1260 336.2286940681273 L 1280 335.46434478131243 L 1300 330.1431736978766 L 1320 320.58649319980384 L 1340 307.37137170428065 L 1360 291.2957880959087 L 1380 273.33044675160016 L 1400 254.56016274871007 L 1420 236.1183566386392 L 1440 219.1186142385699 L 1460 204.58744411927242 L 1480 193.40229314551323 L 1500 186.23856292454707 L 1500 500 L 0 500 Z" fill="#1e293b" opacity="0.30000000000000004"/><path d="M 0 340 L 0 308.3295150440322 L 20 309.7292803696408 L 40 313.4361605330874 L 60 319.16763175127045 L 80 326.4868638975335 L 100 334.836013970705 L 120 343.5787426880599 L 140 352.0487137552086 L 160 359.60037938988177 L 180 365.6581814273282 L 200 369.7604180931619 L 220 371.5944330912776 L 240 371.0204450333688 L 260 368.0822010249326 L 280 363.003642433463 L 300 356.17183696082805 L 320 348.10747786994324 L 340 339.4251987983115 L 360 330.786728806788 L 380 322.850458000961 L 400 316.2212576345308 L 420 311.4043792084577 L 440 308.766946194683 L 460 308.5099733333313 L 480 310.6530460821844 L 500 315.0328278903503 L 520 321.31550906583936 L 540 329.02224843347057 L 560 337.5656687203039 L 580 346.2946241342893 L 600 354.54382812788657 L 620 361.6845589142873 L 640 367.1725781618137 L 660 370.5896106926398 L 680 371.6752237668271 L 700 370.3466762384038 L 720 366.70522475911207 L 740 361.0284063958513 L 760 353.7488858502711 L 780 345.42147946199395 L 800 336.680869295857 L 820 328.19323017863337 L 840 320.60545648167175 L 860 314.4958583837917 L 880 310.3300853507793 L 900 308.425636170007 L 920 308.92766044533363 L 940 311.79789586688673 L 960 316.81758441338303 L 980 323.60414522555124 L 1000 331.6403334100146 L 1020 340.3136624046286 L 1040 348.96308528810215 L 1060 356.9293771686294 L 1080 363.6053787046243 L 1100 368.4822713946041 L 1120 371.1883577161777 L 1140 371.51739044492473 L 1160 369.44429200423326 L 1180 365.1270657792631 L 1200 358.8947537222226 L 1220 351.2223580727819 L 1240 342.69463856115965 L 1260 333.96154432825654 L 1280 325.6886773660632 L 1300 318.5065629595089 L 1320 312.96259353654864 L 1340 309.4793085766667 L 1360 308.32219031859086 L 1380 309.57942975133415 L 1400 313.15520504490974 L 1420 318.7769847122132 L 1440 326.01629888388356 L 1460 334.3213955915106 L 1480 343.05929312610925 L 1500 351.56402340698094 L 1500 500 L 0 500 Z" fill="#4ade80" opacity="0.4"/><path d="M 0 420 L 0 418.31630317241576 L 20 426.3512640702597 L 40 434.0292430515527 L 60 440.9186882832016 L 80 446.63236860373047 L 100 450.8491384067186 L 120 453.3319880907273 L 140 453.9413655242594 L 160 452.6430197736869 L 180 449.50992622615433 L 200 444.71818490316275 L 220 438.53712250600745 L 240 431.3141545218179 L 260 423.4552582372661 L 280 415.40215420224564 L 300 407.6074786921189 L 320 400.5093426359413 L 340 394.50670696263074 L 360 389.9369584291085 L 380 387.0569463131884 L 400 386.0285458311202 L 420 386.9095597086304 L 440 389.6504692957271 L 460 394.0972178335241 L 480 399.9998694355769 L 500 407.02665709325197 L 520 414.7826301168149 L 540 422.8318529060388 L 560 430.7219073365542 L 580 438.00932157013494 L 600 444.28449602612676 L 620 449.19472551400213 L 640 452.4640235350269 L 660 453.9086344996979 L 680 453.44736197449663 L 700 451.10613244402157 L 720 447.0165380756948 L 740 441.4084403930446 L 760 434.59705057872856 L 780 426.96521257741546 L 800 418.9418848021667 L 820 410.9780299109103 L 840 403.5212678027344 L 860 396.990716498744 L 880 391.75343501189195 L 900 388.1037922681133 L 920 386.24692167817295 L 940 386.2871913197718 L 960 388.22233777988254 L 980 391.9435933731285 L 1000 397.24179958571534 L 1020 403.8191631300188 L 1040 411.3059938439036 L 1060 419.28148365710734 L 1080 427.2973587130471 L 1100 434.9030752445853 L 1120 441.67114303337536 L 1140 447.2211531113973 L 1160 451.24115919321724 L 1180 453.50521106486815 L 1200 453.8860544400583 L 1220 452.36228347004976 L 1240 449.0195438901234 L 1260 444.04571917805146 L 1280 437.7203702934578 L 1300 430.3990225526722 L 1320 422.4931828178453 L 1340 414.4472101628973 L 1360 406.71334003373386 L 1380 399.72626570566587 L 1400 393.87870572371446 L 1420 389.499330592902 L 1440 386.8342893805952 L 1460 386.03337455473917 L 1480 387.14160268311724 L 1500 390.0966842125211 L 1500 500 L 0 500 Z" fill="#fbbf24" opacity="0.5"/>
  <text x="80" y="270" font-family="monospace" font-size="72" font-weight="bold" fill="#4ade80">Carlo</text>
  <text x="80" y="320" font-family="monospace" font-size="24" fill="#888888">community manager friendly</text>
  <circle cx="1350" cy="250" r="80" fill="#4ade80" opacity="0.3"/>
  <circle cx="1350" cy="250" r="50" fill="#fbbf24" opacity="0.5"/>
  <text x="1350" y="270" font-family="monospace" font-size="64" font-weight="bold" fill="#ffffff" text-anchor="middle">C</text>
</svg>