<?xml version="1.0" encoding="UTF-8"?>
<svg xmlns="http://www.w3.org/2000/svg" width="1500" height="500" viewBox="0 0 1500 500">
  <defs>
    <linearGradient id="bg-cj" x1="0%" y1="0%" x2="100%" y2="100%">
      <stop offset="0%" style="stop-color:#0a0a0f"/>
      <stop offset="100%" style="stop-color:#1a1a2e"/>
    </linearGradient>
  </defs>
  <rect width="1500" height="500" fill="url(#bg-cj)"/>
  <path d="M 0 100 L 0 85.31499097866808 L 20 95.71191094349365 L 40 106.45887913318886 L 60 116.67859167463914 L 80 125.53678598918276 L 100 132.3103438872263 L 120 136.44632164791494 L 140 137.60708829993462 L 160 135.69788734437105 L 180 130.87457198217405 L 200 123.53088239883755 L 220 114.26630369571224 L 240 103.83712831133147 L 260 93.0947178387148 L 280 82.91600409229228 L 300 74.13190280898989 L 320 67.45948376529216 L 340 63.44343444577652 L 360 62.41159574104958 L 380 64.44819941546643 L 400 69.38699204201143 L 420 76.8248067160005 L 440 86.15447465217059 L 460 96.61439000310482 L 480 107.35068178976529 L 500 117.48691768248759 L 520 126.19564952561268 L 540 132.76596015245417 L 560 136.66149746270327 L 580 137.5642582846915 L 600 135.40054782825604 L 620 130.34699558835985 L 640 122.81613660509902 L 660 113.42273512056273 L 680 102.93359972287026 L 700 92.20498670194357 L 720 82.11270154917986 L 740 73.48060460331027 L 760 67.01335711856399 L 780 63.238897874195885 L 800 62.465346114214796 L 820 64.75584894607536 L 840 69.92342647272183 L 860 77.54623546369842 L 880 87.00200555086452 L 900 97.51883682958429 L 920 108.23821212079338 L 940 118.28508003377826 L 960 126.83928776105381 L 980 133.2025323544675 L 1000 136.85536507007242 L 1020 137.49959536401695 L 1040 135.08263298739752 L 1060 129.80178106950163 L 1080 122.08812973352866 L 1100 112.571365052188 L 1120 102.02836608263247 L 1140 91.31978614279966 L 1160 81.31979536988054 L 1180 72.84471986453329 L 1200 66.58640279913372 L 1220 63.055727401745614 L 1240 62.54091218629466 L 1260 65.08398290129723 L 1280 70.47734185515364 L 1300 78.28071467319381 L 1320 87.85709107719029 L 1340 98.42472574498926 L 1360 109.12095428044884 L 1380 119.07261482468549 L 1400 127.46732660339364 L 1420 133.61980675101148 L 1440 137.02781179128644 L 1460 137.41313712096184 L 1480 134.74432759862782 L 1500 129.23924531238436 L 1500 500 L 0 500 Z" fill="#ffffff" opacity="0.1"/><path d="M 0 180 L 0 223.4916656193069 L 20 208.32955486014754 L 40 190.6636799250423 L 60 172.0553496667991 L 80 154.14916707705552 L 100 138.52767938316725 L 120 126.57151262941991 L 140 119.33735203898226 L 160 117.46455224410299 L 180 121.11863116619968 L 200 129.97664155296326 L 220 143.255713035056 L 240 159.78224215732945 L 260 178.0956153742003 L 280 196.57729797774653 L 300 213.59388008763665 L 320 227.64143730780737 L 340 237.4784474646474 L 360 242.2355162541974 L 380 241.4922142529602 L 400 235.31423444241022 L 420 224.24758626765643 L 440 209.27033935896756 L 460 191.70618180284544 L 480 173.10743267690287 L 500 155.11784819294132 L 520 139.32734663218528 L 540 127.13149147324242 L 560 119.6081515846048 L 580 117.42223924567894 L 600 120.76694524371793 L 620 129.346664684882 L 640 142.40312253511223 L 660 158.78238991725064 L 680 177.03686826852118 L 700 195.55322800530965 L 720 212.69499448455304 L 740 226.94717952394373 L 760 237.0501759568057 L 780 242.11108162978076 L 800 241.6826140358054 L 820 235.8026411123621 L 840 224.99083447568086 L 860 210.2027408778308 L 880 192.7453310482714 L 900 174.16148970763584 L 920 156.09365551865093 L 940 140.13866246627063 L 960 127.70661177620195 L 980 119.89624726228153 L 1000 117.39784842122472 L 1020 120.43222357657714 L 1040 128.7311948537533 L 1060 141.56129972277063 L 1080 157.78861436790893 L 1100 175.97896979919037 L 1120 194.52470361240844 L 1140 211.7867450855771 L 1160 226.23947614041845 L 1180 236.60556536673766 L 1200 241.96885848757427 L 1220 241.85534801331752 L 1240 236.2750659921391 L 1260 225.72119737824215 L 1280 211.12649237838318 L 1300 193.78083005058247 L 1320 175.21721887869367 L 1340 157.07630958447407 L 1360 140.96139452582239 L 1380 128.29670882473246 L 1400 120.20155656185558 L 1420 117.3913867562348 L 1440 120.11456202854565 L 1460 128.13040832918557 L 1480 140.73048569478368 L 1500 156.8012001250859 L 1500 500 L 0 500 Z" fill="#fbbf24" opacity="0.2"/><path d="M 0 260 L 0 318.5517917638319 L 20 321.7378022608274 L 40 321.7417388070018 L 60 318.5633985059031 L 80 312.3665985571821 L 100 303.4707328325541 L 120 292.3343097588781 L 140 279.53131999455735 L 160 265.721651950416 L 180 251.6170799906775 L 200 237.94457834145612 L 220 225.40885157187049 L 240 214.65601289209908 L 260 206.24028235221317 L 280 200.59542137467088 L 300 198.01237593446436 L 320 198.6242806963868 L 340 202.39959702232687 L 360 209.14373852765542 L 380 218.5091004026953 L 400 230.0129755705624 L 420 243.06243425137052 L 440 256.9848845966913 L 460 271.0627392458947 L 480 284.57040102962543 L 500 296.8116615127837 L 520 307.15558479091163 L 540 315.06902702656646 L 560 320.14411561208686 L 580 322.11927163480163 L 600 320.89269211017734 L 620 316.52759708510564 L 640 309.2489711664804 L 660 299.4319674223615 L 680 287.5825713388745 L 700 274.3115214462143 L 720 260.30283079014913 L 740 246.27853170726036 L 760 232.96146101965653 L 780 221.03800376510168 L 800 211.12271571565188 L 820 203.7266481018603 L 840 199.23100714148188 L 860 197.8675060064859 L 880 199.70642192224645 L 900 204.65297395683837 L 920 212.45220819549223 L 940 222.7021385098014 L 960 234.87446562352812 L 980 248.34180657824092 L 1000 262.4100311446554 L 1020 276.3540385046706 L 1040 289.45513021154056 L 1060 301.03805316066615 L 1080 310.50580331171784 L 1100 317.370396317581 L 1120 321.2780190882681 L 1140 322.0272659343489 L 1160 319.57951936727784 L 1180 314.06094051207157 L 1200 305.755966543 L 1220 295.092650295789 L 1240 282.6205976782787 L 1260 268.98264002385196 L 1280 254.88170144391793 L 1300 241.04456889386196 L 1320 228.1844323064191 L 1340 216.96412553929628 L 1360 207.96196276268444 L 1380 201.64193113880052 L 1400 198.32977611471696 L 1420 198.19621193417524 L 1440 201.24812272787165 L 1460 207.32820769336064 L 1480 216.1230886526222 L 1500 227.1794621096425 L 1500 500 L 0 500 Z" fill="#1f2937" opacity="0.30000000000000004"/><path d="M 0 340 L 0 296.19482735864943 L 20 299.2529964775269 L 40 303.0312905662511 L 60 307.46293553884004 L 80 312.4696105882068 L 100 317.9628323558888 L 120 323.8455187053399 L 140 330.01370446209796 L 160 336.3583787984187 L 180 342.767411790132 L 200 349.12753609753366 L 220 355.32634874791046 L 240 361.2542976420392 L 260 366.8066176769772 L 280 371.8851822678939 L 300 376.4002375468545 L 320 380.2719885899248 L 340 383.432009639083 L 360 385.8244533959753 L 380 387.4070380155738 L 400 388.1517943565196 L 420 388.0455602819388 L 440 387.0902132749133 L 460 385.30263725757624 L 480 382.7144242002394 L 500 379.3713157940397 L 520 375.33239505446505 L 540 370.669042142616 L 560 365.4636728580538 L 580 359.8082820979498 L 600 353.8028180240956 L 620 347.55341567124833 L 640 341.1705212143865 L 660 334.7669400448503 L 680 328.4558431518653 L 700 322.34876704282783 L 720 316.5536425499144 L 740 311.17288736006986 L 760 306.3015959792426 L 780 302.0258591197667 L 800 298.4212422124918 L 820 295.5514499330323 L 840 293.46720034406906 L 860 292.20532855107376 L 880 291.7881357126183 L 900 292.2229949102606 L 920 293.5022208434995 L 940 295.6032056526898 L 960 298.48881846950803 L 980 302.1080616336833 L 1000 306.3969719786226 L 1020 311.2797512574408 L 1040 316.67010573128704 L 1060 322.47277124531854 L 1080 328.58519683953614 L 1100 334.89935713989473 L 1120 341.30366149916074 L 1140 347.68492614712017 L 1160 353.9303744961725 L 1180 359.92963025075653 L 1200 365.5766680962257 L 1220 370.7716874924997 L 1240 375.4228764567901 L 1260 379.4480341639289 L 1280 382.77602368796084 L 1300 385.34802921058116 L 1320 387.1185954776776 L 1340 388.0564311335803 L 1360 388.1449617356298 L 1380 387.38262267559435 L 1400 385.78288683111305 L 1420 383.37402645847925 L 1440 380.1986135348506 L 1460 376.31276738037855 L 1480 371.7851628570874 L 1500 366.6958166726846 L 1500 500 L 0 500 Z" fill="#ffffff" opacity="0.4"/><path d="M 0 420 L 0 367.5433357266798 L 20 383.63511071192426 L 40 402.8725064351638 L 60 423.59145758184013 L 80 443.9997419378226 L 100 462.33201046028785 L 120 477.00249277655735 L 140 486.7421688424651 L 160 490.70854119372433 L 180 488.55851231602946 L 200 480.47806312551626 L 220 467.1661653238344 L 240 449.77431923469794 L 260 429.80694719517544 L 280 408.9912586317338 L 300 389.12784369885145 L 320 371.934919367995 L 340 358.8997009278869 L 360 351.1497554975874 L 380 349.35546567803783 L 400 353.67204039127364 L 420 363.72608906191084 L 440 378.6479204955493 L 460 397.1467725497641 L 480 417.62246511153825 L 500 438.30381822107887 L 520 457.4018619542427 L 540 473.264585165161 L 560 484.51983707680097 L 580 490.19402050468784 L 600 489.796309561231 L 620 483.3611068753388 L 640 471.44506771032235 L 660 455.0789483986241 L 680 435.67844428031634 L 700 414.9217298054481 L 720 394.6042937760765 L 740 376.48362671033806 L 760 362.12719511849093 L 780 352.77685315774613 L 800 349.24142027331266 L 820 351.826717030488 L 840 360.3091111495528 L 860 373.95486205350664 L 880 391.5835905945141 L 900 411.6703837268131 L 920 432.47770190955055 L 940 452.20567903948665 L 960 469.14781373043445 L 980 481.8385843962408 L 1000 489.1802191979415 L 1020 490.53765505312015 L 1040 485.79347160218964 L 1060 475.358048256177 L 1080 460.1340657252293 L 1100 441.4384227020622 L 1120 420.8883220313745 L 1140 400.26138009267765 L 1160 381.3418601573314 L 1180 365.76633077886817 L 1200 354.8821000112191 L 1220 349.63067112003745 L 1240 350.466301053374 L 1260 357.31670649347234 L 1280 369.58931647867354 L 1300 386.2225307336969 L 1320 405.7775497812325 L 1340 426.5628333841982 L 1360 446.78042146553605 L 1380 464.6814605133568 L 1400 478.71748219012744 L 1420 487.67434830569334 L 1440 490.77727570101956 L 1460 487.7578562232335 L 1480 478.8772744575757 L 1500 464.9037148455339 L 1500 500 L 0 500 Z" fill="#fbbf24" opacity="0.5"/>
  <text x="80" y="270" font-family="monospace" font-size="72" font-weight="bold" fill="#ffffff">CJ</text>
  <text x="80" y="320" font-family="monospace" font-size="24" fill="#888888">GTA gangster street</text>
  <circle cx="1350" cy="250" r="80" fill="#ffffff" opacity="0.3"/>
  <circle cx="1350" cy="250" r="50" fill="#fbbf24" opacity="0.5"/>
  <text x="1350" y="270" font-family="monospace" font-size="64" font-weight="bold" fill="#ffffff" text-anchor="middle">C</text>
</svg>