<?xml version="1.0" encoding="UTF-8"?>
<svg xmlns="http://www.w3.org/2000/svg" width="1500" height="500" viewBox="0 0 1500 500">
  <defs>
    <linearGradient id="bg-finn" x1="0%" y1="0%" x2="100%" y2="100%">
      <stop offset="0%" style="stop-color:#0a0a0f"/>
      <stop offset="100%" style="stop-color:#1a1a2e"/>
    </linearGradient>
  </defs>
  <rect width="1500" height="500" fill="url(#bg-finn)"/>
  <path d="M 0 100 L 0 141.99594098360276 L 20 136.34335928755485 L 40 129.37465680798397 L 60 121.34219475605347 L 80 112.53685681606343 L 100 103.2775152248115 L 120 93.89948328709055 L 140 84.74237250232528 L 160 76.1377940384734 L 180 68.39734992604961 L 200 61.80134885334707 L 220 56.588655203573566 L 240 52.94803893594847 L 260 51.011339561969365 L 280 50.848691773296494 L 300 52.46598561805042 L 320 55.804653201466564 L 340 60.74378963522568 L 360 67.10453142842995 L 380 74.65653376329787 L 400 83.12631209065795 L 420 92.20714596674853 L 440 101.57018647858162 L 460 110.87636501895751 L 480 119.78867215252778 L 500 127.98436191200784 L 520 135.1666395640762 L 540 141.0754095898754 L 560 145.49669465796282 L 580 148.2703844955937 L 600 149.29603404447099 L 620 148.53650092936152 L 640 146.0192905140558 L 660 141.83555983546577 L 680 136.13681648690974 L 700 129.12943199562196 L 720 121.0671683843738 L 740 112.24198855667818 L 760 102.97348329382918 L 780 93.59729774937762 L 800 84.45297655835797 L 820 75.87166773258404 L 840 68.16413062718519 L 860 61.609482252064744 L 880 56.44508946390013 L 900 52.85797307793843 L 920 50.9780351869149 L 940 50.87335494968026 L 960 52.547723205566676 L 980 55.940505194770864 L 1000 60.92883635613268 L 1020 67.33207168475255 L 1040 74.91832752257066 L 1060 83.41287888067552 L 1080 92.50810819678715 L 1100 101.87464524843585 L 1120 111.17329480642498 L 1140 120.06732008632218 L 1160 128.23463717102337 L 1180 135.37947880148835 L 1200 141.24310514878624 L 1220 145.61317369274897 L 1240 148.33142889099202 L 1260 149.29943316835835 L 1280 148.48213168751437 L 1300 145.9091218078245 L 1320 141.6735812609364 L 1340 135.92889385760634 L 1360 128.8830949207815 L 1380 120.79133759532947 L 1400 111.94665285582238 L 1420 102.66933782496889 L 1440 93.29535668898485 L 1460 84.164174253526 L 1480 75.60646272988565 L 1500 67.93212693194022 L 1500 500 L 0 500 Z" fill="#ec4899" opacity="0.1"/><path d="M 0 180 L 0 201.43988206031236 L 20 205.917490157612 L 40 210.0203663241862 L 60 213.6891885077036 L 80 216.87091049065015 L 100 219.51952886704598 L 120 221.5967481896118 L 140 223.072534670255 L 160 223.9255504281135 L 180 224.14346200651613 L 200 223.72311869812182 L 220 222.67059809989564 L 240 221.00111823925846 L 260 218.73881754194832 L 280 215.91640582295997 L 300 212.57469134676376 L 320 208.76199079487404 L 340 204.53343067184042 L 360 199.95015025038788 L 380 195.0784175800437 L 400 189.98867134057332 L 420 184.75450239373149 L 440 179.4515897587159 L 460 174.15660639568213 L 480 168.94611061821388 L 500 163.89543916342782 L 520 159.0776179244255 L 540 154.56230609443142 L 560 150.41478898886734 L 580 146.69503410779728 L 600 143.4568240868056 L 620 140.74697907266886 L 640 138.60467976721975 L 660 137.06090092727453 L 680 136.13796351145186 L 700 135.84921194923413 L 720 136.19882119852633 L 740 137.1817363813989 L 760 138.78374587080089 L 780 140.98168677150767 L 800 143.74377982432665 L 820 147.03008889129723 L 840 150.79309837835007 L 860 154.97840024667244 L 880 159.52548067952335 L 900 164.36859503035706 L 920 169.43771840168634 L 940 174.65955811059814 L 960 179.95861340203635 L 980 185.25826708782782 L 1000 190.48189332782462 L 1020 195.5539655361422 L 1040 200.40114839366416 L 1060 204.95335817778735 L 1080 209.14477607846885 L 1100 212.91479984939366 L 1120 216.20892003467046 L 1140 218.9795081020006 L 1160 221.1865050869782 L 1180 222.79800079165364 L 1200 223.79069516293163 L 1220 224.15023517989437 L 1240 223.87142237911388 L 1260 222.9582880174176 L 1280 221.42403478535496 L 1300 219.29084591410992 L 1320 216.58956443591515 L 1340 213.35924723543056 L 1360 209.64660033989986 L 1380 205.50530361302916 L 1400 200.99523461660132 L 1420 196.18160286174012 L 1440 191.13400696738336 L 1460 185.92542835817932 L 1480 180.63117605157893 L 1500 175.32779779107656 L 1500 500 L 0 500 Z" fill="#4ade80" opacity="0.2"/><path d="M 0 260 L 0 205.46727317760477 L 20 201.96820001471266 L 40 200.90417422775127 L 60 202.3198429446938 L 80 206.15580389996776 L 100 212.25109798734726 L 120 220.3499631957149 L 140 230.11256652870222 L 160 241.12926359074916 L 180 252.93778749922978 L 200 265.0426458661044 L 220 276.9359119406993 L 240 288.1185375054246 L 260 298.1212932231876 L 280 306.5244577675983 L 300 312.9754295688525 L 320 317.2035221764036 L 340 319.031322416581 L 360 318.3821347503923 L 380 315.28319946201685 L 400 309.86454964096856 L 420 302.3535549196071 L 440 293.0653809138796 L 460 282.38976469459163 L 480 270.77466119796446 L 500 258.7074467814055 L 520 246.6944686339952 L 540 235.23979816007372 L 560 224.8240798560508 L 580 215.88436319361375 L 600 208.79576377500055 L 620 203.85572326870488 L 640 201.2715285876762 L 660 201.15161401240425 L 680 203.50101122675767 L 700 208.22113818566322 L 720 215.11393567385866 L 740 223.89017798335783 L 760 234.1816089888693 L 780 245.5563943845313 L 800 257.5372416973119 L 820 269.6214277509903 L 840 281.3018932169274 L 860 292.0885191122602 L 880 301.52869247154166 L 900 309.2262982445292 L 920 314.85834050927616 L 940 318.1884955649604 L 960 319.0770282089542 L 980 317.48665510550495 L 1000 313.4841092157354 L 1020 307.23733964459143 L 1040 299.00846440075287 L 1060 289.1427717757162 L 1080 278.0542318504442 L 1100 266.2081260750174 L 1120 254.1015237940152 L 1140 242.242424933741 L 1160 231.12844403601426 L 1180 221.22593006860782 L 1200 212.95039815697984 L 1220 206.64909433297754 L 1240 202.5864248935875 L 1260 200.93286176213752 L 1280 201.75778938931137 L 1300 205.02659334208454 L 1320 210.60211274504644 L 1340 218.25039562884473 L 1360 227.65051568805183 L 1380 238.4080385317063 L 1400 250.07157237498328 L 1420 262.1517086955493 L 1440 274.1415580938731 L 1460 285.53801966109734 L 1480 295.8628913796871 L 1500 304.6829357524159 L 1500 500 L 0 500 Z" fill="#ffffff" opacity="0.30000000000000004"/><path d="M 0 340 L 0 350.904472056478 L 20 361.45876221144914 L 40 370.413702078152 L 60 377.10186799458285 L 80 381.02478199723987 L 100 381.89006405137656 L 120 379.6332235265885 L 140 374.4224657698723 L 160 366.64615553582934 L 180 356.88387164135173 L 200 345.86321018014416 L 220 334.40555581135936 L 240 323.3648628608351 L 260 313.564008961452 L 280 305.7334648810387 L 300 300.4568515576951 L 320 298.1274420496065 L 340 298.91885036728974 L 360 302.7720917888605 L 380 309.39997907035615 L 400 318.30852689567047 L 420 328.8337692637792 L 440 340.1912457640745 L 460 351.5344684614296 L 480 362.01801177574157 L 500 370.8605231827314 L 520 377.40295846407804 L 540 381.1577011556959 L 560 381.84490525588944 L 580 379.4133525226689 L 600 374.04426983792507 L 620 366.13782212519675 L 640 356.28328752196114 L 660 345.2151376908021 L 680 333.758296662688 L 700 322.7666581440871 L 720 313.059443675368 L 740 305.3601449521767 L 760 300.24260102035674 L 780 298.0882292832946 L 800 299.05759795199697 L 820 303.07845868126793 L 840 309.85113133564215 L 860 318.8708395512556 L 880 329.46533239431295 L 900 340.8449881235584 L 920 352.1616657562259 L 940 362.5719181514366 L 960 371.2998552552739 L 980 377.69497222568486 L 1000 381.28063242960786 L 1020 381.78959180961465 L 1040 379.18391694144196 L 1060 373.65781226290784 L 1080 365.6231457570546 L 1100 355.67875187974005 L 1120 344.56579962559755 L 1140 333.1125522101862 L 1160 322.1726355032066 L 1180 312.56141614913366 L 1200 304.9952311991488 L 1220 300.0379985512932 L 1240 298.05918739424766 L 1260 299.20628117385434 L 1280 303.3937854543667 L 1300 310.30959993325246 L 1320 319.4382796947507 L 1340 330.09945200980104 L 1360 341.4985254267933 L 1380 352.7859117366867 L 1400 363.12034692011997 L 1420 371.7315916815154 L 1440 377.9778384153935 L 1460 381.39354598680967 L 1480 381.7241371356614 L 1500 378.94497246084967 L 1500 500 L 0 500 Z" fill="#ec4899" opacity="0.4"/><path d="M 0 420 L 0 367.46678292071414 L 20 379.02358574504444 L 40 392.2744091792395 L 60 406.6714461883659 L 80 421.61950371178415 L 100 436.50060875252666 L 120 450.6995562201792 L 140 463.62934234474534 L 160 474.75543220962953 L 180 483.61785815096925 L 200 489.8502354454789 L 220 493.19490915244916 L 240 493.51360591888147 L 260 490.7931503876725 L 280 485.1460098847674 L 300 476.80564486717964 L 320 466.1168573506657 L 340 453.5215363261651 L 360 439.5403894688445 L 380 424.75141637570323 L 400 409.76601327733016 L 420 395.20369708747495 L 440 381.6664937325523 L 460 369.7140495823123 L 480 359.84049490893506 L 500 352.45401587056654 L 520 347.859979541238 L 540 346.2483096213476 L 560 347.68563473397603 L 580 352.1125339071291 L 600 359.34599311741147 L 620 369.08697133828053 L 640 380.93276330217145 L 660 394.3936478831176 L 680 408.91313383312354 L 700 423.890965886052 L 720 438.70794012545286 L 740 452.75150271532675 L 760 465.4410737075317 L 780 476.2520490052483 L 800 484.73748820873504 L 820 490.54659173838473 L 840 493.4392033657182 L 860 493.29573859799405 L 880 490.1221284635304 L 900 484.0495743149396 L 920 475.3291237870445 L 940 464.321292146741 L 960 451.4811581022972 L 980 437.3395502315715 L 1000 422.48110180775825 L 1020 407.5200812659614 L 1040 393.074997511931 L 1060 379.7430299239872 L 1080 368.0753401465699 L 1100 358.55428631940015 L 1120 351.5734817369578 L 1140 347.4215223403737 L 1160 346.27005576932146 L 1180 348.16668521550025 L 1200 353.0330014420475 L 1220 360.66782432786704 L 1240 370.75551992703174 L 1260 382.8790492047273 L 1280 396.5372089972774 L 1300 411.1653524315453 L 1320 426.1587321934411 L 1340 440.89750160311337 L 1360 454.77233991842235 L 1380 467.2096424818593 L 1400 477.6952343160213 L 1420 485.79562681540995 L 1440 491.17593875404566 L 1460 493.613740730106 L 1480 493.00825069944926 L 1500 489.3845004421775 L 1500 500 L 0 500 Z" fill="#4ade80" opacity="0.5"/>
  <text x="80" y="270" font-family="monospace" font-size="72" font-weight="bold" fill="#ec4899">Finn</text>
  <text x="80" y="320" font-family="monospace" font-size="24" fill="#888888">tech startup founder</text>
  <circle cx="1350" cy="250" r="80" fill="#ec4899" opacity="0.3"/>
  <circle cx="1350" cy="250" r="50" fill="#4ade80" opacity="0.5"/>
  <text x="1350" y="270" font-family="monospace" font-size="64" font-weight="bold" fill="#ffffff" text-anchor="middle">F</text>
</svg>