<?xml version="1.0" encoding="UTF-8"?>
<svg xmlns="http://www.w3.org/2000/svg" width="1500" height="500" viewBox="0 0 1500 500">
  <defs>
    <linearGradient id="bg-ghost" x1="0%" y1="0%" x2="100%" y2="100%">
      <stop offset="0%" style="stop-color:#0a0a0f"/>
      <stop offset="100%" style="stop-color:#1a1a2e"/>
    </linearGradient>
  </defs>
  <rect width="1500" height="500" fill="url(#bg-ghost)"/>
  <path d="M 0 100 L 0 142.81734670170533 L 20 144.06579699398168 L 40 142.83177841481796 L 60 139.1848100224981 L 80 133.33034561853393 L 100 125.59819940426117 L 120 116.42396573166621 L 140 106.32447967613969 L 160 95.86870087215304 L 180 85.64566088564172 L 200 76.23127982401846 L 220 68.15592158680712 L 240 61.87451554819655 L 260 57.74092788157864 L 280 55.988026330413255 L 300 56.71456148659508 L 320 59.87960362611449 L 340 65.30484850567761 L 360 72.68466222207158 L 380 81.60329925206273 L 400 91.55832368587616 L 420 101.98891420727101 L 440 112.30745824490002 L 460 121.93265542252135 L 480 130.3222654085195 L 500 137.00365529813604 L 520 141.60042562624398 L 540 143.85361502082398 L 560 143.63628892230668 L 580 140.96069050592834 L 600 135.97755095628634 L 620 128.96759795012554 L 640 120.32574072125429 L 660 110.53882264992593 L 680 100.15819469576839 L 700 89.76865476373553 L 720 79.95550281954392 L 740 71.27156772126443 L 760 64.20606332711989 L 780 59.15702838634427 L 800 56.408902825736206 L 820 56.11650368309822 L 840 58.29630341142455 L 860 62.82550189496362 L 880 69.44894445559873 L 900 77.79349612017148 L 920 87.38906236715879 L 940 97.6950721383486 L 960 108.13093118171308 L 980 118.10873012106586 L 1000 127.06636462692396 L 1020 134.49920184706497 L 1040 139.98850915246135 L 1060 143.22504365087005 L 1080 144.02647354094552 L 1100 142.34764986611657 L 1120 138.28315000379837 L 1140 132.06194960119313 L 1160 124.03452311686036 L 1180 114.65309966554514 L 1200 104.44618646319263 L 1220 93.9887951067061 L 1240 83.87004800597863 L 1260 74.65998987616541 L 1280 66.87747398150071 L 1300 60.96093227528932 L 1320 57.243676114959925 L 1340 55.93511899884199 L 1360 57.108979151247006 L 1380 60.699126569166744 L 1400 66.50330848930537 L 1420 74.1945433993828 L 1440 83.33954170634325 L 1460 93.42311532384635 L 1480 103.87720105263216 L 1500 114.1128627070097 L 1500 500 L 0 500 Z" fill="#1a1a2e" opacity="0.1"/><path d="M 0 180 L 0 225.6696634137144 L 20 227.80278436920617 L 40 229.44951064552816 L 60 230.59308675637507 L 80 231.22187678256597 L 100 231.32948276785027 L 120 230.91480981829275 L 140 229.9820772428505 L 160 228.5407756217851 L 180 226.6055702397408 L 200 224.19615186605986 L 220 221.33703640064883 L 240 218.05731542400576 L 260 214.3903601895681 L 280 210.37348207026784 L 300 206.04755291425943 L 320 201.4565891727123 L 340 196.64730403117863 L 360 191.66863210161293 L 380 186.57123151131532 L 400 181.40696845505727 L 420 176.22838945508738 L 440 171.0881866987852 L 460 166.03866189416854 L 480 161.13119409853948 L 500 156.415716935127 L 520 151.94021051706252 L 540 147.75021324837553 L 560 143.88835846944812 L 580 140.39394066157428 L 600 137.30251562450442 L 620 134.64553869518028 L 640 132.45004468879418 L 660 130.738372818782 L 680 129.52793939469657 L 700 128.83106061076657 L 720 128.65482722827304 L 740 129.00103242685324 L 760 129.86615355884743 L 780 131.2413879923379 L 800 133.1127426781773 L 820 135.46117652965822 L 840 138.26279416610737 L 860 141.489089049058 L 880 145.1072335370829 L 900 149.08041290797138 L 920 153.3681999495666 L 940 157.92696630778903 L 960 162.71032640636986 L 980 167.66960942139784 L 1000 172.75435450832512 L 1020 177.9128242424839 L 1040 183.0925310488414 L 1060 188.24077126455623 L 1080 193.30516140023437 L 1100 198.234171143411 L 1120 202.97764768093313 L 1140 207.4873260052482 L 1160 211.71732001221685 L 1180 215.6245893935169 L 1200 219.16937757299442 L 1220 222.31561623094714 L 1240 225.03129230029504 L 1260 227.2887737004405 L 1280 229.06509049446782 L 1300 230.34216860889916 L 1320 231.10701373790187 L 1340 231.351843560717 L 1360 231.07416692699223 L 1380 230.27680920430726 L 1400 228.96788352997876 L 1420 227.16070825965954 L 1440 224.87367145269405 L 1460 222.13004377309602 L 1480 218.9577417098855 L 1500 215.3890435260263 L 1500 500 L 0 500 Z" fill="#4a0080" opacity="0.2"/><path d="M 0 260 L 0 273.7124915570026 L 20 267.40520959975146 L 40 260.918378445346 L 60 254.40927997894556 L 80 248.03573598642913 L 100 241.95228155440964 L 120 236.30641816066168 L 140 231.23503730378985 L 160 226.86110138601236 L 180 223.29066232549079 L 200 220.61029018593084 L 220 218.88497416976503 L 240 218.15654686813974 L 260 218.4426699738715 L 280 219.7364060501153 L 300 222.00638673778695 L 320 225.1975733233245 L 340 229.23259122580814 L 360 234.01360604701665 L 380 239.4246956970797 L 400 245.33466108037248 L 420 251.600207192819 L 440 258.06941750065073 L 460 264.5854373596679 L 480 270.99027716558334 L 500 277.1286430229894 L 520 282.85170205326347 L 540 288.0206910464906 L 560 292.51028096082104 L 580 296.21161569247926 L 600 299.0349514373883 L 620 300.9118326495617 L 640 301.79675183724504 L 660 301.66825295283365 L 680 300.52945162340336 L 700 298.4079596081709 L 720 295.3552153145133 L 740 291.44523660507986 L 760 286.77282613585385 L 780 281.4512727391397 L 800 275.60960458451507 L 820 269.38946071852894 L 840 262.94165683684497 L 860 256.4225285562707 L 880 249.99014084892568 L 900 243.8004555458804 L 920 238.0035498342597 L 940 232.73997743539718 L 960 228.13736069213806 L 980 224.3072961946841 L 1000 221.3426489722156 L 1020 219.31530085622833 L 1040 218.27440760952334 L 1060 218.2452070790855 L 1080 219.22840727077562 L 1100 221.20016918278253 L 1120 224.11268481406165 L 1140 227.89533633317262 L 1160 232.45640830192002 L 1180 237.6853114386472 L 1200 243.45526400307392 L 1220 249.62636578891883 L 1240 256.0489901912519 L 1260 262.5674121033725 L 1280 269.02358368000745 L 1300 275.2609664184095 L 1320 281.128326643429 L 1340 286.4834023699556 L 1360 291.1963526347532 L 1380 295.15290566402854 L 1400 298.25712954520907 L 1420 300.4337582242899 L 1440 301.6300164318382 L 1460 301.81689928988794 L 1480 300.98987557394463 L 1500 299.16899757857544 L 1500 500 L 0 500 Z" fill="#9945ff" opacity="0.30000000000000004"/><path d="M 0 340 L 0 396.64732794393353 L 20 388.9122697903375 L 40 378.8019596408443 L 60 366.80736907507304 L 80 353.5109731100991 L 100 339.55846435412525 L 120 325.6273972206445 L 140 312.3942848863223 L 160 300.50174681287575 L 180 290.52730219776436 L 200 282.9553247897748 L 220 278.15352098503854 L 240 276.35507346184875 L 260 277.6473174857182 L 280 281.96749978001424 L 300 289.10582591767076 L 320 298.71564824813896 L 340 310.3302996188106 L 360 323.3857554205621 L 380 337.2480234550476 L 400 351.2439315313689 L 420 364.69381770099693 L 440 376.9445356449009 L 460 387.4011724225822 L 480 395.55593832231756 L 500 401.01282587885464 L 520 403.506840580272 L 540 402.91686939250417 L 560 399.2715621869899 L 580 392.74794046063926 L 600 383.6628009107311 L 620 372.4573313198285 L 640 359.6756858260413 L 660 345.93855999512635 L 680 331.9130489279172 L 700 318.2802521378622 L 720 305.7021983536229 L 740 294.78969642712093 L 760 286.0726735543802 L 780 279.97444122892784 L 800 276.7911386110313 L 820 276.6773515730925 L 840 279.6386057815779 L 860 285.53109836250053 L 880 294.06868118117706 L 900 304.8367566178869 L 920 317.312411040066 L 940 330.88980825991484 L 960 344.9096098336485 L 980 358.69099350924677 L 1000 371.56471495963154 L 1020 382.9056072747264 L 1040 392.162939989105 L 1060 398.88716336604966 L 1080 402.75173919612126 L 1100 403.5689979744486 L 1120 401.29925240881016 L 1140 396.0527246931068 L 1160 388.08419395498237 L 1180 377.78062380543304 L 1200 365.642370814855 L 1220 352.25888645966023 L 1240 338.2800924887883 L 1260 324.38481976455404 L 1280 311.24784323429157 L 1300 299.50711386321507 L 1320 289.73277879418845 L 1340 282.3994941611588 L 1360 277.8633750868911 L 1380 276.3447022071227 L 1400 277.9172245178469 L 1420 282.504578015243 L 1440 289.88399404438513 L 1460 299.6971172738417 L 1480 311.4674079593593 L 1500 324.62328341702414 L 1500 500 L 0 500 Z" fill="#1a1a2e" opacity="0.4"/><path d="M 0 420 L 0 471.42150254638875 L 20 465.5091426625388 L 40 456.9615245231958 L 60 446.2736076013064 L 80 434.06428778579755 L 100 421.0405595168053 L 120 407.9565764748913 L 140 395.569981461231 L 160 384.5980342363354 L 180 375.67607778430875 L 200 369.3207480604732 L 220 365.9000576034367 L 240 365.6120853538035 L 260 368.4735066696179 L 280 374.3186277209422 L 300 382.808980178037 L 320 393.4529206019012 L 340 405.63409961234635 L 360 418.6471522943057 L 380 431.7385431491306 L 400 444.15020041788046 L 420 455.1634130818845 L 440 464.1404486352258 L 460 470.56148170507277 L 480 474.05469512643106 L 500 474.4178104346174 L 520 471.629801027995 L 540 465.85210973706654 L 560 457.4193002952124 L 580 446.81968404820816 L 600 434.6670437347687 L 620 421.6650917045093 L 640 408.56672066031683 L 660 396.130406556873 L 680 385.0762881946829 L 700 376.0444667702722 L 720 369.55794009415376 L 740 365.99231781249176 L 760 365.55407130672705 L 780 368.26857773526535 L 800 373.978650540486 L 820 382.35364151372005 L 840 392.90858735285593 L 860 405.0322920095497 L 880 418.02271868603907 L 900 431.12764206805167 L 920 443.5882067803909 L 940 454.6828697636812 L 960 463.7691820393637 L 980 470.32099044269887 L 1000 473.95890511544815 L 1020 474.47226850369475 L 1040 471.8313537211957 L 1060 466.18908591827164 L 1080 457.8721869784266 L 1100 447.36225631903164 L 1120 435.26788333365533 L 1140 422.28940633653633 L 1160 409.1783586822799 L 1180 396.6939503789769 L 1200 385.55910517604184 L 1220 376.4185988488007 L 1240 369.80172272969764 L 1260 366.09163449647116 L 1280 365.50317099449353 L 1300 368.07040786683143 L 1320 373.6446863656856 L 1340 381.9032216049188 L 1360 392.3677937830983 L 1380 404.43244004068936 L 1400 417.39854342316784 L 1420 430.5152870840455 L 1440 443.0231311815412 L 1460 454.1977948901347 L 1480 463.3921966990006 L 1500 470.07392439701925 L 1500 500 L 0 500 Z" fill="#4a0080" opacity="0.5"/>
  <text x="80" y="270" font-family="monospace" font-size="72" font-weight="bold" fill="#1a1a2e">Ghost</text>
  <text x="80" y="320" font-family="monospace" font-size="24" fill="#888888">cyberpunk hacker</text>
  <circle cx="1350" cy="250" r="80" fill="#1a1a2e" opacity="0.3"/>
  <circle cx="1350" cy="250" r="50" fill="#4a0080" opacity="0.5"/>
  <text x="1350" y="270" font-family="monospace" font-size="64" font-weight="bold" fill="#ffffff" text-anchor="middle">G</text>
</svg>