<?xml version="1.0" encoding="UTF-8"?>
<svg xmlns="http://www.w3.org/2000/svg" width="1500" height="500" viewBox="0 0 1500 500">
  <defs>
    <linearGradient id="bg-neo" x1="0%" y1="0%" x2="100%" y2="100%">
      <stop offset="0%" style="stop-color:#0a0a0f"/>
      <stop offset="100%" style="stop-color:#1a1a2e"/>
    </linearGradient>
  </defs>
  <rect width="1500" height="500" fill="url(#bg-neo)"/>
  <path d="M 0 100 L 0 52.47709460440952 L 20 52.13422509588254 L 40 54.052710406655486 L 60 58.14191425199333 L 80 64.20864763952565 L 100 71.9662958260297 L 120 81.04835904944945 L 140 91.02576732229161 L 160 101.42715127203249 L 180 111.76111135966426 L 200 121.53943339679387 L 220 130.30015357509217 L 240 137.6293833314801 L 260 143.18086296234765 L 280 146.69232020233073 L 300 147.99786092836734 L 320 147.03580660671338 L 340 143.85160821316634 L 360 138.59569896221578 L 380 131.516387290072 L 400 122.9481258531309 L 420 113.2957107574257 L 440 103.01515750543763 L 460 92.59215715070178 L 480 82.51913047050546 L 500 73.27196420174637 L 520 65.2875284055196 L 540 58.94303712261642 L 560 54.53822739829181 L 580 52.281198604553296 L 600 52.27858106233986 L 620 54.53049843394907 L 640 58.930561880776416 L 660 65.27089626237677 L 680 73.25196092076379 L 700 82.49670108006598 L 720 92.56836129750005 L 740 102.99111939288257 L 760 113.27256603414688 L 780 122.92696796077075 L 800 131.49821580509095 L 820 138.58137237223298 L 840 143.84180335885486 L 860 147.0309867053635 L 880 147.9982536898024 L 900 146.6979070710595 L 920 143.191379994194 L 940 137.64433366327407 L 960 130.31883089830913 L 980 121.56095532616055 L 1000 111.78446112027646 L 1020 101.45122573553188 L 1040 91.04942912269664 L 1060 81.07049031649714 L 1080 71.9858509974682 L 1100 64.22470285731104 L 1120 58.153711008733055 L 1140 54.059691380280526 L 1160 52.136060479586625 L 1180 52.473697687932706 L 1200 55.056651784852825 L 1220 59.76289454231138 L 1240 66.37008578589996 L 1260 74.56607756041146 L 1280 83.96366114447113 L 1300 94.118860211149 L 1320 104.55190589853102 L 1340 114.76990285096072 L 1360 124.2901154040045 L 1380 132.66277378832902 L 1400 139.49232290374692 L 1420 144.45610979338596 L 1440 147.3196269531402 L 1460 147.947591326539 L 1480 146.31033557266971 L 1500 142.48520966020732 L 1500 500 L 0 500 Z" fill="#000000" opacity="0.1"/><path d="M 0 180 L 0 144.5914799306342 L 20 144.033657151375 L 40 145.64664849185476 L 60 149.33309892235397 L 80 154.8705060138676 L 100 161.92464947739958 L 120 170.06976363814252 L 140 178.81423529812835 L 160 187.63027594605228 L 180 195.9857773940106 L 200 203.37642813618615 L 220 209.35615198816674 L 240 213.56403182738995 L 260 215.7460934033295 L 280 215.77063441588987 L 300 213.63617364756712 L 320 209.47154036502886 L 340 203.52809859411778 L 360 196.1645755863213 L 380 187.82541018224157 L 400 179.0139278960187 L 420 170.2619617873346 L 440 162.09775270859333 L 460 155.01406636631177 L 480 149.43845154954374 L 500 145.70743464412203 L 520 144.046207969804 L 540 144.55503788772273 L 560 147.20321304156906 L 580 151.83089799742893 L 600 158.15878040246824 L 620 165.80492939063492 L 640 174.30784771560053 L 660 183.1543262574802 L 680 191.8104196938511 L 700 199.7536737420372 L 720 206.50465883876478 L 740 211.65590698452644 L 760 214.89650521671808 L 780 216.03086132769027 L 800 214.99050918862707 L 820 211.83824114743226 L 840 206.76431808222264 L 860 200.07498585955145 L 880 192.1739913074382 L 900 183.53821334031414 L 920 174.6888800637127 L 940 166.1601091027697 L 960 158.46666996029393 L 980 152.07291416599534 L 1000 147.36474849429493 L 1020 144.62634285819183 L 1040 144.0229787166726 L 1060 145.59107321126493 L 1080 149.23598114314296 L 1100 154.73770745645766 L 1120 161.76418544055826 L 1140 169.8913192210291 L 1160 178.6285808384968 L 1180 187.44861695690295 L 1200 195.8190782344466 L 1220 203.23475023755338 L 1240 209.24804657804205 L 1260 213.49602380466854 L 1280 215.72228751606994 L 1300 215.79246751176976 L 1320 213.70232795032513 L 1340 209.57802301125068 L 1360 203.66848262977862 L 1380 196.3303878773001 L 1400 188.00664282576128 L 1420 179.19964226584267 L 1440 170.4409487544741 L 1460 162.2592091886993 L 1480 155.14824735950435 L 1500 149.53725831762642 L 1500 500 L 0 500 Z" fill="#22c55e" opacity="0.2"/><path d="M 0 260 L 0 230.47443053814348 L 20 226.88042223599024 L 40 225.39645705751067 L 60 226.11707819232305 L 80 228.99637498054165 L 100 233.85090787374324 L 120 240.3713953399308 L 140 248.14241814160488 L 160 256.66888563046615 L 180 265.4075778952496 L 200 273.8017542173812 L 220 281.3166229351548 L 240 287.4734129369266 L 260 291.8798760938193 L 280 294.25527732671515 L 300 294.44828019427575 L 320 292.4465885139698 L 340 288.3777297499407 L 360 282.500930258195 L 380 275.1906000159709 L 400 266.9124790205989 L 420 258.1939650670532 L 440 249.5905133168524 L 460 241.65024833652092 L 480 234.87904316711234 L 500 229.70829023181832 L 520 226.46741739210103 L 540 225.3629001501204 L 560 226.46510712675754 L 580 229.70381688777536 L 600 234.8726917404198 L 620 241.64242347558078 L 640 249.58171354233247 L 660 258.18475101121294 L 680 266.90343770949596 L 700 275.1823074701228 L 720 282.4939147944017 L 740 288.3724383223043 L 760 292.44335823851804 L 780 294.4473168713529 L 800 294.256642329474 L 820 291.88348245814745 L 840 287.4790309019163 L 860 281.3238945811344 L 880 273.8102162689218 L 900 265.4166912363699 L 920 256.67806965162754 L 940 248.15108773025437 L 960 240.37899815793028 L 980 233.85695954674617 L 1000 229.00048995740673 L 1020 226.11899430851724 L 1040 225.39605223757061 L 1060 226.87772227093112 L 1080 230.46960744231725 L 1100 235.942869308772 L 1120 242.94880721210268 L 1140 251.04107394332172 L 1160 259.70411245358014 L 1180 268.3860019131819 L 1200 276.5336205013943 L 1220 283.6278847112093 L 1240 289.2168200784561 L 1260 292.9443564042832 L 1280 294.5730129318825 L 1300 293.99902820839463 L 1320 291.258970710855 L 1340 286.527409074237 L 1360 280.1057903509976 L 1380 272.4032348664736 L 1400 263.91047122688815 L 1420 255.16857207653575 L 1440 246.7344824441692 L 1460 239.14553686225204 L 1480 232.88522586786672 L 1500 228.35239289615245 L 1500 500 L 0 500 Z" fill="#1a1a2e" opacity="0.30000000000000004"/><path d="M 0 340 L 0 373.02132649280964 L 20 358.22858499121594 L 40 342.54134433662335 L 60 326.7293967803331 L 80 311.56865409515575 L 100 297.8030726275252 L 120 286.108146441806 L 140 277.0577599932399 L 160 271.09602690976095 L 180 268.51549678839746 L 200 269.4427994256455 L 220 273.8324309371392 L 240 281.4689866893923 L 260 291.97773147089435 L 280 304.8429882112273 L 300 319.43344289107023 L 320 335.0331238999401 L 340 350.87653564636827 L 360 366.1862223709187 L 380 380.2109188594022 L 400 392.26241595372704 L 420 401.7493318242865 L 440 408.20613180589 L 460 411.3159727580847 L 480 410.92625094892765 L 500 407.05609050836995 L 520 399.89540498360765 L 540 389.7955780470366 L 560 377.2522206659672 L 580 362.8808508610541 L 600 347.38668947769605 L 620 331.5300541291647 L 640 316.0890494733646 L 660 301.82138465736966 L 680 289.4271915948384 L 700 279.5146686292997 L 720 272.57023549114024 L 740 268.9346640813679 L 760 268.78635637404017 L 780 272.13259001131365 L 800 278.80916118056564 L 820 288.4884422980471 L 840 300.69545909859175 L 860 314.8311982087542 L 880 330.2020014720096 L 900 346.0536046102197 L 920 361.60814990224776 L 940 376.10235662193213 L 960 388.82497616493004 L 980 399.15169389515603 L 1000 406.575765034154 L 1020 410.7328812525152 L 1040 411.41904772902694 L 1060 408.60059342820546 L 1080 402.4158233795453 L 1100 393.16823187910313 L 1120 381.31160964998816 L 1140 367.4277757717662 L 1160 352.1980271004699 L 1180 336.36970619140084 L 1200 320.71952827798907 L 1220 306.0154668971037 L 1240 292.979068480198 L 1260 282.2500451797889 L 1280 274.3548834049616 L 1300 269.6810084837801 L 1320 268.4577732244978 L 1340 270.7452032903176 L 1360 276.43105166604846 L 1380 285.2363067576131 L 1400 296.7288838351688 L 1420 310.3448279638374 L 1440 325.41598796807517 L 1460 341.20280343411497 L 1480 356.9305958518181 L 1500 371.827583044842 L 1500 500 L 0 500 Z" fill="#000000" opacity="0.4"/><path d="M 0 420 L 0 361.85941188333504 L 20 362.70899339841 L 40 366.83144103413184 L 60 373.9912515239074 L 80 383.7794060256486 L 100 395.6367361610585 L 120 408.88586765477515 L 140 422.7699167275463 L 160 436.49572863269975 L 180 449.27918824593434 L 200 460.39001424816325 L 220 469.19347794194937 L 240 475.186663428675 L 260 478.02719770954377 L 280 477.5528094445346 L 300 473.79059903513604 L 320 466.955490458392 L 340 457.43795329441195 L 360 445.7816963516761 L 380 432.6526071874888 L 400 418.8007119171049 L 420 405.01732843536337 L 440 392.0898607608215 L 460 380.7568169680886 L 480 371.6656204011282 L 500 365.33562428839844 L 520 362.1284426257092 L 540 362.22729223589596 L 560 365.62652613246956 L 580 372.13195611528874 L 600 381.371946169314 L 620 392.8186429333147 L 640 405.8181304045099 L 660 419.6277862298639 L 680 433.4587055293682 L 700 446.5207687034922 L 720 458.0677786339757 L 740 467.44008872289675 L 760 474.10228655595546 L 780 477.67378043350703 L 800 477.9505414510984 L 820 474.9167590686164 L 840 468.7457443197822 L 860 459.79002906429804 L 880 448.5612268831517 L 900 435.7008061046916 L 920 421.9434446122335 L 940 408.0750598648871 L 960 394.88791175264424 L 980 383.13534312710885 L 1000 373.48874354777314 L 1020 366.49919477799637 L 1040 362.5659891103075 L 1060 361.9138189761874 L 1080 364.57994093060825 L 1100 370.41204729500515 L 1120 379.0769670454374 L 1140 390.0796988898778 L 1160 402.7916892310989 L 1180 416.4867395785922 L 1200 430.3824921250571 L 1220 443.6851235389106 L 1240 455.63469374836035 L 1260 465.54855907484875 L 1280 472.86036965167904 L 1300 477.152423320397 L 1320 478.17952772231314 L 1340 475.8830074143029 L 1360 470.3940558236999 L 1380 462.0262405549923 L 1400 451.2575901980289 L 1420 438.7032859655167 L 1440 425.0805182059632 L 1460 411.16751543575106 L 1480 397.7590864408353 L 1500 385.62121519656665 L 1500 500 L 0 500 Z" fill="#22c55e" opacity="0.5"/>
  <text x="80" y="270" font-family="monospace" font-size="72" font-weight="bold" fill="#000000">Neo</text>
  <text x="80" y="320" font-family="monospace" font-size="24" fill="#888888">matrix cyberpunk hacker</text>
  <circle cx="1350" cy="250" r="80" fill="#000000" opacity="0.3"/>
  <circle cx="1350" cy="250" r="50" fill="#22c55e" opacity="0.5"/>
  <text x="1350" y="270" font-family="monospace" font-size="64" font-weight="bold" fill="#ffffff" text-anchor="middle">N</text>
</svg>