<?xml version="1.0" encoding="UTF-8"?>
<svg xmlns="http://www.w3.org/2000/svg" width="1500" height="500" viewBox="0 0 1500 500">
  <defs>
    <linearGradient id="bg-professor-oak" x1="0%" y1="0%" x2="100%" y2="100%">
      <stop offset="0%" style="stop-color:#0a0a0f"/>
      <stop offset="100%" style="stop-color:#1a1a2e"/>
    </linearGradient>
  </defs>
  <rect width="1500" height="500" fill="url(#bg-professor-oak)"/>
  <path d="M 0 100 L 0 99.93189337536907 L 20 112.37535313614492 L 40 124.09271979230209 L 60 134.3965059614825 L 80 142.682162585037 L 100 148.4635493423286 L 120 151.40145772646287 L 140 151.32351326082866 L 160 148.23428914333127 L 180 142.31503792536543 L 200 133.91305696859735 L 220 123.52131163496315 L 240 111.74951176859385 L 260 99.28833848524343 L 280 86.86892017348877 L 300 75.21993535266861 L 320 65.0248592708146 L 340 56.88186269224018 L 360 51.26871571381379 L 380 48.51475579131618 L 400 48.781564682303966 L 420 52.05348803785746 L 440 58.13855388261791 L 460 66.67973609357902 L 480 77.17590202099385 L 500 89.01121520177426 L 520 101.4912680342117 L 540 113.88382441908378 L 560 125.46178189388598 L 580 135.54583256368085 L 600 143.5443198044179 L 620 148.9879522456621 L 640 151.55733827602398 L 660 151.10172555258254 L 680 147.64784602013378 L 700 141.3983474807328 L 720 132.71990373728954 L 740 122.12170091900873 L 760 110.22556225008819 L 780 97.7294641166613 L 800 85.36658403612911 L 820 73.86228328755558 L 840 63.891548140431624 L 860 56.03938671199317 L 880 50.76650506911517 L 900 48.38227644424156 L 920 49.02658952946138 L 940 52.661640854986985 L 960 59.07415281383919 L 980 67.88788719565062 L 1000 78.58572002907513 L 1020 90.5399825462595 L 1040 103.04928808865431 L 1060 115.37968422694483 L 1080 126.80771559668732 L 1100 136.662870844739 L 1120 144.36692321733904 L 1140 149.46785657855767 L 1160 151.66638633425413 L 1180 150.8335192122083 L 1200 147.0181216219463 L 1220 140.44405253954676 L 1240 131.49702913828972 L 1260 120.70199579164453 L 1280 108.69232426612949 L 1300 96.1726522062206 L 1320 83.8775402708971 L 1340 72.52837361164035 L 1360 62.79103639060705 L 1380 55.23684268148522 L 1400 50.309016035377205 L 1420 48.29668443991551 L 1440 49.31791645278869 L 1460 53.312793822403776 L 1480 60.04692704246034 L 1500 69.12520757400398 L 1500 500 L 0 500 Z" fill="#ffffff" opacity="0.1"/><path d="M 0 180 L 0 204.85517660977922 L 20 209.01470573415634 L 40 212.11577592930647 L 60 214.04525989115524 L 80 214.73276988091496 L 100 214.15322547577304 L 120 212.32776850484632 L 140 209.32299179345932 L 160 205.2485098512211 L 180 200.25296012540576 L 200 194.51858069425322 L 220 188.25456220639833 L 240 181.68941658824357 L 260 175.0626409094777 L 280 168.61598050963434 L 300 162.584610107576 L 320 157.18855460777795 L 340 152.62466257312738 L 360 149.05942517263236 L 380 146.62290256943717 L 400 145.40397931502562 L 420 145.4471218332345 L 440 146.75075628133567 L 460 149.2673259639526 L 480 152.90502620534622 L 500 157.53115339178245 L 520 162.97694601063085 L 540 169.0437410846773 L 560 175.51022141440407 L 580 182.14048924822336 L 600 188.69267185248856 L 620 194.9277450493585 L 640 200.61825283910395 L 660 205.55660501429435 L 680 209.56265006819407 L 700 212.49024713702755 L 720 214.23259723110039 L 740 214.72613927101352 L 760 213.95286880123734 L 780 211.94099479417852 L 800 208.76391058447092 L 820 204.53751647389544 L 840 199.4159916785281 L 860 193.58616985784428 L 880 187.26072340695447 L 900 180.6704051495692 L 920 174.05563045539424 L 940 167.65770686702606 L 960 161.71003118030578 L 980 156.42957510938527 L 1000 152.00897014016917 L 1020 148.60948031735006 L 1040 146.35511931836254 L 1060 145.32812642389914 L 1080 145.56596642196615 L 1100 147.0599628892358 L 1120 149.75561470770592 L 1140 153.5545842701132 L 1160 158.31828484419728 L 1180 163.87293622846312 L 1200 170.0159042686894 L 1220 176.52309296908325 L 1240 183.15711953323785 L 1260 189.67597410870462 L 1280 195.8418483269635 L 1300 201.42981057290154 L 1320 206.2360115092348 L 1340 210.08512051764413 L 1360 212.8367217746209 L 1380 214.39043663263368 L 1400 214.68958544171446 L 1420 213.72325522790302 L 1440 211.52669779946388 L 1460 208.18004375792697 L 1480 203.80537932693872 L 1500 198.56229263645562 L 1500 500 L 0 500 Z" fill="#6b7280" opacity="0.2"/><path d="M 0 260 L 0 216.79528017981542 L 20 215.46455774220556 L 40 214.93615223483093 L 60 215.21958301268393 L 80 216.30974400069056 L 100 218.18699568090696 L 120 220.8175189032587 L 140 224.15392414583516 L 160 228.1361052487661 L 180 232.69232224145344 L 200 237.74049375576124 L 220 243.18967574202193 L 240 248.94169984842702 L 260 254.89294194799527 L 280 260.93618895267025 L 300 266.9625702834337 L 320 272.86351920052505 L 340 278.53272865992227 L 360 283.8680664608494 L 380 288.773415182457 L 400 293.1604037627653 L 420 296.9499995250503 L 440 300.0739319709248 L 460 302.4759226901346 L 480 304.1126992299412 L 500 304.9547746589856 L 520 304.9869787815988 L 540 304.2087314326025 L 560 302.6340529291274 L 580 300.29131149115665 L 600 297.2227121810756 L 620 293.4835365691072 L 640 289.1411468222473 L 660 284.273772158282 L 680 278.96909952721614 L 700 273.32269390933254 L 720 267.4362766886018 L 740 261.4158931169671 L 760 255.37000188308483 L 780 249.40752120241237 L 800 243.6358666288046 L 820 238.15901593693079 L 840 233.0756359371266 L 860 228.4773049685729 L 880 224.44686309302426 L 900 221.05691971075024 L 920 218.3685454843569 L 940 216.4301721358009 L 960 215.2767199370233 L 980 214.92896861267448 L 1000 215.39318298827078 L 1020 216.6610001278241 L 1040 218.70957999418795 L 1060 221.502016917936 L 1080 224.98800446206087 L 1100 229.10474170479213 L 1120 233.77806461362619 L 1140 238.92378212858623 L 1160 244.44919288484567 L 1180 250.25475525058255 L 1200 256.23588059392466 L 1220 262.2848174728397 L 1240 268.29259280382735 L 1260 274.15097503878286 L 1280 279.75442398291733 L 1300 285.00199212728796 L 1320 289.79914324296453 L 1340 294.0594554744117 L 1360 297.70617825044206 L 1380 300.67361496460546 L 1400 302.9083065156902 L 1420 304.3699943865603 L 1440 305.03234591122964 L 1460 304.8834286643071 L 1480 303.92592542656996 L 1500 302.17708585401033 L 1500 500 L 0 500 Z" fill="#78716c" opacity="0.30000000000000004"/><path d="M 0 340 L 0 379.7704792779544 L 20 373.5239345599217 L 40 365.70599163498736 L 60 356.68310812977455 L 80 346.8782219585616 L 100 336.750926565572 L 120 326.7759279789082 L 140 317.42079347844646 L 160 309.1240348848405 L 180 302.2745537917796 L 200 297.1934122240271 L 220 294.1187832019458 L 240 293.19478663853545 L 260 294.4647338742454 L 280 297.8690975046927 L 300 303.2483016634181 L 320 310.35020196819005 L 340 318.84190451645776 L 360 328.3253699273114 L 380 338.3560710073456 L 400 348.46382948249885 L 420 358.174855096581 L 440 367.0339540175592 L 460 374.6258655565575 L 480 380.59472706392137 L 500 384.6607546063791 L 520 386.63335753658265 L 540 386.42007222375173 L 560 384.0308961864515 L 580 379.5778194697132 L 600 373.26957523268806 L 620 365.40185560736745 L 640 356.3434514494171 L 660 346.51896566532906 L 680 336.38891041000124 L 700 326.42812107710097 L 720 317.1034989030886 L 740 308.8521254762869 L 760 302.0607750097339 L 780 297.04778471789075 L 800 294.04813310370537 L 820 293.20242559520227 L 840 294.5503038179803 L 860 298.0285874368491 L 880 303.47423566576913 L 900 310.63198962851743 L 920 319.16633734268015 L 940 328.67724048127826 L 960 338.7188857370671 L 980 348.820581839573 L 1000 358.5088226997725 L 1020 367.3294824963503 L 1040 374.8691023328496 L 1060 380.77427067666474 L 1080 384.7681891427393 L 1100 386.66364711876037 L 1120 386.37179706031293 L 1140 383.9063191235168 L 1160 379.382779922491 L 1180 373.01321546919695 L 1200 365.09619221450146 L 1220 356.0028120684203 L 1240 346.15931739909456 L 1260 336.0271113823768 L 1280 326.0811302265504 L 1300 316.787581050777 L 1320 308.58208893016405 L 1340 301.84927744110075 L 1360 296.904739846735 L 1380 293.98024600378983 L 1400 293.2128784009774 L 1420 294.6386065654705 L 1440 298.1906010301848 L 1460 303.70236589283286 L 1480 310.9155431314305 L 1500 319.4920228573984 L 1500 500 L 0 500 Z" fill="#ffffff" opacity="0.4"/><path d="M 0 420 L 0 472.08627566882683 L 20 473.7704343577022 L 40 474.6362341926642 L 60 474.670498137501 L 80 473.87270471227725 L 100 472.25499592999563 L 120 469.84199250129103 L 140 466.6704191196496 L 160 462.78854553012184 L 180 458.25545188818177 L 200 453.1401295895996 L 220 447.5204312562421 L 240 441.4818858584878 L 260 435.11639700749487 L 280 428.5208442286553 L 300 421.79560850414805 L 320 415.0430445250882 L 340 408.36592290482275 L 360 401.8658660621006 L 380 395.6418015791836 L 400 389.78845657400876 L 420 384.39491600129537 L 440 379.543266824527 L 460 375.307348693826 L 480 371.7516301437711 L 500 368.93022741486186 L 520 366.8860808316695 L 540 365.65030127278436 L 560 365.24169667895643 L 580 365.6664858057361 L 600 366.91820357715545 L 620 368.97779948091954 L 640 371.8139275075816 L 660 375.38342322097566 L 680 379.6319606991345 L 700 384.49487934738426 L 720 389.8981679999387 L 740 395.75959133246215 L 760 401.9899414421732 L 780 408.4943955470694 L 800 415.17395914077963 L 820 421.9269726389526 L 840 428.6506585867872 L 860 435.2426858799868 L 880 441.6027271924832 L 900 447.63398590766894 L 920 453.24466931401463 L 940 458.3493856437776 L 960 462.87044369258 L 980 466.73903524030055 L 1000 469.89628227743333 L 1020 472.2941330986557 L 1040 473.8960936255145 L 1060 474.6777828278686 L 1080 474.62730379085394 L 1100 473.74542477991935 L 1120 472.04556754821397 L 1140 469.55360306428355 L 1160 466.30745776899505 L 1180 462.35653635426183 L 1200 457.76096984858475 L 1220 452.5907004531677 L 1240 446.92441705694 L 1260 440.8483576314091 L 1280 434.4549967322893 L 1300 427.84163808346824 L 1320 421.1089336634729 L 1340 414.3593518331917 L 1360 407.69561781917344 L 1380 401.21915028756126 L 1400 395.02851780321595 L 1420 389.217938665941 L 1440 383.8758469555456 L 1460 379.08354660981337 L 1480 374.9139740196325 L 1500 371.43058797396327 L 1500 500 L 0 500 Z" fill="#6b7280" opacity="0.5"/>
  <text x="80" y="270" font-family="monospace" font-size="72" font-weight="bold" fill="#ffffff">Professor Oak</text>
  <text x="80" y="320" font-family="monospace" font-size="24" fill="#888888">anime professor scientist</text>
  <circle cx="1350" cy="250" r="80" fill="#ffffff" opacity="0.3"/>
  <circle cx="1350" cy="250" r="50" fill="#6b7280" opacity="0.5"/>
  <text x="1350" y="270" font-family="monospace" font-size="64" font-weight="bold" fill="#ffffff" text-anchor="middle">P</text>
</svg>