<?xml version="1.0" encoding="UTF-8"?>
<svg xmlns="http://www.w3.org/2000/svg" width="1500" height="500" viewBox="0 0 1500 500">
  <defs>
    <linearGradient id="bg-ramo" x1="0%" y1="0%" x2="100%" y2="100%">
      <stop offset="0%" style="stop-color:#0a0a0f"/>
      <stop offset="100%" style="stop-color:#1a1a2e"/>
    </linearGradient>
  </defs>
  <rect width="1500" height="500" fill="url(#bg-ramo)"/>
  <path d="M 0 100 L 0 96.71182579009978 L 20 103.70051670729909 L 40 110.63704976112696 L 60 117.42365624199223 L 80 123.96468061809135 L 100 130.1679287763576 L 120 135.9459674755737 L 140 141.2173566961785 L 160 145.90779751710414 L 180 149.9511793406043 L 200 153.29051170470035 L 220 155.8787275495801 L 240 157.67934661610926 L 260 158.66698962601816 L 280 158.82773599652205 L 300 158.15932004747577 L 320 156.67116293557268 L 340 154.3842398654821 L 360 151.33078444955214 L 380 147.55383438305407 L 400 143.10662483856268 L 420 138.05183812942852 L 440 132.46072021814837 L 460 126.41207652222919 L 480 119.99116117141233 L 500 113.28847537190154 L 520 106.39849181435189 L 540 99.41832310477253 L 560 92.44635298647846 L 580 85.580849645678 L 600 78.91858064580882 L 620 72.55344901277903 L 640 66.575169695153 L 660 61.06800505424637 L 680 56.10957720708349 L 700 51.76977396194782 L 720 48.10976376709209 L 740 45.181133556661145 L 760 43.02516164567512 L 780 41.672235922437316 L 800 41.14142553880027 L 820 41.44021213520929 L 840 42.56438438883966 L 860 44.498097371145285 L 880 47.21409587818888 L 900 50.674098585968316 L 920 54.82933761616508 L 940 59.62124590726983 L 960 64.98228270275987 L 980 70.83688552127765 L 1000 77.10253519102754 L 1020 83.69091893699527 L 1040 90.50917512756519 L 1060 97.4612021361407 L 1080 104.44901286968891 L 1100 111.37411587246609 L 1120 118.13890353861017 L 1140 124.64802786708883 L 1160 130.80974436807912 L 1180 136.53720517875195 L 1200 141.74968316231607 L 1220 146.37370973694965 L 1240 150.3441103972032 L 1260 153.60492333245742 L 1280 156.11018819473674 L 1300 157.82459389839246 L 1320 158.72397632107965 L 1340 158.7956588910567 L 1360 158.03863126031365 L 1380 156.46356354517636 L 1400 154.09265593366857 L 1420 150.95932577937856 L 1440 147.10773659216508 L 1460 142.59217556446083 L 1480 137.47628840678615 L 1500 131.83218227727582 L 1500 500 L 0 500 Z" fill="#3b82f6" opacity="0.1"/><path d="M 0 180 L 0 192.87991776668272 L 20 187.30830296748962 L 40 181.53813831944578 L 60 175.72618597702257 L 80 170.03034337061507 L 100 164.60535349508964 L 120 159.59860089711793 L 140 155.14610757469075 L 160 151.36883757104894 L 180 148.36941065874817 L 200 146.22931439553278 L 220 145.00669029407365 L 240 144.73475425026703 L 260 145.42089414343795 L 280 147.0464691245842 L 300 149.56731604553883 L 320 152.91494927053142 L 340 156.9984212740165 L 360 161.70679347658853 L 380 166.91215019203256 L 400 172.47307380347317 L 420 178.238486756048 L 440 184.0517559879658 L 460 189.75494829196072 L 480 195.19312099872067 L 500 200.2185314142502 L 520 204.69465065039913 L 540 208.49987280197595 L 560 211.5308187006019 L 580 213.70514448988195 L 600 214.96377871933913 L 620 215.27252718039614 L 640 214.6230018846857 L 660 213.03284894647834 L 680 210.54526917818356 L 700 207.22784442324664 L 720 203.170701512287 L 740 198.4840637235842 L 760 193.29525626912024 L 780 187.74524716026286 L 800 181.98481742984362 L 820 176.17046475692396 L 840 170.46015178337964 L 860 165.00901463080146 L 880 159.96514820747717 L 900 155.4655828090075 L 920 151.63256131910072 L 940 148.57021815047182 L 960 146.36175015141308 L 980 145.06715633802378 L 1000 144.72160785839603 L 1020 145.33449247309554 L 1040 146.88915951121385 L 1060 149.34337223095122 L 1080 152.6304552951304 L 1100 156.66110618735922 L 1120 161.3258213568158 L 1140 166.49787117885998 L 1160 172.0367429086064 L 1180 177.7919580902991 L 1200 183.60716071221933 L 1220 189.32436504132409 L 1240 194.78824773367973 L 1260 199.8503676138817 L 1280 204.37319848172334 L 1300 208.2338653839929 L 1320 211.32748284545502 L 1340 213.57000436692832 L 1360 214.90050577612354 L 1380 215.28284039783216 L 1400 214.70662107628237 L 1420 213.18750237036534 L 1440 210.7667552551333 L 1460 207.51014588395643 L 1480 203.50614887280088 L 1500 198.86354364760183 L 1500 500 L 0 500 Z" fill="#1e293b" opacity="0.2"/><path d="M 0 260 L 0 232.88729641784482 L 20 237.9528921193137 L 40 244.28935668607173 L 60 251.53143515690218 L 80 259.2616699632946 L 100 267.034464576671 L 120 274.4017691791647 L 140 280.93890775018025 L 160 286.2690578092841 L 180 290.08497172136276 L 200 292.16668747553797 L 220 292.39420802944574 L 240 290.7544183391656 L 260 287.3418413541146 L 280 282.35318939883774 L 300 276.0760250182291 L 320 268.87218491290224 L 340 261.1569224643857 L 360 253.3749711445896 L 380 245.97490859449283 L 400 239.38329911209783 L 420 233.98010506292925 L 440 230.07678458142186 L 460 227.8983380847751 L 480 227.5703384981213 L 500 229.111692812108 L 520 232.433552220868 L 540 237.34443366366128 L 560 243.5612575474387 L 580 250.72566539916906 L 600 258.42467684399907 L 620 266.21449517209754 L 640 273.64608926187657 L 660 280.29107723217135 L 680 285.7664198033009 L 700 289.75649995927853 L 720 292.03131616576763 L 740 292.459740425993 L 760 291.01707693602424 L 780 287.7864856333194 L 800 282.95418858044104 L 820 276.7987355039824 L 840 269.6749472588578 L 860 261.993462770256 L 880 254.19706843576677 L 900 246.73517443992958 L 920 240.0379092515994 L 940 234.49132558374384 L 960 230.4151470268833 L 980 228.04433811447512 L 1000 227.51556018317342 L 1020 228.85929375737078 L 1040 231.9980815500646 L 1060 236.7509933593403 L 1080 242.84405548893986 L 1100 249.92604350631242 L 1120 257.58872799087635 L 1140 265.3904062400069 L 1160 272.8813634866929 L 1180 279.6297959593224 L 1200 285.2467014919247 L 1220 289.40830290704474 L 1240 291.87471161263517 L 1260 292.50375558096425 L 1280 291.25917461869636 L 1300 288.2127105254288 L 1320 283.53997165697444 L 1340 277.51031027376047 L 1360 270.4712961777596 L 1380 262.8286816293297 L 1400 255.02301243300738 L 1420 247.5042334073167 L 1440 240.70575206404766 L 1460 235.0194555530782 L 1480 230.77312097940103 L 1500 228.2115212370615 L 1500 500 L 0 500 Z" fill="#4ade80" opacity="0.30000000000000004"/><path d="M 0 340 L 0 394.2779933376321 L 20 390.08236162189957 L 40 385.35316006554814 L 60 380.140772860516 L 80 374.5007319849321 L 100 368.49312557389254 L 120 362.1819577496359 L 140 355.6344667313884 L 160 348.92040848963404 L 180 342.11131357664595 L 200 335.2797250508947 L 220 328.4984256143698 L 240 321.83966219677586 L 260 315.37437624776464 L 280 309.17144793755295 L 300 303.2969623180964 L 320 297.8135052630277 L 340 292.77949668730616 L 360 288.2485681503558 L 380 284.26899147361286 L 400 280.88316445990404 L 420 278.12715919372306 L 440 276.0303377347451 L 460 274.6150392989225 L 480 273.8963422598857 L 500 273.8819035062509 L 520 274.57187686629663 L 540 275.95891146910094 L 560 278.0282300595986 L 580 280.7577864332027 L 600 284.11850031270444 L 620 288.07456716511115 L 640 292.583839657678 L 660 297.5982766891622 L 680 303.0644552123862 L 700 308.9241393952331 L 720 315.11490105631805 L 740 321.57078476530893 L 760 328.22301052202 L 780 335.0007065280411 L 800 341.8316642440666 L 820 348.64310768865755 L 840 355.3624687824459 L 860 361.9181604773819 L 880 368.24033943422324 L 900 374.2616501228168 L 920 379.91794241764154 L 940 385.14895504346 L 960 389.89895758975143 L 980 394.1173442540041 L 1000 397.7591729882149 L 1020 400.78564430461324 L 1040 403.16451463948465 L 1060 404.87043987117977 L 1080 405.8852453325203 L 1100 406.1981194409304 L 1120 405.8057288833882 L 1140 404.71225412903436 L 1160 402.92934489109143 L 1180 400.4759960125962 L 1200 397.3783450982402 L 1220 393.66939404831584 L 1240 389.388657461506 L 1260 384.581741652377 L 1280 379.2998587686608 L 1300 373.5992811848454 L 1320 367.54074198488155 L 1340 361.188787921171 L 1360 354.6110917433134 L 1380 347.8777312229552 L 1400 341.0604425559013 L 1420 334.23185609562813 L 1440 327.46472256057757 L 1460 320.8311379591009 L 1480 314.40177548958405 L 1500 308.2451325989734 L 1500 500 L 0 500 Z" fill="#3b82f6" opacity="0.4"/><path d="M 0 420 L 0 487.9501758613719 L 20 485.4259315899127 L 40 480.59872857895596 L 60 473.63848186205576 L 80 464.7901885010226 L 100 454.36530381686225 L 120 442.73077832458034 L 140 430.2961412660422 L 160 417.4990853938086 L 180 404.7900604140531 L 200 392.61641739135155 L 220 381.40666222404377 L 240 371.5553724596378 L 260 363.40930837050496 L 280 357.2552071727718 L 300 353.3096900255515 L 320 351.7116370788889 L 340 352.5172989647623 L 360 355.69831680411454 L 380 361.14272042463614 L 400 368.65886965255294 L 420 377.98219994699906 L 440 388.7845349341569 L 460 400.68563804480834 L 480 413.2665966436678 L 500 426.0845675361118 L 520 438.68836481814117 L 540 450.63434138537167 L 560 461.50200508020174 L 580 470.90881979690494 L 600 478.5236705534516 L 620 484.07851856653986 L 640 487.3778360772603 L 660 488.3054888264433 L 680 486.8288239201362 L 700 482.999819194476 L 720 476.9532536229103 L 740 468.9019631664807 L 760 459.12934905876966 L 780 447.9794022299815 L 800 435.8445950052369 L 820 423.15206628300075 L 840 410.34858646817014 L 860 397.8848313863545 L 880 386.1995187293786 L 900 375.7039654208718 L 920 366.76760947463566 L 940 359.7050059688406 L 960 354.7647548709924 L 980 352.1207504484652 L 1000 351.86606028079746 L 1020 354.00964932933164 L 1040 358.4760643752408 L 1060 365.1080899335599 L 1080 373.67228215642996 L 1100 383.86718593504156 L 1120 395.3339459625654 L 1140 407.66893825417804 L 1160 420.4379775012521 L 1180 433.19160016823776 L 1200 445.4808853751805 L 1220 456.87325667904395 L 1240 466.96770853936016 L 1260 475.40892150454124 L 1280 481.89976927164093 L 1300 486.211777377572 L 1320 488.1931653812918 L 1340 487.7741894563295 L 1360 484.9695973371779 L 1380 479.8781092067151 L 1400 472.67894279714847 L 1420 463.6255050191189 L 1440 453.0364721703382 L 1460 441.2845726957717 L 1480 428.7834673403714 L 1500 415.9731885061525 L 1500 500 L 0 500 Z" fill="#1e293b" opacity="0.5"/>
  <text x="80" y="270" font-family="monospace" font-size="72" font-weight="bold" fill="#3b82f6">Ramo</text>
  <text x="80" y="320" font-family="monospace" font-size="24" fill="#888888">senior software engineer</text>
  <circle cx="1350" cy="250" r="80" fill="#3b82f6" opacity="0.3"/>
  <circle cx="1350" cy="250" r="50" fill="#1e293b" opacity="0.5"/>
  <text x="1350" y="270" font-family="monospace" font-size="64" font-weight="bold" fill="#ffffff" text-anchor="middle">R</text>
</svg>