<?xml version="1.0" encoding="UTF-8"?>
<svg xmlns="http://www.w3.org/2000/svg" width="1500" height="500" viewBox="0 0 1500 500">
  <defs>
    <linearGradient id="bg-sam" x1="0%" y1="0%" x2="100%" y2="100%">
      <stop offset="0%" style="stop-color:#0a0a0f"/>
      <stop offset="100%" style="stop-color:#1a1a2e"/>
    </linearGradient>
  </defs>
  <rect width="1500" height="500" fill="url(#bg-sam)"/>
  <path d="M 0 100 L 0 97.8685267489825 L 20 88.81631938623342 L 40 80.26895262528392 L 60 72.6122616780309 L 80 66.19187591275646 L 100 61.29761685829938 L 120 58.150415420302096 L 140 56.89233887722278 L 160 57.580177845769164 L 180 60.182882705443795 L 200 64.58296520411903 L 220 70.58180197500596 L 240 77.90860055986995 L 260 86.23262320478287 L 280 95.17811663615079 L 300 104.34127387456773 L 320 113.30846241617516 L 340 121.6748959463297 L 360 129.0629067289659 L 380 135.13899384087105 L 400 139.6288776794619 L 420 142.32988117111984 L 440 143.12007878208865 L 460 141.96380033800997 L 480 138.91324120512465 L 500 134.10610614822858 L 520 127.75939322358498 L 540 120.15959830701323 L 560 111.64978243286667 L 580 102.61408573492375 L 600 93.46038704272233 L 620 84.6018918935142 L 640 76.4384800922232 L 660 69.33865480599357 L 680 63.622908026143435 L 700 59.549253294343664 L 720 57.30157875773915 L 740 56.981346305746854 L 760 58.60301149636803 L 780 62.093371020332306 L 800 67.29486715908264 L 820 73.97270007063216 L 840 81.82542684882041 L 860 90.49856890566014 L 880 99.60061342826943 L 900 108.72068659137611 L 920 117.44710074195007 L 940 125.38593832069478 L 960 132.17883362679524 L 980 137.5191497423416 L 1000 141.1658203766662 L 1020 142.9542317982815 L 1040 142.80365363500198 L 1060 140.72088310978066 L 1080 136.79993820843782 L 1100 131.21781362994403 L 1120 124.22649109917606 L 1140 116.14156470324183 L 1160 107.32799471311003 L 1180 98.18363297483079 L 1200 89.12126354782575 L 1220 80.54996929070474 L 1240 72.85666552235143 L 1260 66.38863434410374 L 1280 61.43784803818732 L 1300 58.227789197174175 L 1320 56.903362534733745 L 1340 57.52435376689256 L 1360 60.062730835316465 L 1380 64.40390929763154 L 1400 70.35192476401622 L 1420 77.63827889199595 L 1440 85.93405962390982 L 1460 94.86478854949807 L 1480 104.02732517136926 L 1500 113.00806500080918 L 1500 500 L 0 500 Z" fill="#f97316" opacity="0.1"/><path d="M 0 180 L 0 139.2585089362718 L 20 140.72430231036475 L 40 142.73857445315147 L 60 145.27319637979704 L 80 148.2927725048579 L 100 151.75513493591018 L 120 155.6119323413502 L 140 159.80930516892377 L 160 164.2886377856659 L 180 168.98737703573929 L 200 173.83990578514272 L 220 178.77845925437933 L 240 183.73407134264698 L 260 188.63753772828667 L 280 193.42038229594635 L 300 198.01581339446167 L 320 202.3596565714665 L 340 206.39125075924534 L 360 210.05429539673736 L 380 213.29763665776937 L 400 216.07598180596892 L 420 218.35053170050506 L 440 220.08952261981787 L 460 221.2686698368547 L 480 221.87150675135757 L 500 221.88961484327362 L 520 221.32274123602667 L 540 220.17880222789785 L 560 218.47377274219969 L 580 216.2314632400548 L 600 213.48318721115555 L 620 210.267323885943 L 640 206.62878227585813 L 660 202.61837402625767 L 680 198.29210384000092 L 700 193.71038738082845 L 720 188.9372075783851 L 740 184.03922111695158 L 760 179.08482758562428 L 780 174.14321428911154 L 800 169.28339005820868 L 820 164.57322155263222 L 840 160.0784855140888 L 860 155.86195020471115 L 880 151.98249885842455 L 900 148.49430738610477 L 920 145.44608781774105 L 940 142.88040804681236 L 960 140.8330973765368 L 980 139.33274616944436 L 1000 138.40030658758639 L 1020 138.0487999989798 L 1040 138.2831351363079 L 1060 139.10003954726187 L 1080 140.4881052938084 L 1100 142.42794826219983 L 1120 144.8924788589892 L 1140 147.84728031282285 L 1160 151.2510892990887 L 1180 155.05637217557353 L 1200 159.20998878209184 L 1220 163.65393453423178 L 1240 168.32615044799945 L 1260 173.16138978349701 L 1280 178.09212920509782 L 1300 183.0495117339118 L 1320 187.96430832436377 L 1340 192.76788463662334 L 1360 197.3931595040643 L 1380 201.77554171091222 L 1400 205.85383199813035 L 1420 209.57107770117838 L 1440 212.875368084765 L 1460 215.7205592678747 L 1480 218.0669186156058 L 1500 219.8816795989936 L 1500 500 L 0 500 Z" fill="#fbbf24" opacity="0.2"/><path d="M 0 260 L 0 312.49949614514355 L 20 307.41522345648656 L 40 301.0324195780166 L 60 293.52588638369843 L 80 285.1012006222978 L 100 275.98908391501715 L 120 266.4390841261722 L 140 256.7127411512757 L 160 247.07642428683232 L 180 237.79403734033738 L 200 229.1197912610864 L 220 221.29124222325532 L 240 214.52278582293226 L 260 208.99978555947467 L 280 204.8734964008155 L 300 202.25692245787332 L 320 201.22172221135696 L 340 201.79624604559052 L 360 203.96475983419737 L 380 207.66787584081823 L 400 212.80417913405446 L 420 219.23300497502262 L 440 226.77829111493816 L 460 235.23339950225338 L 480 244.36677535026035 L 500 253.92828858379855 L 520 263.6560839958172 L 540 273.28375251282074 L 560 282.5476271742183 L 580 291.19400401513496 L 600 298.98609009886513 L 620 305.710488417532 L 640 311.1830420630166 L 660 315.2538776174891 L 680 317.8115096433467 L 700 318.78589386544877 L 720 318.15034543004947 L 740 315.9222697062654 L 760 312.1626856160732 L 780 306.9745545471023 L 800 300.49996061324657 L 820 292.91621948554166 L 840 284.431022358332 L 860 275.27674803990277 L 880 265.7040989388063 L 900 255.9752352331616 L 920 246.35659525315637 L 940 237.11159870046257 L 960 228.49343253695127 L 980 220.73811711107834 L 1000 214.0580424156184 L 1020 208.6361514952309 L 1040 204.62093029925123 L 1060 202.12234118948845 L 1080 201.2088114695179 L 1100 201.90535940874196 L 1120 204.19290908262946 L 1140 208.00881279317858 L 1160 213.24856676239872 L 1180 219.76867311218285 L 1200 227.39056975131012 L 1220 235.90552054421175 L 1240 245.08033183749387 L 1260 254.66373878926643 L 1280 264.3932866028549 L 1300 274.00251821283365 L 1320 283.22827157869995 L 1340 291.8178867397539 L 1360 299.53612525605945 L 1380 306.171612537069 L 1400 311.54262662586916 L 1420 315.50207490522007 L 1440 317.94152243143924 L 1460 318.7941615746605 L 1480 318.03664163777825 L 1500 315.68970834744385 L 1500 500 L 0 500 Z" fill="#1e293b" opacity="0.30000000000000004"/><path d="M 0 340 L 0 384.4614752178908 L 20 386.130162317494 L 40 385.95581299243725 L 60 383.94539301393286 L 80 380.1792246063803 L 100 374.8077773369306 L 120 368.0456564112322 L 140 360.16302856072286 L 160 351.4748280826319 L 180 342.32817428331816 L 200 333.0885030352996 L 220 324.12496653328947 L 240 315.79568457216897 L 260 308.43343660196365 L 280 302.33236620454693 L 300 297.73622918754984 L 320 294.8286548188851 L 340 293.72580929437004 L 360 294.47175455461655 L 380 297.03668788018103 L 400 301.31813259835417 L 420 307.14503232933276 L 440 314.2845851945298 L 460 322.45154494018686 L 480 331.3196173688893 L 500 340.5344967578408 L 520 349.7280214204252 L 540 358.53288285450583 L 560 366.59730080348174 L 580 373.59907791800595 L 600 379.25847249306116 L 620 383.34937497647275 L 640 385.7083417142868 L 660 386.2411250081659 L 680 384.92643858969626 L 700 381.8168080697691 L 720 377.03647238507 L 740 370.77642008509446 L 760 363.28675877470454 L 780 354.866722575567 L 800 345.85271683794167 L 820 336.60487775194645 L 840 327.4926838415799 L 860 318.8801942048739 L 880 311.11150327614257 L 900 304.4969932355966 L 920 299.3009333232206 L 940 295.730921501001 L 960 293.92959030032887 L 980 293.9689082305032 L 1000 295.84730442392225 L 1020 299.4897313968899 L 1040 304.7506634185593 L 1060 311.419910694304 L 1080 319.2310170696959 L 1100 327.8719057419773 L 1120 336.9973476513663 L 1140 346.2427544030864 L 1160 355.2387446520873 L 1180 363.62590198030665 L 1200 371.0691346456241 L 1220 377.2710634880664 L 1240 381.9839031068129 L 1260 385.01936161983735 L 1280 386.25616348151 L 1300 385.64489479934406 L 1320 383.2099775651534 L 1340 379.0486939242458 L 1360 373.32729946598494 L 1380 366.2743808212577 L 1400 358.1717229504752 L 1420 349.34305100096384 L 1440 340.1410965298406 L 1460 330.9335048350264 L 1480 322.0881464382015 L 1500 313.95841956940717 L 1500 500 L 0 500 Z" fill="#f97316" opacity="0.4"/><path d="M 0 420 L 0 430.51558800768527 L 20 423.45292775519357 L 40 416.21505468377586 L 60 409.16924208548534 L 80 402.67301747740197 L 100 397.0560204890393 L 120 392.60327587214596 L 140 389.54073041495406 L 160 388.0237876650288 L 180 388.12942224628586 L 200 389.85227391545624 L 220 393.10491955831674 L 240 397.7223093237096 L 260 403.4701417914393 L 280 410.0567531907041 L 300 417.14791737133356 L 320 424.3838055290074 L 340 431.3972450926712 L 360 437.83235125863393 L 380 443.36258574652436 L 400 447.70732641691677 L 420 450.64610695417014 L 440 452.02980404652027 L 460 451.78820438940966 L 480 449.93356753762055 L 500 446.56000381547034 L 520 441.83869885193604 L 540 436.0092270633736 L 560 429.36739486605916 L 580 422.25023049360533 L 600 415.0188820848869 L 620 408.04029184928606 L 640 401.66857622189775 L 660 396.22705684036424 L 680 391.9918541501958 L 700 389.1778761525666 L 720 387.927913271232 L 740 388.3053927005959 L 760 390.2911599029458 L 780 393.7844505721849 L 800 398.6080037434508 L 820 404.5170565927588 L 840 411.21176450119 L 860 418.352416149051 L 880 425.57667157648945 L 900 432.5179484951329 L 920 438.8240238693177 L 940 444.17490686199017 L 960 448.2990762136973 L 980 450.98725811708726 L 1000 452.10304545261613 L 1020 451.5898195308005 L 1040 449.47362310923126 L 1060 445.861838898093 L 1080 440.93774061113027 L 1100 434.95119305951084 L 1120 428.20597319616303 L 1140 421.04435548215974 L 1160 413.82974376394804 L 1180 406.9282309766331 L 1200 400.6900223941305 L 1220 395.43166507108003 L 1240 391.4199852126071 L 1260 388.8585485421982 L 1280 387.87733071278944 L 1300 388.52612191811215 L 1320 390.7720003758301 L 1340 394.50100288617756 L 1360 399.52390769650196 L 1380 405.58583623029955 L 1400 412.37918645768815 L 1420 419.5592416259053 L 1440 426.7616623119282 L 1460 433.62097419339625 L 1480 439.7891134080299 L 1500 444.9530884495057 L 1500 500 L 0 500 Z" fill="#fbbf24" opacity="0.5"/>
  <text x="80" y="270" font-family="monospace" font-size="72" font-weight="bold" fill="#f97316">Sam</text>
  <text x="80" y="320" font-family="monospace" font-size="24" fill="#888888">social media marketer</text>
  <circle cx="1350" cy="250" r="80" fill="#f97316" opacity="0.3"/>
  <circle cx="1350" cy="250" r="50" fill="#fbbf24" opacity="0.5"/>
  <text x="1350" y="270" font-family="monospace" font-size="64" font-weight="bold" fill="#ffffff" text-anchor="middle">S</text>
</svg>