<?xml version="1.0" encoding="UTF-8"?>
<svg xmlns="http://www.w3.org/2000/svg" width="1500" height="500" viewBox="0 0 1500 500">
  <defs>
    <linearGradient id="bg-shaw" x1="0%" y1="0%" x2="100%" y2="100%">
      <stop offset="0%" style="stop-color:#0a0a0f"/>
      <stop offset="100%" style="stop-color:#1a1a2e"/>
    </linearGradient>
  </defs>
  <rect width="1500" height="500" fill="url(#bg-shaw)"/>
  <path d="M 0 100 L 0 26.08122464132134 L 20 30.575427152439417 L 40 38.0599320070664 L 60 48.212361529851826 L 80 60.59542338252012 L 100 74.67574591640218 L 120 89.84685191826576 L 140 105.45528120866389 L 160 120.82873692250742 L 180 135.30504313615216 L 200 148.26066655842376 L 220 159.1375737799369 L 240 167.46726726702963 L 260 172.89096480566002 L 280 175.1750532125556 L 300 174.22115068087516 L 320 170.07034434819792 L 340 162.90142056343387 L 360 153.0231640798013 L 380 140.86105786825993 L 400 126.93895642606725 L 420 111.8565219601564 L 440 96.26339532936655 L 460 80.83121427224117 L 480 66.22468417028693 L 500 53.07294740642226 L 520 41.94248451704957 L 540 33.3127143577305 L 560 27.5553442486961 L 580 24.91835954474716 L 600 25.515342241661017 L 620 29.320578695343144 L 640 36.17016717736613 L 660 45.769077561511715 L 680 57.70385906170347 L 700 71.46044866501293 L 720 86.44631320281994 L 740 102.01597134180308 L 760 117.49879619423396 L 780 132.22790101466563 L 800 145.5688637986725 L 820 156.94705353822127 L 840 165.872381118644 L 860 171.9604087697736 L 880 174.94890883062754 L 900 174.70915859728422 L 920 171.25148475459326 L 940 164.72481857819383 L 960 155.41028106548035 L 980 143.70907430111131 L 1000 130.12520060838813 L 1020 115.24375381894973 L 1040 99.70571771395633 L 1060 84.18035713541582 L 1080 69.33639095645356 L 1100 55.813188567924605 L 1120 44.19323052585567 L 1140 34.977019553410344 L 1160 28.561522547737425 L 1180 25.223072152221846 L 1200 25.105464369228926 L 1220 28.213764881047737 L 1240 34.4140908573837 L 1260 43.439377647536446 L 1280 54.9008819703814 L 1300 68.30492612894521 L 1320 83.07416203139503 L 1340 98.57243912009035 L 1360 114.13220508037107 L 1380 129.083259107147 L 1400 142.7816192490655 L 1420 154.6372604364074 L 1440 164.13952844153837 L 1460 170.8791351245547 L 1480 174.56578756996655 L 1500 175.0406917802736 L 1500 500 L 0 500 Z" fill="#3b82f6" opacity="0.1"/><path d="M 0 180 L 0 109.23738602996838 L 20 111.99040789340351 L 40 115.79963816209198 L 60 120.60591840113196 L 80 126.33460570458578 L 100 132.89673192114483 L 120 140.19038535495008 L 140 148.1022934833592 L 160 156.50958211160088 L 180 165.28168364414228 L 200 174.2823648367685 L 220 183.37184253780651 L 240 192.40895456042614 L 260 201.25335197175104 L 280 209.7676787519041 L 300 217.81970497225723 L 320 225.28438036402005 L 340 232.0457763846583 L 360 237.99888662129632 L 380 243.05125757032434 L 400 247.12442446673592 L 420 250.1551298643572 L 440 252.0963060420674 L 460 252.9178059789615 L 480 252.60687154620234 L 500 251.16833164440806 L 520 248.6245272094452 L 540 245.01496425130892 L 560 240.39570031449537 L 580 234.8384738883119 L 600 228.42959028763295 L 620 221.26858130669 L 640 213.4666594618573 L 660 205.14499082948387 L 680 196.43281330209314 L 700 187.46542948697143 L 720 178.38210541800132 L 740 169.32390771434808 L 760 160.43151277554134 L 780 151.84302203677996 L 800 143.69181721416817 L 820 136.10448884853855 L 840 129.19887031816856 L 860 123.08220785273438 L 880 117.84949496870894 L 900 113.581997192898 L 920 110.3459899855799 L 940 108.19172946366346 L 960 107.1526719088271 L 980 107.24495418190129 L 1000 108.46714311280726 L 1020 110.80025775809798 L 1040 114.20806418043539 L 1060 118.6376381719945 L 1080 124.02018718253845 L 1100 130.27211868738752 L 1120 137.29633840322154 L 1140 144.98375819005312 L 1160 153.21499022122356 L 1180 161.86220111047615 L 1200 170.791097200985 L 1220 179.86301018423208 L 1240 188.93705065847513 L 1260 197.8722961814288 L 1280 206.52997983607403 L 1300 214.77564532054478 L 1320 222.48123509292927 L 1340 229.52707914149937 L 1360 235.80375349419901 L 1380 241.21377960420847 L 1400 245.67313821963944 L 1420 249.11257422653262 L 1440 251.47867220057384 L 1460 252.73468596390165 L 1480 252.861109263753 L 1500 251.85597871014443 L 1500 500 L 0 500 Z" fill="#1e293b" opacity="0.2"/><path d="M 0 260 L 0 302.9747287824862 L 20 295.08453609159443 L 40 286.632474472577 L 60 277.7539013031096 L 80 268.5910044227861 L 100 259.29052503505955 L 120 250.0014076883485 L 140 240.87241497119638 L 160 232.04974512146686 L 180 223.67469070289027 L 200 215.8813758445952 L 220 208.7946082810929 L 240 202.52788059168927 L 260 197.18155264890783 L 280 192.84124438350028 L 300 189.5764646054579 L 320 187.43949784006736 L 340 186.46456700601786 L 360 186.66728534503204 L 380 188.04440638021322 L 400 190.5738759074551 L 420 194.21518518728664 L 440 198.91001968088386 L 460 204.5831929409255 L 480 211.14385070129345 L 500 218.48692588246325 L 520 226.49482121108286 L 540 235.03929250706443 L 560 243.983502477877 L 580 253.1842121291068 L 600 262.4940746964634 L 620 271.76399536255866 L 640 280.8455189682631 L 660 289.5932074801146 L 680 297.8669691393138 L 700 305.5343019916412 L 720 312.4724158687996 L 740 318.5701988382498 L 760 323.72999662940254 L 780 327.86917653915776 L 800 330.9214507712869 L 820 332.8379380167518 L 840 333.58794627405183 L 860 333.1594643729518 L 880 331.55935432997853 L 900 328.8132414551654 L 920 324.9651039699561 L 940 320.07656870841936 L 960 314.2259241809215 L 980 307.50686680576285 L 1000 300.0270003875237 L 1020 291.9061128725511 L 1040 283.27425797885746 L 1060 274.2696724225905 L 1080 265.0365620960984 L 1100 255.7227926513273 L 1120 246.47752147320293 L 1140 237.44880896627228 L 1160 228.78124740917906 L 1180 220.61364535019155 L 1200 213.07680462754007 L 1220 206.2914256149518 L 1240 200.36617423928305 L 1260 195.39594172641867 L 1280 191.46032494511144 L 1300 188.62235168562918 L 1320 186.9274712875098 L 1340 186.40282678123566 L 1360 187.05682020027288 L 1380 188.8789780248806 L 1400 191.8401189125689 L 1420 195.8928210290502 L 1440 200.9721814955103 L 1460 206.99685578986686 L 1480 213.87036045629654 L 1500 221.4826182605069 L 1500 500 L 0 500 Z" fill="#f8fafc" opacity="0.30000000000000004"/><path d="M 0 340 L 0 339.8806879129194 L 20 331.1796349937706 L 40 322.6670268108726 L 60 314.52473295836364 L 80 306.9267113638837 L 100 300.03529172403717 L 120 293.9977073738965 L 140 288.94294968622825 L 160 284.97901220535755 L 180 282.1905833940147 L 200 280.63723728700853 L 220 280.35216070792677 L 240 281.3414442415376 L 260 283.58395211007695 L 280 287.03177373348063 L 300 291.6112473260965 L 320 297.2245336610083 L 340 303.7517063789174 L 360 311.05331418269236 L 380 318.9733601769874 L 400 327.3426347001348 L 420 335.98233044325207 L 440 344.7078626205112 L 460 353.33281257365593 L 480 361.67291055671205 L 500 369.5499726097626 L 520 376.7957074115335 L 540 383.2553117784037 L 560 388.7907779929669 L 580 393.2838423019554 L 600 396.63851158965707 L 620 398.7831142451258 L 640 399.6718314069553 L 660 399.28567587098286 L 680 397.6328977468216 L 700 394.7488081964777 L 720 390.6950250208306 L 740 385.55815621181864 L 760 379.4479495958852 L 780 372.4949481010568 L 800 364.8477007422462 L 820 356.6695889113298 L 840 348.13533577746415 L 860 339.4272733733684 L 880 330.73144712027363 L 900 322.23364101732153 L 920 314.11540841617625 L 940 306.550193182286 L 960 299.69962411314697 L 980 293.7100617823282 L 1000 288.7094715850137 L 1020 284.80468979160344 L 1040 282.0791410194071 L 1060 280.5910558880364 L 1080 280.3722269378118 L 1100 281.427329390652 L 1120 283.7338212652101 L 1140 287.24242498026825 L 1160 291.87818015706375 L 1180 297.5420451277066 L 1200 304.11301293389073 L 1220 311.4506966081522 L 1240 319.39832850383345 L 1260 327.78610959387123 L 1280 336.4348371815373 L 1300 345.1597335180638 L 1320 353.77439352976137 L 1340 362.09476731249924 L 1360 369.94309230861813 L 1380 377.1516911563693 L 1400 383.5665540718443 L 1420 389.05062922676416 L 1440 393.4867508240877 L 1460 396.7801423138884 L 1480 398.86044126896184 L 1500 399.68320265924 L 1500 500 L 0 500 Z" fill="#3b82f6" opacity="0.4"/><path d="M 0 420 L 0 427.55270426578363 L 20 433.30927144207743 L 40 438.80776803340694 L 60 443.9415766161271 L 80 448.6111511715243 L 100 452.72594731162883 L 120 456.2061779608291 L 140 458.98436045011806 L 160 461.00662502537216 L 180 462.2337593973118 L 200 462.6419690790205 L 220 462.22333876786087 L 240 460.9859858254598 L 260 458.95390287974146 L 280 456.16649260100075 L 300 452.67780367284155 L 320 448.55548277272214 L 340 443.87946288350605 L 360 438.74041337003155 L 380 433.2379818741605 L 400 427.47886211846406 L 420 421.5747250843855 L 440 415.6400536799281 L 460 409.7899228832816 L 480 404.13776840603833 L 500 398.7931871422582 L 520 393.8598120533045 L 540 389.4333026950438 L 560 385.59949035166056 L 580 382.432713742476 L 600 379.99437757288956 L 620 378.33176187955564 L 640 377.4771052569321 L 660 377.44697974170043 L 680 378.24196947622886 L 700 379.84665938188414 L 720 382.2299340618212 L 740 385.34558113743935 L 760 389.133187319638 L 780 393.5193098397948 L 800 398.4189005260824 L 820 403.7369549118778 L 840 409.37035439957884 L 860 415.2098657597442 L 880 421.1422591946963 L 900 427.0525038967265 L 920 432.82599852840076 L 940 438.35079337531363 L 960 443.5197610831126 L 980 448.23267388757944 L 1000 452.39814705968314 L 1020 455.93541088164795 L 1040 458.77587679491296 L 1060 460.86446735192624 L 1080 462.16068418362624 L 1100 462.639393274417 L 1120 462.2913123179285 L 1140 461.12319070359536 L 1160 459.1576786440632 L 1180 456.4328879810783 L 1200 453.00165318596095 L 1220 448.9305068840753 L 1240 444.298389768169 L 1260 439.1951199157323 L 1280 433.71965119075236 L 1300 427.978154499951 L 1320 422.0819591084959 L 1340 416.14539393366533 L 1360 410.2835706743991 L 1380 404.6101517624882 L 1400 399.2351464154709 L 1420 394.2627775263978 L 1440 389.7894607520872 L 1460 385.90193498592646 L 1480 382.6755804658873 L 1500 380.17295713012373 L 1500 500 L 0 500 Z" fill="#1e293b" opacity="0.5"/>
  <text x="80" y="270" font-family="monospace" font-size="72" font-weight="bold" fill="#3b82f6">Shaw</text>
  <text x="80" y="320" font-family="monospace" font-size="24" fill="#888888">AI researcher developer</text>
  <circle cx="1350" cy="250" r="80" fill="#3b82f6" opacity="0.3"/>
  <circle cx="1350" cy="250" r="50" fill="#1e293b" opacity="0.5"/>
  <text x="1350" y="270" font-family="monospace" font-size="64" font-weight="bold" fill="#ffffff" text-anchor="middle">S</text>
</svg>