<?xml version="1.0" encoding="UTF-8"?>
<svg xmlns="http://www.w3.org/2000/svg" width="1500" height="500" viewBox="0 0 1500 500">
  <defs>
    <linearGradient id="bg-sincara" x1="0%" y1="0%" x2="100%" y2="100%">
      <stop offset="0%" style="stop-color:#0a0a0f"/>
      <stop offset="100%" style="stop-color:#1a1a2e"/>
    </linearGradient>
  </defs>
  <rect width="1500" height="500" fill="url(#bg-sincara)"/>
  <path d="M 0 100 L 0 145.05538338883696 L 20 151.85338522622655 L 40 157.76612687233154 L 60 162.69266381257853 L 80 166.54888838427465 L 100 169.26896569376572 L 120 170.80645757411622 L 140 171.13511539468882 L 160 170.24932818748522 L 180 168.1642184396693 L 200 164.9153839168671 L 220 160.55828992493207 L 240 155.16732238570742 L 260 148.8345178930271 L 280 141.66799242990948 L 300 133.79009557246496 L 320 125.33532169263324 L 340 116.44801382046859 L 360 107.27989936648798 L 380 97.98749977514188 L 400 88.72945833276225 L 420 79.6638317506408 L 440 70.94539176233346 L 460 62.72298280332074 L 480 55.1369808836957 L 500 48.31689703694541 L 520 42.37916625963591 L 540 37.42515969004067 L 560 33.53945396253546 L 580 30.788387283981848 L 600 29.218926883297797 L 620 28.857867169536064 L 640 29.711372287812296 L 660 31.7648708827372 L 680 34.98330486599092 L 700 39.31172794098697 L 720 44.67624366639156 L 740 50.98526704352994 L 760 58.13108808939336 L 780 65.99171070134845 L 800 74.43293541977044 L 820 83.3106505309052 L 840 92.47329239540362 L 860 101.76443299888925 L 880 111.02545054893697 L 900 120.09823752504303 L 920 128.82789994875438 L 940 137.06540179101805 L 960 144.67010937045004 L 980 151.51219230361326 L 1000 157.47484001739338 L 1020 162.45625598235185 L 1040 166.37139562076703 L 1060 169.1534182191524 L 1080 170.75482805766524 L 1100 171.14828527462083 L 1120 170.3270726227339 L 1140 168.30521014845124 L 1160 165.11721583652778 L 1180 160.81751630621088 L 1200 155.47951761984461 L 1220 149.1943520673953 L 1240 142.0693223222553 L 1260 134.22606953027417 L 1280 125.79849660707869 L 1300 116.93048219792058 L 1320 107.77342432817281 L 1340 98.48365568018613 L 1360 89.21977462385352 L 1380 80.13993756651803 L 1400 71.39915884823003 L 1420 63.14666427953895 L 1440 55.523343503205616 L 1460 48.6593446740562 L 1480 42.67185252149556 L 1500 37.66308772841978 L 1500 500 L 0 500 Z" fill="#ec4899" opacity="0.1"/><path d="M 0 180 L 0 178.06527378528298 L 20 184.37245245252393 L 40 190.52560790847153 L 60 196.30799022314886 L 80 201.51591025351718 L 100 205.96591476001677 L 120 209.5012486968689 L 140 211.99737703668092 L 160 213.36637161856993 L 180 213.5600084894947 L 200 212.57146663241537 L 220 210.43556824219357 L 240 207.227552085318 L 260 203.06042315286132 L 280 198.0809719673092 L 300 192.46460376643273 L 320 186.40915971042674 L 340 180.1279477653447 L 360 173.8422287556553 L 380 167.77342227086166 L 400 162.13530697949255 L 420 157.12649010077956 L 440 152.92341130303623 L 460 149.67412747213527 L 480 147.49309728669533 L 500 146.45714931757837 L 520 146.6027756786881 L 540 147.92484656243244 L 560 150.37679094138844 L 580 153.87223707080656 L 600 158.2880550039116 L 620 163.4686939449138 L 640 169.23166165292352 L 660 175.37395288028955 L 680 181.6792003983663 L 700 187.9252967099817 L 720 193.89221796755643 L 740 199.36977449296245 L 760 204.16501488072547 L 780 208.10902286898425 L 800 211.06286755287147 L 820 212.92249733918774 L 840 213.6224052488143 L 860 213.13793645359215 L 880 211.48615676279465 L 900 208.72525146604772 L 920 204.95247570894733 L 940 200.30072860106822 L 960 194.93387173620914 L 980 189.04095703382563 L 1000 182.82956723065257 L 1020 176.51850360914352 L 1040 170.33007854346747 L 1060 164.4822843644302 L 1080 159.18111440145458 L 1100 154.61330669919028 L 1120 150.93976601726888 L 1140 148.28989582863596 L 1160 146.757039976454 L 1180 146.39519456093592 L 1200 147.21710588258358 L 1220 149.19382144333483 L 1240 152.25570982197098 L 1260 156.29491349783973 L 1280 161.16914822017324 L 1300 166.70671508711214 L 1320 172.71254877985456 L 1340 178.9750888979401 L 1360 185.27373234726676 L 1380 191.38660426438176 L 1400 197.09837373988793 L 1420 202.20783902571884 L 1440 206.5350150311593 L 1460 209.92747344476942 L 1480 212.2657121462364 L 1500 213.46736476623317 L 1500 500 L 0 500 Z" fill="#8b5cf6" opacity="0.2"/><path d="M 0 260 L 0 301.30691410848505 L 20 307.11658389367193 L 40 309.9479959337303 L 60 309.6221755632433 L 80 306.15971801560295 L 100 299.7794865902307 L 120 290.88477821759193 L 140 280.0378309020642 L 160 267.924284437194 L 180 255.3098408454664 L 200 242.99186405318673 L 220 231.74897820400489 L 240 222.29185052145056 L 260 215.21826975503924 L 280 210.97535971898668 L 300 209.83131642056867 L 320 211.85845528532548 L 340 216.92864007065435 L 360 224.72138240795425 L 380 234.74409999808753 L 400 246.36325293167934 L 420 258.8443899952378 L 440 271.3985736203805 L 460 283.2322489369216 L 480 293.5974046874159 L 500 301.83885531208193 L 520 307.43565548497236 L 540 310.0340292723213 L 560 309.4697324480537 L 580 305.778434435726 L 600 299.19346363027427 L 620 290.1310586186692 L 640 279.1640575756014 L 660 266.98568893781515 L 680 254.36575216276634 L 700 242.10195840303209 L 720 230.96950687152668 L 740 221.67208419525184 L 760 214.79738410764617 L 780 210.7799590972252 L 800 209.8737521743685 L 820 212.13604503404738 L 840 217.42383725742218 L 860 225.40288542439617 L 880 235.56883077127648 L 900 247.27907990601616 L 920 259.79342338852456 L 940 272.32082465965516 L 960 284.06942177232224 L 980 294.29658129571175 L 1000 302.35584046567385 L 1020 307.7377703495613 L 1040 310.1021770488394 L 1060 309.2996054888225 L 1080 305.3807865325553 L 1100 298.5934302630649 L 1120 289.3665681318712 L 1140 278.28343371268727 L 1160 266.0445962785047 L 1180 253.42367754311277 L 1200 241.218450729187 L 1220 230.2004130100299 L 1240 221.06601887069576 L 1260 214.39265694687023 L 1280 210.60215306277956 L 1300 209.9341064554188 L 1320 212.4307446128199 L 1340 217.9342540579736 L 1360 226.09675580059877 L 1380 236.40229490454286 L 1400 248.19945420163162 L 1420 260.74253062632994 L 1440 273.23867139894764 L 1460 284.89799056076873 L 1480 294.9834979752637 L 1500 302.8576847636358 L 1500 500 L 0 500 Z" fill="#06b6d4" opacity="0.30000000000000004"/><path d="M 0 340 L 0 265.97976080987746 L 20 267.3712260370678 L 40 274.75416255082615 L 60 287.5195190107663 L 80 304.6142242645158 L 100 324.6280598808445 L 120 345.90999535370884 L 140 366.70438896770105 L 160 385.2958185084324 L 180 400.15059408701114 L 200 410.0432790549695 L 220 414.15778173543526 L 240 412.1546784630563 L 260 404.1992141550416 L 280 390.9476705214076 L 300 373.49322646152746 L 320 353.2757768641838 L 340 331.96314926026616 L 360 311.31351729587453 L 380 293.03036115168766 L 400 278.6219398700743 L 420 269.2768683440465 L 440 265.7660631768186 L 460 268.37914633506347 L 480 276.90055294197305 L 500 290.62731418476613 L 520 308.4270483453411 L 540 328.8313760154751 L 560 350.15705325909795 L 580 370.644829907165 L 600 388.6045779454656 L 620 402.5547177077869 L 640 411.344439986304 L 660 414.24864141254307 L 680 411.02774146619146 L 700 401.9474465400807 L 720 387.75683063553055 L 740 369.626540909193 L 760 349.0522257712693 L 780 327.7311521817189 L 800 307.4221905336429 L 820 289.800717594884 L 840 276.320407210929 L 860 268.0933102700478 L 880 265.7981166688685 L 900 269.62416715773327 L 920 279.25583377827013 L 940 293.8985574205012 L 960 312.3443945453504 L 980 333.07166583124916 L 1000 354.37048628383207 L 1020 374.48382127045477 L 1040 391.7524321385269 L 1060 404.751754207558 L 1080 412.40941545924557 L 1100 414.09370128506305 L 1120 409.6656674400077 L 1140 399.4906021726757 L 1160 384.4078919694652 L 1180 365.66177682198514 L 1200 344.7987073242952 L 1220 323.5397710705333 L 1240 303.63871246801193 L 1260 286.7372585442328 L 1280 274.22968556685413 L 1300 267.1477989797738 L 1320 266.0758151730811 L 1340 271.1021668690568 L 1360 281.81220791274893 L 1380 297.3224192814622 L 1400 316.3532945069798 L 1420 337.33489186716685 L 1440 358.5363458762019 L 1460 378.20865409335283 L 1480 394.72896012999604 L 1500 406.734430306544 L 1500 500 L 0 500 Z" fill="#ec4899" opacity="0.4"/><path d="M 0 420 L 0 473.77886714659724 L 20 469.64377541050663 L 40 463.10061149930334 L 60 454.4667648706079 L 80 444.161037794369 L 100 432.68333049798446 L 120 420.59039249024903 L 140 408.46881629542145 L 160 396.9065835912026 L 180 386.4645439630032 L 200 377.64920975546596 L 220 370.8881866622343 L 240 366.5094318431229 L 260 364.72534569585224 L 280 365.62246894327683 L 300 369.1572847998196 L 320 375.1583298415589 L 340 383.3345111879247 L 360 393.2892265532117 L 380 404.53960224612416 L 400 416.5399159391067 L 420 428.70806803844914 L 440 440.45381760758556 L 460 451.2074132027672 L 480 460.44722982426254 L 500 467.72507139662457 L 520 472.68791142981775 L 540 475.09501728627276 L 560 474.8296274065082 L 580 471.90461506576816 L 600 466.46186392965524 L 620 458.7653856987011 L 640 449.1885136845055 L 660 438.19579351904946 L 680 426.3204494251151 L 700 414.13851909214134 L 720 402.24091179790605 L 740 391.20474515360536 L 760 381.56535084173703 L 780 373.7903072653416 L 800 368.256758707701 L 820 365.2331211827285 L 840 364.8660623709399 L 860 367.17338720566255 L 880 372.04317420857416 L 900 379.2392044683719 L 920 388.4124199189316 L 940 399.1178551098994 L 960 410.83622115978574 L 980 422.9990949180711 L 1000 435.01649148484546 L 1020 446.30548262690223 L 1040 456.3184728958799 L 1060 464.5697618578969 L 1080 470.65910397977314 L 1100 474.2911233516957 L 1120 475.28964149576535 L 1140 473.6062232609646 L 1160 469.3225262685518 L 1180 462.6463399432584 L 1200 453.9015062651284 L 1220 443.5122111564081 L 1240 431.9824084816751 L 1260 419.87137474187995 L 1280 407.7665802315256 L 1300 396.2551925986164 L 1320 385.8955950850901 L 1340 377.19030101333993 L 1360 370.5615783566823 L 1380 366.33096677349386 L 1400 364.70368067289144 L 1420 365.75865487293424 L 1440 369.4447157069225 L 1460 375.5830633060567 L 1480 383.8759446502976 L 1500 393.9210966834722 L 1500 500 L 0 500 Z" fill="#8b5cf6" opacity="0.5"/>
  <text x="80" y="270" font-family="monospace" font-size="72" font-weight="bold" fill="#ec4899">Sincara</text>
  <text x="80" y="320" font-family="monospace" font-size="24" fill="#888888">creative UI designer</text>
  <circle cx="1350" cy="250" r="80" fill="#ec4899" opacity="0.3"/>
  <circle cx="1350" cy="250" r="50" fill="#8b5cf6" opacity="0.5"/>
  <text x="1350" y="270" font-family="monospace" font-size="64" font-weight="bold" fill="#ffffff" text-anchor="middle">S</text>
</svg>