<?xml version="1.0" encoding="UTF-8"?>
<svg xmlns="http://www.w3.org/2000/svg" width="1500" height="500" viewBox="0 0 1500 500">
  <defs>
    <linearGradient id="bg-stuu" x1="0%" y1="0%" x2="100%" y2="100%">
      <stop offset="0%" style="stop-color:#0a0a0f"/>
      <stop offset="100%" style="stop-color:#1a1a2e"/>
    </linearGradient>
  </defs>
  <rect width="1500" height="500" fill="url(#bg-stuu)"/>
  <path d="M 0 100 L 0 133.70070478227478 L 20 126.80126864561637 L 40 119.536805294935 L 60 112.00625507717218 L 80 104.31218238218568 L 100 96.55937873896899 L 120 88.85343557874022 L 140 81.29930610354333 L 160 73.99987584738645 L 180 67.05456139855099 L 200 60.55795636815639 L 220 54.59854304658263 L 240 49.257487294698095 L 260 44.60753308320165 L 280 40.71201173620351 L 300 37.62397937292182 L 320 35.38549429534547 L 340 34.0270441636783 L 360 33.567130761306316 L 380 34.01201800469481 L 400 35.35564663026355 L 420 37.57971672018558 L 440 40.653936943126865 L 460 44.53643711532449 L 480 49.174338463014294 L 500 54.504473819363845 L 520 60.454247946990144 L 540 66.94262626866505 L 560 73.88123853991989 L 580 81.17558243177697 L 600 88.72631063108582 L 620 96.43058392844617 L 640 104.18347186496835 L 660 111.87938186137876 L 680 119.41349736505397 L 700 126.6832054277491 L 720 133.5894942707318 L 740 140.038301802803 L 760 145.94179672469372 L 780 151.21957477148544 L 800 155.7997538005032 L 820 159.6199528098327 L 840 162.62814155344984 L 860 164.7833491813976 L 880 166.05622225349094 L 900 166.42942452652989 L 920 165.89787307000844 L 940 164.46880749447837 L 960 162.16169134969127 L 980 159.00794703545566 L 1000 155.0505278356623 L 1020 150.34333290427753 L 1040 144.9504731710631 L 1060 138.9453981652208 L 1080 132.40989564942578 L 1100 125.432977689007 L 1120 118.10966832776016 L 1140 110.53970938197419 L 1160 102.82620197946459 L 1180 95.07420234554331 L 1200 87.38929096100391 L 1220 79.87613457986487 L 1240 72.63706069186509 L 1260 65.77066384520984 L 1280 59.37046281113529 L 1300 53.523626879407146 L 1320 48.309788632319574 L 1340 43.799959366944485 L 1360 40.055561937335064 L 1380 37.127594189152845 L 1400 35.05593438055067 L 1420 33.86879804932016 L 1440 33.582353723652474 L 1460 34.20050271044295 L 1480 35.7148259603741 L 1500 38.104698733462065 L 1500 500 L 0 500 Z" fill="#4ade80" opacity="0.1"/><path d="M 0 180 L 0 251.9507086374271 L 20 256.0226067678766 L 40 257.12473805851977 L 60 255.214048566599 L 80 250.3651779622798 L 100 242.7675437852052 L 120 232.71794198857032 L 140 220.60895282498387 L 160 206.91360498959963 L 180 192.16689710441068 L 200 176.9448983932396 L 220 161.84224496408052 L 240 147.44891078985899 L 260 134.32716081204654 L 280 122.98958647707069 L 300 113.87908173102643 L 320 107.35154169562817 L 340 103.66195988881492 L 360 102.95446709179078 L 380 105.25670098678386 L 400 110.47872651145533 L 420 118.41654910551418 L 440 128.76008360716006 L 460 141.10526750031568 L 480 154.9698453176153 L 500 169.81220759313453 L 520 185.05254843512304 L 540 200.09551521382855 L 560 214.35346557112834 L 580 227.2694232341093 L 600 238.33883588073667 L 620 247.1292851027012 L 640 253.29737851034042 L 660 256.602164102064 L 680 256.9145428758746 L 700 254.22231198628498 L 720 248.6306414394411 L 740 240.3579657047086 L 760 229.72745073387463 L 780 217.15436972254065 L 800 203.1298807702397 L 820 188.20184015297326 L 840 172.95340072346846 L 860 157.98023147680206 L 880 143.86724818219164 L 900 131.16576408159236 L 920 120.37195324613879 L 940 111.90746790346569 L 960 106.10296690566227 L 980 103.1851987860633 L 1000 103.26814399569808 L 1020 106.34856234137193 L 1040 112.30611956141387 L 1060 120.90808809450323 L 1080 131.81843840952138 L 1100 144.6109657503601 L 1120 158.78593950912094 L 1140 173.78962483226974 L 1160 189.03591386265785 L 1180 203.92922160895762 L 1200 217.88775203232706 L 1220 230.36622547785612 L 1240 240.8771796205145 L 1260 249.01001181992046 L 1280 254.44701900844234 L 1300 256.9758085262815 L 1320 256.49759508345363 L 1340 253.03105973399298 L 1360 246.7116201144097 L 1380 237.78614045399416 L 1400 226.60328800649899 L 1420 213.59991262205384 L 1440 199.28398153125096 L 1460 184.21473598142396 L 1480 168.98084489143034 L 1500 154.1774089362367 L 1500 500 L 0 500 Z" fill="#1e293b" opacity="0.2"/><path d="M 0 260 L 0 302.5217234007488 L 20 303.621249717997 L 40 304.2415050378163 L 60 304.3756745534848 L 80 304.0222841312257 L 100 303.18521650666105 L 120 301.8736686248104 L 140 300.1020505923436 L 160 297.8898273523096 L 180 295.2613048208763 L 200 292.2453628358189 L 220 288.87513785087754 L 240 285.1876588622532 L 260 281.22344056735375 L 280 277.0260382257947 L 300 272.64156911344173 L 320 268.1182058273264 L 340 263.505647008544 L 360 258.8545712983548 L 380 254.21608052692525 L 400 249.64113825245144 L 420 245.18000981949004 L 440 240.8817100886318 L 460 236.7934649053666 L 480 232.9601922250347 L 500 229.4240085947959 L 520 226.22376641494856 L 540 223.3946270637536 L 560 220.96767457588402 L 580 218.96957411905265 L 600 217.42227902116963 L 620 216.342789566951 L 640 215.7429662141046 L 660 215.62939928130436 L 680 216.0033365397056 L 700 216.8606695035596 L 720 218.1919785705539 L 740 219.98263651591736 L 760 222.21296920318946 L 780 224.85847174590916 L 800 227.89007774523316 L 820 231.2744786453428 L 840 234.97448969785108 L 860 238.94945851432112 L 880 243.15571171809052 L 900 247.5470347879927 L 920 252.07517982188466 L 940 256.6903956411339 L 960 261.3419744117526 L 980 265.9788087763992 L 1000 270.5499533759836 L 1020 275.00518459137965 L 1040 279.2955523553109 L 1060 283.37391797159495 L 1080 287.1954720326738 L 1100 290.7182267450199 L 1120 293.90347725318765 L 1140 296.71622689389994 L 1160 299.1255717078586 L 1180 301.10503998461047 L 1200 302.63288310985615 L 1220 303.69231451963225 L 1240 304.27169413595493 L 1260 304.3646562575112 L 1280 303.9701795002506 L 1300 303.0925980194332 L 1320 301.74155388983576 L 1340 299.93189116731975 L 1360 297.68349279571737 L 1380 295.02106215095523 L 1400 291.97385162261304 L 1420 288.5753412150174 L 1440 284.8628706991137 L 1460 280.87722935669893 L 1480 276.66220782453667 L 1500 272.26411696228735 L 1500 500 L 0 500 Z" fill="#ffffff" opacity="0.30000000000000004"/><path d="M 0 340 L 0 345.0098469137749 L 20 357.1757385194412 L 40 367.8577643907405 L 60 376.1330709254185 L 80 381.28672852703943 L 100 382.87349660737175 L 120 380.7562893124287 L 140 375.11801879786293 L 160 366.4457928761382 L 180 355.4888322501299 L 200 343.19374299487447 L 220 330.6227363000804 L 240 318.86186072545246 L 260 308.9271750711167 L 280 301.6769678821329 L 300 297.7376072184605 L 320 297.4494267605128 L 340 300.837323318775 L 360 307.6086059205303 L 380 317.1782822978138 L 400 328.719598197866 L 420 341.2354632670926 L 440 353.6445928031698 L 460 364.87492332009003 L 480 373.9562314635088 L 500 380.1039546388109 L 520 382.78697182585034 L 540 381.7734887839278 L 560 377.15106348072936 L 580 369.3190416858313 L 600 358.9540562414902 L 620 346.95157063654887 L 640 334.34851711681705 L 660 322.23371286737 L 680 311.65379369277395 L 700 303.5227918786152 L 720 298.5431700854919 L 740 297.1451334041815 L 760 299.44946259321927 L 780 305.2570794516625 L 800 314.0662458070988 L 820 325.11591024457016 L 840 337.4514577170171 L 860 350.00718172289356 L 880 361.69835402175744 L 900 371.51493769733696 L 920 378.6088474036512 L 940 382.36721810878447 L 960 382.4653524205353 L 980 378.89477220898755 L 1000 371.9639510586528 L 1020 362.27166427135387 L 1040 350.6552587963967 L 1060 338.11831221044804 L 1080 325.74393051395265 L 1100 314.60117521845063 L 1120 305.65270378118703 L 1140 299.6716026185442 L 1160 297.1745977542088 L 1180 298.3774132429303 L 1200 303.1761340951752 L 1220 311.1561838178642 L 1240 321.62814097338963 L 1260 333.68730045243393 L 1280 346.2918337760663 L 1300 358.35279591432743 L 1320 368.8282026509227 L 1340 376.8130508564439 L 1360 381.6175045373537 L 1380 382.8264919235861 L 1400 380.33556481609094 L 1420 374.35992219320815 L 1440 365.4158184983134 L 1460 354.2759628048742 L 1480 341.9027620644507 L 1500 329.3651757620966 L 1500 500 L 0 500 Z" fill="#4ade80" opacity="0.4"/><path d="M 0 420 L 0 409.86037968430156 L 20 394.9145306886067 L 40 382.090830826521 L 60 372.4741234076983 L 80 366.87795060923304 L 100 365.7757304528641 L 120 369.2607071797436 L 140 377.03806309083654 L 160 388.44985916560404 L 180 402.53069456372816 L 200 418.08937639701946 L 220 433.8096907743699 L 240 448.36175021702275 L 260 460.5144978148954 L 280 469.23985063815877 L 300 473.799672210095 L 320 473.80821645283817 L 340 469.26476055123544 L 360 460.5536661006587 L 380 448.41186336586 L 400 433.86650937684186 L 420 418.14809378411337 L 440 402.5863434354266 L 460 388.49773180831426 L 480 377.0741096346519 L 500 369.28187820426956 L 520 365.78023495826744 L 540 366.86540752900385 L 560 372.44559384563775 L 580 382.0487282908102 L 600 394.8624169168623 L 620 409.80266333215553 L 640 425.60557127098497 L 660 440.9342661078613 L 680 454.49199010372706 L 700 465.1318038940286 L 720 471.95361382946777 L 740 474.38031697190786 L 760 472.20662212638155 L 780 465.6164168086415 L 800 455.16721095927306 L 820 441.74297341556917 L 840 426.479351022287 L 860 410.6675966013512 L 880 395.64533316187135 L 900 382.6833953431046 L 920 372.8783209363331 L 940 367.05958735332104 L 960 365.7194405344816 L 980 368.97125254294843 L 1000 376.5399306566852 L 1020 387.78518931825425 L 1040 401.75571621096634 L 1060 417.2696501875009 L 1080 433.0145628799256 L 1100 447.6584858720143 L 1120 459.962590896114 L 1140 468.8859906763037 L 1160 473.67379460729694 L 1180 473.92097004497896 L 1200 469.60660675105964 L 1220 461.09568583123837 L 1240 449.1082035204677 L 1260 434.65826184267894 L 1280 418.9682788771027 L 1300 403.36557616368776 L 1320 389.17009161685826 L 1340 377.582717069981 L 1360 369.5837067311877 L 1380 365.8497508648498 L 1400 366.6967299955976 L 1420 372.0529924430823 L 1440 381.4654158211441 L 1460 394.1377397182691 L 1480 408.9979267392113 L 1500 424.78885338270004 L 1500 500 L 0 500 Z" fill="#1e293b" opacity="0.5"/>
  <text x="80" y="270" font-family="monospace" font-size="72" font-weight="bold" fill="#4ade80">Stuu</text>
  <text x="80" y="320" font-family="monospace" font-size="24" fill="#888888">customer support professional</text>
  <circle cx="1350" cy="250" r="80" fill="#4ade80" opacity="0.3"/>
  <circle cx="1350" cy="250" r="50" fill="#1e293b" opacity="0.5"/>
  <text x="1350" y="270" font-family="monospace" font-size="64" font-weight="bold" fill="#ffffff" text-anchor="middle">S</text>
</svg>