<?xml version="1.0" encoding="UTF-8"?>
<svg xmlns="http://www.w3.org/2000/svg" width="1500" height="500" viewBox="0 0 1500 500">
  <defs>
    <linearGradient id="bg-toly" x1="0%" y1="0%" x2="100%" y2="100%">
      <stop offset="0%" style="stop-color:#0a0a0f"/>
      <stop offset="100%" style="stop-color:#1a1a2e"/>
    </linearGradient>
  </defs>
  <rect width="1500" height="500" fill="url(#bg-toly)"/>
  <path d="M 0 100 L 0 84.90948138525305 L 20 70.64261516298804 L 40 57.63967443413098 L 60 46.460475693499724 L 80 37.586317747599125 L 100 31.399260324249752 L 120 28.165675229045505 L 140 28.024778221824093 L 160 30.982635351055478 L 180 36.91190179184296 L 200 45.55730443136241 L 220 56.54663215961441 L 240 69.4067606997512 L 260 83.58402205986467 L 280 98.46804163883695 L 300 113.4180167257083 L 320 127.79030502253507 L 340 140.9661354201799 L 360 152.3782479931129 L 380 161.53531627970744 L 400 168.04310039393306 L 420 171.6214202620796 L 440 172.1162182345974 L 460 169.5061917405993 L 480 163.90371042889927 L 500 155.5499783098516 L 520 144.80464918262766 L 540 132.13034243564903 L 560 118.07272586247808 L 580 103.23702298905329 L 600 88.26195634391236 L 620 73.7922484935698 L 640 60.45086475785045 L 660 48.81219264144991 L 680 39.37731268948484 L 700 32.552425432579554 L 720 28.63136320769206 L 740 27.782939774453524 L 760 30.043682364851023 L 780 35.31625907381529 L 800 43.37366929637404 L 820 53.86901680019315 L 840 66.3504446727481 L 860 80.28058914782315 L 880 95.05971476442116 L 900 110.05153481850459 L 920 124.6106054579002 L 940 138.11011402052554 L 960 149.96886524271864 L 980 159.67630349859746 L 1000 166.81449378627406 L 1020 171.0761151120194 L 1040 172.27769160198562 L 1060 170.36749170152711 L 1080 165.42775537735412 L 1100 157.67115343463192 L 1120 147.43163138628861 L 1140 135.15003207405104 L 1160 121.35511603148632 L 1180 106.6407967206561 L 1200 91.64057073529135 L 1220 77.00024382869893 L 1240 63.35012699457959 L 1260 51.27789964478901 L 1280 41.30330820750292 L 1300 33.855789448765265 L 1320 29.255981902085168 L 1340 27.70192139576602 L 1360 29.260515002871088 L 1380 33.86466048643965 L 1400 41.316135256675146 L 1420 51.294130461635454 L 1440 63.369062792634594 L 1460 77.02106936375623 L 1480 91.66238940416837 L 1500 106.66266916271255 L 1500 500 L 0 500 Z" fill="#9945ff" opacity="0.1"/><path d="M 0 180 L 0 174.50426249914344 L 20 170.1241049456575 L 40 165.87741352511242 L 60 161.82157943887015 L 80 158.01141457875028 L 100 154.49841078088002 L 120 151.33004394788168 L 140 148.5491324437224 L 160 146.19325843209154 L 180 144.2942599785313 L 200 142.87780078022183 L 220 141.9630233382353 L 240 141.56229025940502 L 260 141.6810171839417 L 280 142.31759959666903 L 300 143.463434510976 L 320 145.1030367324412 L 340 147.21424813090476 L 360 149.76853709281428 L 380 152.73138410694744 L 400 156.06274827257616 L 420 159.7176084255267 L 440 163.6465715691775 L 460 167.79654038785586 L 480 172.11143082163557 L 500 176.53293000498977 L 520 181.00128432626545 L 540 185.45610695788005 L 560 189.83719394400902 L 580 194.08533781688382 L 600 198.14312774621823 L 620 201.95572540827806 L 640 205.47160608924105 L 660 208.6432550073291 L 680 211.4278094433848 L 700 213.78763800192456 L 720 215.690849174343 L 740 217.11172233137512 L 760 218.03105532024136 L 780 218.43642396893165 L 800 218.32234999060123 L 820 217.69037501896258 L 840 216.54903977413431 L 860 214.9137686405068 L 880 212.80666121647727 L 900 210.2561936531216 L 920 207.29683381801013 L 940 203.96857548497292 L 960 200.3163978449283 L 980 196.38965764212563 L 1000 192.24142215067494 L 1020 187.92775200574144 L 1040 183.5069435814623 L 1060 179.03874115434252 L 1080 174.58352949921652 L 1100 170.201517829302 L 1120 165.95192610885192 L 1140 161.8921847348466 L 1160 158.07715840349303 L 1180 154.55840465045878 L 1200 151.3834770851741 L 1220 148.59528273552596 L 1240 146.2315021880017 L 1260 144.32408035970138 L 1280 142.898794784095 L 1300 141.97490724485542 L 1320 141.56490346570246 L 1340 141.67432437417676 L 1360 142.3016912197006 L 1380 143.43852555790545 L 1400 145.06946383115127 L 1420 147.17246499675812 L 1440 149.71910839699333 L 1460 152.67497784529974 L 1480 156.00012673809636 L 1500 159.64961790647513 L 1500 500 L 0 500 Z" fill="#14f195" opacity="0.2"/><path d="M 0 260 L 0 249.3044316435738 L 20 231.26082189936284 L 40 215.51078005012639 L 60 203.31125889400698 L 80 195.63585725696123 L 100 193.09712065835356 L 120 195.89765631040052 L 140 203.813963783209 L 160 216.2142717504453 L 180 232.10895733069447 L 200 250.22952424268098 L 220 269.1298368188317 L 240 287.3015307636247 L 260 303.2943901494114 L 280 315.83208380528504 L 300 323.9140246043124 L 320 326.895222634784 L 340 324.53775946815927 L 360 317.0297755520746 L 380 304.9704554145502 L 400 289.32220895491537 L 420 271.3338650564037 L 440 252.44100715514938 L 460 234.15140461654258 L 480 217.92468321858917 L 500 205.0558377975617 L 520 196.5718834824142 L 540 193.1498934020828 L 560 195.0629639742064 L 580 202.15842008644609 L 600 213.86999953456456 L 620 229.26304432216455 L 640 247.10909227099182 L 660 265.98391606026934 L 680 284.3811855606247 L 700 300.8326824906078 L 720 314.02547350707454 L 740 322.90669057689894 L 760 326.76755649468146 L 780 325.2999497795357 L 800 318.6209947149927 L 820 307.2637140915571 L 840 292.13449062208565 L 860 274.44073187766344 L 880 255.59451153887824 L 900 237.09987699912762 L 920 220.43281688484754 L 940 206.92346784253016 L 960 197.64996123476925 L 980 193.35238144932683 L 1000 194.3737024914951 L 1020 200.63241649265737 L 1040 211.62903855291057 L 1060 226.48596879023142 L 1080 244.0175303529413 L 1100 262.8245939197981 L 1120 281.4062370550718 L 1140 298.2795272969607 L 1160 312.0978695324846 L 1180 321.7584727909976 L 1200 326.4903599275646 L 1220 325.9158964677039 L 1240 320.08092822314165 L 1260 309.4511225065291 L 1280 294.87480493929013 L 1300 277.51525771001434 L 1320 258.75788230989735 L 1340 240.09963574519182 L 1360 223.02956391510455 L 1380 208.90996634599284 L 1400 198.86767608649413 L 1420 193.7041313145043 L 1440 193.83141550964933 L 1460 199.23937058938068 L 1480 209.4964075881092 L 1500 223.78395018206288 L 1500 500 L 0 500 Z" fill="#1a1a2e" opacity="0.30000000000000004"/><path d="M 0 340 L 0 305.44379163451316 L 20 317.5550371128226 L 40 330.92345647229786 L 60 344.800265777065 L 80 358.40820545670005 L 100 370.9850757059411 L 120 381.82642836581203 L 140 390.3250240539622 L 160 396.00484449495764 L 180 398.54775497215735 L 200 397.81132349981254 L 220 393.8367986385448 L 240 386.8467991055578 L 260 377.23284458775896 L 280 365.5334261744516 L 300 352.40384471545116 L 320 338.57950650052794 L 340 324.8347321207012 L 360 311.939385684889 L 380 300.6157536503769 L 400 291.498088544348 L 420 285.09708358942567 L 440 281.77126805932687 L 460 281.7069255509116 L 480 284.90765997840487 L 500 291.1941937131014 L 520 300.2144091750321 L 540 311.46307143294626 L 560 324.31012712209616 L 580 338.03599461771074 L 600 351.87186881199943 L 620 365.04278296754387 L 640 376.81101569221426 L 660 386.5174117500095 L 680 393.6183022711947 L 700 397.71595640893696 L 720 398.58085880239935 L 740 396.1645650543119 L 760 390.602415169672 L 780 382.2059529720649 L 800 371.4454760967367 L 820 358.9236939598069 L 840 345.3419691577441 L 860 331.4610331637152 L 880 318.05837668980297 L 900 305.8847013407256 L 920 295.6218717630668 L 940 287.8447234491704 L 960 282.9888653942184 L 980 281.32628102487195 L 1000 282.9500940257137 L 1020 287.76935235094095 L 1040 295.51412257613595 L 1060 305.7506092483193 L 1080 317.90545237826507 L 1100 331.297842138421 L 1120 345.17765197711975 L 1140 358.7674542598194 L 1160 371.30606508232296 L 1180 382.09117924985736 L 1200 390.5187073769792 L 1220 396.1166117821175 L 1240 398.5713459807993 L 1260 397.7454168644238 L 1280 393.685085882298 L 1300 386.6177778729156 L 1320 376.9393426794781 L 1340 365.1918830444541 L 1360 352.03339067393085 L 1380 338.20089119842055 L 1400 324.46916233260515 L 1420 311.6073374878487 L 1440 300.33582553006187 L 1460 291.28595966776027 L 1480 284.9646355927447 L 1500 281.7259195407868 L 1500 500 L 0 500 Z" fill="#9945ff" opacity="0.4"/><path d="M 0 420 L 0 465.6419794122119 L 20 457.9299895495457 L 40 449.21130248032966 L 60 439.7173202698319 L 80 429.7000220375788 L 100 419.42527619712246 L 120 409.1657840610243 L 140 399.19384209434224 L 160 389.7741149131481 L 180 381.15661083941575 L 200 373.57004644758894 L 220 367.2157762139347 L 240 362.2624483814357 L 260 358.8415288785386 L 280 357.0438120911184 L 300 356.9170110950172 L 320 358.4644913066265 L 340 361.6451811616058 L 360 366.37466219240656 L 380 372.5274095729298 L 400 379.94012366417917 L 420 388.41606413858705 L 440 397.73027165132356 L 460 407.63553847057403 L 480 417.86896960070334 L 500 428.15896025999467 L 520 438.2324045242136 L 540 447.8219438118905 L 560 456.6730628297798 L 580 464.5508446455024 L 600 471.2462056014597 L 620 476.5814445896036 L 640 480.4149594041486 L 660 482.64500499583664 L 680 483.2123938801921 L 700 482.10206702841754 L 720 479.343493548027 L 740 475.009888545319 L 760 469.2162699283479 L 780 462.11640572465046 L 800 453.8987329347539 L 820 444.7813562388908 L 840 435.0062592958966 L 860 424.8328822718017 L 880 414.53123605648403 L 900 404.3747359234775 L 920 394.63294483427103 L 940 385.56441898655316 L 960 377.40984549220667 L 980 370.38565431746287 L 1000 364.67827403026666 L 1020 360.43918381266036 L 1040 357.78089306238064 L 1060 356.773955288782 L 1080 357.44509555706736 L 1100 359.77650118019636 L 1120 363.7062944841698 L 1140 369.1301750990586 L 1160 375.9041881878455 L 1180 383.84854514171195 L 1200 392.75239533696237 L 1220 402.37942230671786 L 1240 412.4741157997782 L 1260 422.76855326037327 L 1280 432.9895107420256 L 1300 442.8657145252525 L 1320 452.1350409744302 L 1340 460.55147354292103 L 1360 467.8916322810747 L 1380 473.9607025478885 L 1400 478.5976055728034 L 1420 481.6792736361163 L 1440 483.1239164007432 L 1460 482.8931917038498 L 1480 480.99322319352046 L 1500 477.4744378014416 L 1500 500 L 0 500 Z" fill="#14f195" opacity="0.5"/>
  <text x="80" y="270" font-family="monospace" font-size="72" font-weight="bold" fill="#9945ff">Toly</text>
  <text x="80" y="320" font-family="monospace" font-size="24" fill="#888888">tech visionary blockchain</text>
  <circle cx="1350" cy="250" r="80" fill="#9945ff" opacity="0.3"/>
  <circle cx="1350" cy="250" r="50" fill="#14f195" opacity="0.5"/>
  <text x="1350" y="270" font-family="monospace" font-size="64" font-weight="bold" fill="#ffffff" text-anchor="middle">T</text>
</svg>