<?xml version="1.0" encoding="UTF-8"?>
<svg xmlns="http://www.w3.org/2000/svg" width="512" height="512" viewBox="0 0 512 512">
  <rect width="512" height="512" fill="#0a0a0f"/>
  <rect x="16" y="0" width="16" height="16" fill="#4ade80"/><rect x="480" y="0" width="16" height="16" fill="#4ade80"/><rect x="48" y="0" width="16" height="16" fill="#fbbf24"/><rect x="448" y="0" width="16" height="16" fill="#fbbf24"/><rect x="80" y="0" width="16" height="16" fill="#1e293b"/><rect x="416" y="0" width="16" height="16" fill="#1e293b"/><rect x="112" y="0" width="16" height="16" fill="#4ade80"/><rect x="384" y="0" width="16" height="16" fill="#4ade80"/><rect x="144" y="0" width="16" height="16" fill="#4ade80"/><rect x="352" y="0" width="16" height="16" fill="#4ade80"/><rect x="160" y="0" width="16" height="16" fill="#4ade80"/><rect x="336" y="0" width="16" height="16" fill="#4ade80"/><rect x="192" y="0" width="16" height="16" fill="#fbbf24"/><rect x="304" y="0" width="16" height="16" fill="#fbbf24"/><rect x="224" y="0" width="16" height="16" fill="#fbbf24"/><rect x="272" y="0" width="16" height="16" fill="#fbbf24"/><rect x="0" y="16" width="16" height="16" fill="#fbbf24"/><rect x="496" y="16" width="16" height="16" fill="#fbbf24"/><rect x="16" y="16" width="16" height="16" fill="#1e293b"/><rect x="480" y="16" width="16" height="16" fill="#1e293b"/><rect x="32" y="16" width="16" height="16" fill="#fbbf24"/><rect x="464" y="16" width="16" height="16" fill="#fbbf24"/><rect x="64" y="16" width="16" height="16" fill="#fbbf24"/><rect x="432" y="16" width="16" height="16" fill="#fbbf24"/><rect x="80" y="16" width="16" height="16" fill="#fbbf24"/><rect x="416" y="16" width="16" height="16" fill="#fbbf24"/><rect x="144" y="16" width="16" height="16" fill="#1e293b"/><rect x="352" y="16" width="16" height="16" fill="#1e293b"/><rect x="208" y="16" width="16" height="16" fill="#1e293b"/><rect x="288" y="16" width="16" height="16" fill="#1e293b"/><rect x="224" y="16" width="16" height="16" fill="#4ade80"/><rect x="272" y="16" width="16" height="16" fill="#4ade80"/><rect x="48" y="32" width="16" height="16" fill="#fbbf24"/><rect x="448" y="32" width="16" height="16" fill="#fbbf24"/><rect x="64" y="32" width="16" height="16" fill="#4ade80"/><rect x="432" y="32" width="16" height="16" fill="#4ade80"/><rect x="128" y="32" width="16" height="16" fill="#fbbf24"/><rect x="368" y="32" width="16" height="16" fill="#fbbf24"/><rect x="144" y="32" width="16" height="16" fill="#4ade80"/><rect x="352" y="32" width="16" height="16" fill="#4ade80"/><rect x="176" y="32" width="16" height="16" fill="#4ade80"/><rect x="320" y="32" width="16" height="16" fill="#4ade80"/><rect x="192" y="32" width="16" height="16" fill="#1e293b"/><rect x="304" y="32" width="16" height="16" fill="#1e293b"/><rect x="208" y="32" width="16" height="16" fill="#4ade80"/><rect x="288" y="32" width="16" height="16" fill="#4ade80"/><rect x="224" y="32" width="16" height="16" fill="#fbbf24"/><rect x="272" y="32" width="16" height="16" fill="#fbbf24"/><rect x="240" y="32" width="16" height="16" fill="#1e293b"/><rect x="256" y="32" width="16" height="16" fill="#1e293b"/><rect x="16" y="48" width="16" height="16" fill="#1e293b"/><rect x="480" y="48" width="16" height="16" fill="#1e293b"/><rect x="64" y="48" width="16" height="16" fill="#1e293b"/><rect x="432" y="48" width="16" height="16" fill="#1e293b"/><rect x="80" y="48" width="16" height="16" fill="#fbbf24"/><rect x="416" y="48" width="16" height="16" fill="#fbbf24"/><rect x="96" y="48" width="16" height="16" fill="#4ade80"/><rect x="400" y="48" width="16" height="16" fill="#4ade80"/><rect x="144" y="48" width="16" height="16" fill="#4ade80"/><rect x="352" y="48" width="16" height="16" fill="#4ade80"/><rect x="176" y="48" width="16" height="16" fill="#1e293b"/><rect x="320" y="48" width="16" height="16" fill="#1e293b"/><rect x="208" y="48" width="16" height="16" fill="#fbbf24"/><rect x="288" y="48" width="16" height="16" fill="#fbbf24"/><rect x="0" y="64" width="16" height="16" fill="#4ade80"/><rect x="496" y="64" width="16" height="16" fill="#4ade80"/><rect x="16" y="64" width="16" height="16" fill="#4ade80"/><rect x="480" y="64" width="16" height="16" fill="#4ade80"/><rect x="48" y="64" width="16" height="16" fill="#fbbf24"/><rect x="448" y="64" width="16" height="16" fill="#fbbf24"/><rect x="64" y="64" width="16" height="16" fill="#fbbf24"/><rect x="432" y="64" width="16" height="16" fill="#fbbf24"/><rect x="80" y="64" width="16" height="16" fill="#1e293b"/><rect x="416" y="64" width="16" height="16" fill="#1e293b"/><rect x="112" y="64" width="16" height="16" fill="#fbbf24"/><rect x="384" y="64" width="16" height="16" fill="#fbbf24"/><rect x="128" y="64" width="16" height="16" fill="#4ade80"/><rect x="368" y="64" width="16" height="16" fill="#4ade80"/><rect x="144" y="64" width="16" height="16" fill="#1e293b"/><rect x="352" y="64" width="16" height="16" fill="#1e293b"/><rect x="176" y="64" width="16" height="16" fill="#fbbf24"/><rect x="320" y="64" width="16" height="16" fill="#fbbf24"/><rect x="192" y="64" width="16" height="16" fill="#4ade80"/><rect x="304" y="64" width="16" height="16" fill="#4ade80"/><rect x="208" y="64" width="16" height="16" fill="#fbbf24"/><rect x="288" y="64" width="16" height="16" fill="#fbbf24"/><rect x="0" y="80" width="16" height="16" fill="#fbbf24"/><rect x="496" y="80" width="16" height="16" fill="#fbbf24"/><rect x="32" y="80" width="16" height="16" fill="#fbbf24"/><rect x="464" y="80" width="16" height="16" fill="#fbbf24"/><rect x="48" y="80" width="16" height="16" fill="#fbbf24"/><rect x="448" y="80" width="16" height="16" fill="#fbbf24"/><rect x="80" y="80" width="16" height="16" fill="#4ade80"/><rect x="416" y="80" width="16" height="16" fill="#4ade80"/><rect x="96" y="80" width="16" height="16" fill="#fbbf24"/><rect x="400" y="80" width="16" height="16" fill="#fbbf24"/><rect x="128" y="80" width="16" height="16" fill="#4ade80"/><rect x="368" y="80" width="16" height="16" fill="#4ade80"/><rect x="160" y="80" width="16" height="16" fill="#4ade80"/><rect x="336" y="80" width="16" height="16" fill="#4ade80"/><rect x="192" y="80" width="16" height="16" fill="#1e293b"/><rect x="304" y="80" width="16" height="16" fill="#1e293b"/><rect x="240" y="80" width="16" height="16" fill="#4ade80"/><rect x="256" y="80" width="16" height="16" fill="#4ade80"/><rect x="64" y="96" width="16" height="16" fill="#fbbf24"/><rect x="432" y="96" width="16" height="16" fill="#fbbf24"/><rect x="112" y="96" width="16" height="16" fill="#1e293b"/><rect x="384" y="96" width="16" height="16" fill="#1e293b"/><rect x="160" y="96" width="16" height="16" fill="#fbbf24"/><rect x="336" y="96" width="16" height="16" fill="#fbbf24"/><rect x="192" y="96" width="16" height="16" fill="#4ade80"/><rect x="304" y="96" width="16" height="16" fill="#4ade80"/><rect x="208" y="96" width="16" height="16" fill="#1e293b"/><rect x="288" y="96" width="16" height="16" fill="#1e293b"/><rect x="240" y="96" width="16" height="16" fill="#fbbf24"/><rect x="256" y="96" width="16" height="16" fill="#fbbf24"/><rect x="16" y="112" width="16" height="16" fill="#1e293b"/><rect x="480" y="112" width="16" height="16" fill="#1e293b"/><rect x="32" y="112" width="16" height="16" fill="#1e293b"/><rect x="464" y="112" width="16" height="16" fill="#1e293b"/><rect x="48" y="112" width="16" height="16" fill="#4ade80"/><rect x="448" y="112" width="16" height="16" fill="#4ade80"/><rect x="64" y="112" width="16" height="16" fill="#4ade80"/><rect x="432" y="112" width="16" height="16" fill="#4ade80"/><rect x="80" y="112" width="16" height="16" fill="#fbbf24"/><rect x="416" y="112" width="16" height="16" fill="#fbbf24"/><rect x="112" y="112" width="16" height="16" fill="#4ade80"/><rect x="384" y="112" width="16" height="16" fill="#4ade80"/><rect x="176" y="112" width="16" height="16" fill="#4ade80"/><rect x="320" y="112" width="16" height="16" fill="#4ade80"/><rect x="192" y="112" width="16" height="16" fill="#1e293b"/><rect x="304" y="112" width="16" height="16" fill="#1e293b"/><rect x="224" y="112" width="16" height="16" fill="#fbbf24"/><rect x="272" y="112" width="16" height="16" fill="#fbbf24"/><rect x="240" y="112" width="16" height="16" fill="#1e293b"/><rect x="256" y="112" width="16" height="16" fill="#1e293b"/><rect x="0" y="128" width="16" height="16" fill="#4ade80"/><rect x="496" y="128" width="16" height="16" fill="#4ade80"/><rect x="16" y="128" width="16" height="16" fill="#fbbf24"/><rect x="480" y="128" width="16" height="16" fill="#fbbf24"/><rect x="32" y="128" width="16" height="16" fill="#fbbf24"/><rect x="464" y="128" width="16" height="16" fill="#fbbf24"/><rect x="64" y="128" width="16" height="16" fill="#fbbf24"/><rect x="432" y="128" width="16" height="16" fill="#fbbf24"/><rect x="80" y="128" width="16" height="16" fill="#4ade80"/><rect x="416" y="128" width="16" height="16" fill="#4ade80"/><rect x="112" y="128" width="16" height="16" fill="#fbbf24"/><rect x="384" y="128" width="16" height="16" fill="#fbbf24"/><rect x="128" y="128" width="16" height="16" fill="#4ade80"/><rect x="368" y="128" width="16" height="16" fill="#4ade80"/><rect x="144" y="128" width="16" height="16" fill="#fbbf24"/><rect x="352" y="128" width="16" height="16" fill="#fbbf24"/><rect x="176" y="128" width="16" height="16" fill="#1e293b"/><rect x="320" y="128" width="16" height="16" fill="#1e293b"/><rect x="192" y="128" width="16" height="16" fill="#4ade80"/><rect x="304" y="128" width="16" height="16" fill="#4ade80"/><rect x="224" y="128" width="16" height="16" fill="#4ade80"/><rect x="272" y="128" width="16" height="16" fill="#4ade80"/><rect x="240" y="128" width="16" height="16" fill="#4ade80"/><rect x="256" y="128" width="16" height="16" fill="#4ade80"/><rect x="0" y="144" width="16" height="16" fill="#fbbf24"/><rect x="496" y="144" width="16" height="16" fill="#fbbf24"/><rect x="48" y="144" width="16" height="16" fill="#1e293b"/><rect x="448" y="144" width="16" height="16" fill="#1e293b"/><rect x="64" y="144" width="16" height="16" fill="#4ade80"/><rect x="432" y="144" width="16" height="16" fill="#4ade80"/><rect x="80" y="144" width="16" height="16" fill="#fbbf24"/><rect x="416" y="144" width="16" height="16" fill="#fbbf24"/><rect x="96" y="144" width="16" height="16" fill="#4ade80"/><rect x="400" y="144" width="16" height="16" fill="#4ade80"/><rect x="160" y="144" width="16" height="16" fill="#fbbf24"/><rect x="336" y="144" width="16" height="16" fill="#fbbf24"/><rect x="192" y="144" width="16" height="16" fill="#1e293b"/><rect x="304" y="144" width="16" height="16" fill="#1e293b"/><rect x="208" y="144" width="16" height="16" fill="#1e293b"/><rect x="288" y="144" width="16" height="16" fill="#1e293b"/><rect x="224" y="144" width="16" height="16" fill="#4ade80"/><rect x="272" y="144" width="16" height="16" fill="#4ade80"/><rect x="240" y="144" width="16" height="16" fill="#1e293b"/><rect x="256" y="144" width="16" height="16" fill="#1e293b"/><rect x="16" y="160" width="16" height="16" fill="#fbbf24"/><rect x="480" y="160" width="16" height="16" fill="#fbbf24"/><rect x="32" y="160" width="16" height="16" fill="#4ade80"/><rect x="464" y="160" width="16" height="16" fill="#4ade80"/><rect x="48" y="160" width="16" height="16" fill="#4ade80"/><rect x="448" y="160" width="16" height="16" fill="#4ade80"/><rect x="64" y="160" width="16" height="16" fill="#4ade80"/><rect x="432" y="160" width="16" height="16" fill="#4ade80"/><rect x="112" y="160" width="16" height="16" fill="#fbbf24"/><rect x="384" y="160" width="16" height="16" fill="#fbbf24"/><rect x="128" y="160" width="16" height="16" fill="#4ade80"/><rect x="368" y="160" width="16" height="16" fill="#4ade80"/><rect x="160" y="160" width="16" height="16" fill="#fbbf24"/><rect x="336" y="160" width="16" height="16" fill="#fbbf24"/><rect x="176" y="160" width="16" height="16" fill="#4ade80"/><rect x="320" y="160" width="16" height="16" fill="#4ade80"/><rect x="208" y="160" width="16" height="16" fill="#4ade80"/><rect x="288" y="160" width="16" height="16" fill="#4ade80"/><rect x="224" y="160" width="16" height="16" fill="#1e293b"/><rect x="272" y="160" width="16" height="16" fill="#1e293b"/><rect x="0" y="176" width="16" height="16" fill="#4ade80"/><rect x="496" y="176" width="16" height="16" fill="#4ade80"/><rect x="32" y="176" width="16" height="16" fill="#4ade80"/><rect x="464" y="176" width="16" height="16" fill="#4ade80"/><rect x="80" y="176" width="16" height="16" fill="#fbbf24"/><rect x="416" y="176" width="16" height="16" fill="#fbbf24"/><rect x="112" y="176" width="16" height="16" fill="#fbbf24"/><rect x="384" y="176" width="16" height="16" fill="#fbbf24"/><rect x="128" y="176" width="16" height="16" fill="#fbbf24"/><rect x="368" y="176" width="16" height="16" fill="#fbbf24"/><rect x="144" y="176" width="16" height="16" fill="#4ade80"/><rect x="352" y="176" width="16" height="16" fill="#4ade80"/><rect x="160" y="176" width="16" height="16" fill="#1e293b"/><rect x="336" y="176" width="16" height="16" fill="#1e293b"/><rect x="192" y="176" width="16" height="16" fill="#4ade80"/><rect x="304" y="176" width="16" height="16" fill="#4ade80"/><rect x="208" y="176" width="16" height="16" fill="#4ade80"/><rect x="288" y="176" width="16" height="16" fill="#4ade80"/><rect x="224" y="176" width="16" height="16" fill="#4ade80"/><rect x="272" y="176" width="16" height="16" fill="#4ade80"/><rect x="240" y="176" width="16" height="16" fill="#fbbf24"/><rect x="256" y="176" width="16" height="16" fill="#fbbf24"/><rect x="0" y="192" width="16" height="16" fill="#4ade80"/><rect x="496" y="192" width="16" height="16" fill="#4ade80"/><rect x="16" y="192" width="16" height="16" fill="#4ade80"/><rect x="480" y="192" width="16" height="16" fill="#4ade80"/><rect x="48" y="192" width="16" height="16" fill="#fbbf24"/><rect x="448" y="192" width="16" height="16" fill="#fbbf24"/><rect x="64" y="192" width="16" height="16" fill="#fbbf24"/><rect x="432" y="192" width="16" height="16" fill="#fbbf24"/><rect x="96" y="192" width="16" height="16" fill="#fbbf24"/><rect x="400" y="192" width="16" height="16" fill="#fbbf24"/><rect x="128" y="192" width="16" height="16" fill="#fbbf24"/><rect x="368" y="192" width="16" height="16" fill="#fbbf24"/><rect x="176" y="192" width="16" height="16" fill="#4ade80"/><rect x="320" y="192" width="16" height="16" fill="#4ade80"/><rect x="208" y="192" width="16" height="16" fill="#4ade80"/><rect x="288" y="192" width="16" height="16" fill="#4ade80"/><rect x="224" y="192" width="16" height="16" fill="#4ade80"/><rect x="272" y="192" width="16" height="16" fill="#4ade80"/><rect x="240" y="192" width="16" height="16" fill="#4ade80"/><rect x="256" y="192" width="16" height="16" fill="#4ade80"/><rect x="16" y="208" width="16" height="16" fill="#1e293b"/><rect x="480" y="208" width="16" height="16" fill="#1e293b"/><rect x="32" y="208" width="16" height="16" fill="#4ade80"/><rect x="464" y="208" width="16" height="16" fill="#4ade80"/><rect x="64" y="208" width="16" height="16" fill="#fbbf24"/><rect x="432" y="208" width="16" height="16" fill="#fbbf24"/><rect x="80" y="208" width="16" height="16" fill="#1e293b"/><rect x="416" y="208" width="16" height="16" fill="#1e293b"/><rect x="160" y="208" width="16" height="16" fill="#4ade80"/><rect x="336" y="208" width="16" height="16" fill="#4ade80"/><rect x="192" y="208" width="16" height="16" fill="#4ade80"/><rect x="304" y="208" width="16" height="16" fill="#4ade80"/><rect x="208" y="208" width="16" height="16" fill="#4ade80"/><rect x="288" y="208" width="16" height="16" fill="#4ade80"/><rect x="240" y="208" width="16" height="16" fill="#4ade80"/><rect x="256" y="208" width="16" height="16" fill="#4ade80"/><rect x="0" y="224" width="16" height="16" fill="#4ade80"/><rect x="496" y="224" width="16" height="16" fill="#4ade80"/><rect x="32" y="224" width="16" height="16" fill="#4ade80"/><rect x="464" y="224" width="16" height="16" fill="#4ade80"/><rect x="48" y="224" width="16" height="16" fill="#4ade80"/><rect x="448" y="224" width="16" height="16" fill="#4ade80"/><rect x="80" y="224" width="16" height="16" fill="#1e293b"/><rect x="416" y="224" width="16" height="16" fill="#1e293b"/><rect x="96" y="224" width="16" height="16" fill="#4ade80"/><rect x="400" y="224" width="16" height="16" fill="#4ade80"/><rect x="112" y="224" width="16" height="16" fill="#4ade80"/><rect x="384" y="224" width="16" height="16" fill="#4ade80"/><rect x="128" y="224" width="16" height="16" fill="#fbbf24"/><rect x="368" y="224" width="16" height="16" fill="#fbbf24"/><rect x="160" y="224" width="16" height="16" fill="#fbbf24"/><rect x="336" y="224" width="16" height="16" fill="#fbbf24"/><rect x="176" y="224" width="16" height="16" fill="#fbbf24"/><rect x="320" y="224" width="16" height="16" fill="#fbbf24"/><rect x="208" y="224" width="16" height="16" fill="#4ade80"/><rect x="288" y="224" width="16" height="16" fill="#4ade80"/><rect x="224" y="224" width="16" height="16" fill="#4ade80"/><rect x="272" y="224" width="16" height="16" fill="#4ade80"/><rect x="16" y="240" width="16" height="16" fill="#4ade80"/><rect x="480" y="240" width="16" height="16" fill="#4ade80"/><rect x="32" y="240" width="16" height="16" fill="#fbbf24"/><rect x="464" y="240" width="16" height="16" fill="#fbbf24"/><rect x="48" y="240" width="16" height="16" fill="#4ade80"/><rect x="448" y="240" width="16" height="16" fill="#4ade80"/><rect x="64" y="240" width="16" height="16" fill="#4ade80"/><rect x="432" y="240" width="16" height="16" fill="#4ade80"/><rect x="80" y="240" width="16" height="16" fill="#4ade80"/><rect x="416" y="240" width="16" height="16" fill="#4ade80"/><rect x="96" y="240" width="16" height="16" fill="#1e293b"/><rect x="400" y="240" width="16" height="16" fill="#1e293b"/><rect x="112" y="240" width="16" height="16" fill="#4ade80"/><rect x="384" y="240" width="16" height="16" fill="#4ade80"/><rect x="128" y="240" width="16" height="16" fill="#4ade80"/><rect x="368" y="240" width="16" height="16" fill="#4ade80"/><rect x="144" y="240" width="16" height="16" fill="#4ade80"/><rect x="352" y="240" width="16" height="16" fill="#4ade80"/><rect x="176" y="240" width="16" height="16" fill="#4ade80"/><rect x="320" y="240" width="16" height="16" fill="#4ade80"/><rect x="192" y="240" width="16" height="16" fill="#fbbf24"/><rect x="304" y="240" width="16" height="16" fill="#fbbf24"/><rect x="224" y="240" width="16" height="16" fill="#fbbf24"/><rect x="272" y="240" width="16" height="16" fill="#fbbf24"/><rect x="0" y="256" width="16" height="16" fill="#fbbf24"/><rect x="496" y="256" width="16" height="16" fill="#fbbf24"/><rect x="64" y="256" width="16" height="16" fill="#fbbf24"/><rect x="432" y="256" width="16" height="16" fill="#fbbf24"/><rect x="80" y="256" width="16" height="16" fill="#1e293b"/><rect x="416" y="256" width="16" height="16" fill="#1e293b"/><rect x="96" y="256" width="16" height="16" fill="#fbbf24"/><rect x="400" y="256" width="16" height="16" fill="#fbbf24"/><rect x="160" y="256" width="16" height="16" fill="#1e293b"/><rect x="336" y="256" width="16" height="16" fill="#1e293b"/><rect x="192" y="256" width="16" height="16" fill="#4ade80"/><rect x="304" y="256" width="16" height="16" fill="#4ade80"/><rect x="224" y="256" width="16" height="16" fill="#4ade80"/><rect x="272" y="256" width="16" height="16" fill="#4ade80"/><rect x="240" y="256" width="16" height="16" fill="#1e293b"/><rect x="256" y="256" width="16" height="16" fill="#1e293b"/><rect x="0" y="272" width="16" height="16" fill="#4ade80"/><rect x="496" y="272" width="16" height="16" fill="#4ade80"/><rect x="48" y="272" width="16" height="16" fill="#1e293b"/><rect x="448" y="272" width="16" height="16" fill="#1e293b"/><rect x="64" y="272" width="16" height="16" fill="#fbbf24"/><rect x="432" y="272" width="16" height="16" fill="#fbbf24"/><rect x="80" y="272" width="16" height="16" fill="#4ade80"/><rect x="416" y="272" width="16" height="16" fill="#4ade80"/><rect x="96" y="272" width="16" height="16" fill="#4ade80"/><rect x="400" y="272" width="16" height="16" fill="#4ade80"/><rect x="112" y="272" width="16" height="16" fill="#fbbf24"/><rect x="384" y="272" width="16" height="16" fill="#fbbf24"/><rect x="128" y="272" width="16" height="16" fill="#4ade80"/><rect x="368" y="272" width="16" height="16" fill="#4ade80"/><rect x="144" y="272" width="16" height="16" fill="#fbbf24"/><rect x="352" y="272" width="16" height="16" fill="#fbbf24"/><rect x="176" y="272" width="16" height="16" fill="#4ade80"/><rect x="320" y="272" width="16" height="16" fill="#4ade80"/><rect x="208" y="272" width="16" height="16" fill="#fbbf24"/><rect x="288" y="272" width="16" height="16" fill="#fbbf24"/><rect x="224" y="272" width="16" height="16" fill="#4ade80"/><rect x="272" y="272" width="16" height="16" fill="#4ade80"/><rect x="240" y="272" width="16" height="16" fill="#4ade80"/><rect x="256" y="272" width="16" height="16" fill="#4ade80"/><rect x="0" y="288" width="16" height="16" fill="#4ade80"/><rect x="496" y="288" width="16" height="16" fill="#4ade80"/><rect x="16" y="288" width="16" height="16" fill="#1e293b"/><rect x="480" y="288" width="16" height="16" fill="#1e293b"/><rect x="48" y="288" width="16" height="16" fill="#4ade80"/><rect x="448" y="288" width="16" height="16" fill="#4ade80"/><rect x="64" y="288" width="16" height="16" fill="#fbbf24"/><rect x="432" y="288" width="16" height="16" fill="#fbbf24"/><rect x="80" y="288" width="16" height="16" fill="#4ade80"/><rect x="416" y="288" width="16" height="16" fill="#4ade80"/><rect x="96" y="288" width="16" height="16" fill="#1e293b"/><rect x="400" y="288" width="16" height="16" fill="#1e293b"/><rect x="144" y="288" width="16" height="16" fill="#fbbf24"/><rect x="352" y="288" width="16" height="16" fill="#fbbf24"/><rect x="160" y="288" width="16" height="16" fill="#4ade80"/><rect x="336" y="288" width="16" height="16" fill="#4ade80"/><rect x="176" y="288" width="16" height="16" fill="#4ade80"/><rect x="320" y="288" width="16" height="16" fill="#4ade80"/><rect x="192" y="288" width="16" height="16" fill="#4ade80"/><rect x="304" y="288" width="16" height="16" fill="#4ade80"/><rect x="224" y="288" width="16" height="16" fill="#4ade80"/><rect x="272" y="288" width="16" height="16" fill="#4ade80"/><rect x="0" y="304" width="16" height="16" fill="#4ade80"/><rect x="496" y="304" width="16" height="16" fill="#4ade80"/><rect x="64" y="304" width="16" height="16" fill="#fbbf24"/><rect x="432" y="304" width="16" height="16" fill="#fbbf24"/><rect x="80" y="304" width="16" height="16" fill="#4ade80"/><rect x="416" y="304" width="16" height="16" fill="#4ade80"/><rect x="96" y="304" width="16" height="16" fill="#4ade80"/><rect x="400" y="304" width="16" height="16" fill="#4ade80"/><rect x="128" y="304" width="16" height="16" fill="#4ade80"/><rect x="368" y="304" width="16" height="16" fill="#4ade80"/><rect x="144" y="304" width="16" height="16" fill="#fbbf24"/><rect x="352" y="304" width="16" height="16" fill="#fbbf24"/><rect x="160" y="304" width="16" height="16" fill="#1e293b"/><rect x="336" y="304" width="16" height="16" fill="#1e293b"/><rect x="176" y="304" width="16" height="16" fill="#fbbf24"/><rect x="320" y="304" width="16" height="16" fill="#fbbf24"/><rect x="192" y="304" width="16" height="16" fill="#fbbf24"/><rect x="304" y="304" width="16" height="16" fill="#fbbf24"/><rect x="208" y="304" width="16" height="16" fill="#fbbf24"/><rect x="288" y="304" width="16" height="16" fill="#fbbf24"/><rect x="240" y="304" width="16" height="16" fill="#4ade80"/><rect x="256" y="304" width="16" height="16" fill="#4ade80"/><rect x="0" y="320" width="16" height="16" fill="#fbbf24"/><rect x="496" y="320" width="16" height="16" fill="#fbbf24"/><rect x="48" y="320" width="16" height="16" fill="#1e293b"/><rect x="448" y="320" width="16" height="16" fill="#1e293b"/><rect x="96" y="320" width="16" height="16" fill="#1e293b"/><rect x="400" y="320" width="16" height="16" fill="#1e293b"/><rect x="112" y="320" width="16" height="16" fill="#4ade80"/><rect x="384" y="320" width="16" height="16" fill="#4ade80"/><rect x="176" y="320" width="16" height="16" fill="#4ade80"/><rect x="320" y="320" width="16" height="16" fill="#4ade80"/><rect x="224" y="320" width="16" height="16" fill="#1e293b"/><rect x="272" y="320" width="16" height="16" fill="#1e293b"/><rect x="240" y="320" width="16" height="16" fill="#1e293b"/><rect x="256" y="320" width="16" height="16" fill="#1e293b"/><rect x="0" y="336" width="16" height="16" fill="#4ade80"/><rect x="496" y="336" width="16" height="16" fill="#4ade80"/><rect x="32" y="336" width="16" height="16" fill="#fbbf24"/><rect x="464" y="336" width="16" height="16" fill="#fbbf24"/><rect x="64" y="336" width="16" height="16" fill="#4ade80"/><rect x="432" y="336" width="16" height="16" fill="#4ade80"/><rect x="96" y="336" width="16" height="16" fill="#4ade80"/><rect x="400" y="336" width="16" height="16" fill="#4ade80"/><rect x="112" y="336" width="16" height="16" fill="#4ade80"/><rect x="384" y="336" width="16" height="16" fill="#4ade80"/><rect x="128" y="336" width="16" height="16" fill="#4ade80"/><rect x="368" y="336" width="16" height="16" fill="#4ade80"/><rect x="144" y="336" width="16" height="16" fill="#4ade80"/><rect x="352" y="336" width="16" height="16" fill="#4ade80"/><rect x="160" y="336" width="16" height="16" fill="#4ade80"/><rect x="336" y="336" width="16" height="16" fill="#4ade80"/><rect x="192" y="336" width="16" height="16" fill="#4ade80"/><rect x="304" y="336" width="16" height="16" fill="#4ade80"/><rect x="224" y="336" width="16" height="16" fill="#4ade80"/><rect x="272" y="336" width="16" height="16" fill="#4ade80"/><rect x="240" y="336" width="16" height="16" fill="#4ade80"/><rect x="256" y="336" width="16" height="16" fill="#4ade80"/><rect x="0" y="352" width="16" height="16" fill="#fbbf24"/><rect x="496" y="352" width="16" height="16" fill="#fbbf24"/><rect x="48" y="352" width="16" height="16" fill="#1e293b"/><rect x="448" y="352" width="16" height="16" fill="#1e293b"/><rect x="64" y="352" width="16" height="16" fill="#4ade80"/><rect x="432" y="352" width="16" height="16" fill="#4ade80"/><rect x="80" y="352" width="16" height="16" fill="#4ade80"/><rect x="416" y="352" width="16" height="16" fill="#4ade80"/><rect x="96" y="352" width="16" height="16" fill="#1e293b"/><rect x="400" y="352" width="16" height="16" fill="#1e293b"/><rect x="112" y="352" width="16" height="16" fill="#fbbf24"/><rect x="384" y="352" width="16" height="16" fill="#fbbf24"/><rect x="128" y="352" width="16" height="16" fill="#1e293b"/><rect x="368" y="352" width="16" height="16" fill="#1e293b"/><rect x="160" y="352" width="16" height="16" fill="#fbbf24"/><rect x="336" y="352" width="16" height="16" fill="#fbbf24"/><rect x="176" y="352" width="16" height="16" fill="#1e293b"/><rect x="320" y="352" width="16" height="16" fill="#1e293b"/><rect x="192" y="352" width="16" height="16" fill="#4ade80"/><rect x="304" y="352" width="16" height="16" fill="#4ade80"/><rect x="208" y="352" width="16" height="16" fill="#1e293b"/><rect x="288" y="352" width="16" height="16" fill="#1e293b"/><rect x="224" y="352" width="16" height="16" fill="#4ade80"/><rect x="272" y="352" width="16" height="16" fill="#4ade80"/><rect x="240" y="352" width="16" height="16" fill="#1e293b"/><rect x="256" y="352" width="16" height="16" fill="#1e293b"/><rect x="0" y="368" width="16" height="16" fill="#4ade80"/><rect x="496" y="368" width="16" height="16" fill="#4ade80"/><rect x="32" y="368" width="16" height="16" fill="#1e293b"/><rect x="464" y="368" width="16" height="16" fill="#1e293b"/><rect x="48" y="368" width="16" height="16" fill="#fbbf24"/><rect x="448" y="368" width="16" height="16" fill="#fbbf24"/><rect x="80" y="368" width="16" height="16" fill="#4ade80"/><rect x="416" y="368" width="16" height="16" fill="#4ade80"/><rect x="128" y="368" width="16" height="16" fill="#4ade80"/><rect x="368" y="368" width="16" height="16" fill="#4ade80"/><rect x="144" y="368" width="16" height="16" fill="#fbbf24"/><rect x="352" y="368" width="16" height="16" fill="#fbbf24"/><rect x="160" y="368" width="16" height="16" fill="#4ade80"/><rect x="336" y="368" width="16" height="16" fill="#4ade80"/><rect x="192" y="368" width="16" height="16" fill="#fbbf24"/><rect x="304" y="368" width="16" height="16" fill="#fbbf24"/><rect x="208" y="368" width="16" height="16" fill="#4ade80"/><rect x="288" y="368" width="16" height="16" fill="#4ade80"/><rect x="224" y="368" width="16" height="16" fill="#1e293b"/><rect x="272" y="368" width="16" height="16" fill="#1e293b"/><rect x="0" y="384" width="16" height="16" fill="#fbbf24"/><rect x="496" y="384" width="16" height="16" fill="#fbbf24"/><rect x="16" y="384" width="16" height="16" fill="#4ade80"/><rect x="480" y="384" width="16" height="16" fill="#4ade80"/><rect x="32" y="384" width="16" height="16" fill="#4ade80"/><rect x="464" y="384" width="16" height="16" fill="#4ade80"/><rect x="48" y="384" width="16" height="16" fill="#4ade80"/><rect x="448" y="384" width="16" height="16" fill="#4ade80"/><rect x="64" y="384" width="16" height="16" fill="#1e293b"/><rect x="432" y="384" width="16" height="16" fill="#1e293b"/><rect x="80" y="384" width="16" height="16" fill="#4ade80"/><rect x="416" y="384" width="16" height="16" fill="#4ade80"/><rect x="96" y="384" width="16" height="16" fill="#fbbf24"/><rect x="400" y="384" width="16" height="16" fill="#fbbf24"/><rect x="112" y="384" width="16" height="16" fill="#1e293b"/><rect x="384" y="384" width="16" height="16" fill="#1e293b"/><rect x="128" y="384" width="16" height="16" fill="#4ade80"/><rect x="368" y="384" width="16" height="16" fill="#4ade80"/><rect x="160" y="384" width="16" height="16" fill="#fbbf24"/><rect x="336" y="384" width="16" height="16" fill="#fbbf24"/><rect x="176" y="384" width="16" height="16" fill="#fbbf24"/><rect x="320" y="384" width="16" height="16" fill="#fbbf24"/><rect x="192" y="384" width="16" height="16" fill="#fbbf24"/><rect x="304" y="384" width="16" height="16" fill="#fbbf24"/><rect x="0" y="400" width="16" height="16" fill="#1e293b"/><rect x="496" y="400" width="16" height="16" fill="#1e293b"/><rect x="32" y="400" width="16" height="16" fill="#4ade80"/><rect x="464" y="400" width="16" height="16" fill="#4ade80"/><rect x="64" y="400" width="16" height="16" fill="#fbbf24"/><rect x="432" y="400" width="16" height="16" fill="#fbbf24"/><rect x="80" y="400" width="16" height="16" fill="#4ade80"/><rect x="416" y="400" width="16" height="16" fill="#4ade80"/><rect x="112" y="400" width="16" height="16" fill="#4ade80"/><rect x="384" y="400" width="16" height="16" fill="#4ade80"/><rect x="128" y="400" width="16" height="16" fill="#4ade80"/><rect x="368" y="400" width="16" height="16" fill="#4ade80"/><rect x="144" y="400" width="16" height="16" fill="#1e293b"/><rect x="352" y="400" width="16" height="16" fill="#1e293b"/><rect x="192" y="400" width="16" height="16" fill="#4ade80"/><rect x="304" y="400" width="16" height="16" fill="#4ade80"/><rect x="208" y="400" width="16" height="16" fill="#fbbf24"/><rect x="288" y="400" width="16" height="16" fill="#fbbf24"/><rect x="224" y="400" width="16" height="16" fill="#fbbf24"/><rect x="272" y="400" width="16" height="16" fill="#fbbf24"/><rect x="0" y="416" width="16" height="16" fill="#1e293b"/><rect x="496" y="416" width="16" height="16" fill="#1e293b"/><rect x="16" y="416" width="16" height="16" fill="#4ade80"/><rect x="480" y="416" width="16" height="16" fill="#4ade80"/><rect x="32" y="416" width="16" height="16" fill="#fbbf24"/><rect x="464" y="416" width="16" height="16" fill="#fbbf24"/><rect x="48" y="416" width="16" height="16" fill="#fbbf24"/><rect x="448" y="416" width="16" height="16" fill="#fbbf24"/><rect x="64" y="416" width="16" height="16" fill="#4ade80"/><rect x="432" y="416" width="16" height="16" fill="#4ade80"/><rect x="112" y="416" width="16" height="16" fill="#1e293b"/><rect x="384" y="416" width="16" height="16" fill="#1e293b"/><rect x="128" y="416" width="16" height="16" fill="#1e293b"/><rect x="368" y="416" width="16" height="16" fill="#1e293b"/><rect x="144" y="416" width="16" height="16" fill="#1e293b"/><rect x="352" y="416" width="16" height="16" fill="#1e293b"/><rect x="160" y="416" width="16" height="16" fill="#4ade80"/><rect x="336" y="416" width="16" height="16" fill="#4ade80"/><rect x="240" y="416" width="16" height="16" fill="#1e293b"/><rect x="256" y="416" width="16" height="16" fill="#1e293b"/><rect x="0" y="432" width="16" height="16" fill="#1e293b"/><rect x="496" y="432" width="16" height="16" fill="#1e293b"/><rect x="16" y="432" width="16" height="16" fill="#4ade80"/><rect x="480" y="432" width="16" height="16" fill="#4ade80"/><rect x="32" y="432" width="16" height="16" fill="#1e293b"/><rect x="464" y="432" width="16" height="16" fill="#1e293b"/><rect x="64" y="432" width="16" height="16" fill="#4ade80"/><rect x="432" y="432" width="16" height="16" fill="#4ade80"/><rect x="80" y="432" width="16" height="16" fill="#4ade80"/><rect x="416" y="432" width="16" height="16" fill="#4ade80"/><rect x="112" y="432" width="16" height="16" fill="#fbbf24"/><rect x="384" y="432" width="16" height="16" fill="#fbbf24"/><rect x="128" y="432" width="16" height="16" fill="#fbbf24"/><rect x="368" y="432" width="16" height="16" fill="#fbbf24"/><rect x="160" y="432" width="16" height="16" fill="#1e293b"/><rect x="336" y="432" width="16" height="16" fill="#1e293b"/><rect x="176" y="432" width="16" height="16" fill="#4ade80"/><rect x="320" y="432" width="16" height="16" fill="#4ade80"/><rect x="208" y="432" width="16" height="16" fill="#4ade80"/><rect x="288" y="432" width="16" height="16" fill="#4ade80"/><rect x="240" y="432" width="16" height="16" fill="#4ade80"/><rect x="256" y="432" width="16" height="16" fill="#4ade80"/><rect x="32" y="448" width="16" height="16" fill="#4ade80"/><rect x="464" y="448" width="16" height="16" fill="#4ade80"/><rect x="48" y="448" width="16" height="16" fill="#4ade80"/><rect x="448" y="448" width="16" height="16" fill="#4ade80"/><rect x="64" y="448" width="16" height="16" fill="#4ade80"/><rect x="432" y="448" width="16" height="16" fill="#4ade80"/><rect x="80" y="448" width="16" height="16" fill="#4ade80"/><rect x="416" y="448" width="16" height="16" fill="#4ade80"/><rect x="96" y="448" width="16" height="16" fill="#4ade80"/><rect x="400" y="448" width="16" height="16" fill="#4ade80"/><rect x="112" y="448" width="16" height="16" fill="#fbbf24"/><rect x="384" y="448" width="16" height="16" fill="#fbbf24"/><rect x="128" y="448" width="16" height="16" fill="#4ade80"/><rect x="368" y="448" width="16" height="16" fill="#4ade80"/><rect x="144" y="448" width="16" height="16" fill="#4ade80"/><rect x="352" y="448" width="16" height="16" fill="#4ade80"/><rect x="192" y="448" width="16" height="16" fill="#4ade80"/><rect x="304" y="448" width="16" height="16" fill="#4ade80"/><rect x="208" y="448" width="16" height="16" fill="#4ade80"/><rect x="288" y="448" width="16" height="16" fill="#4ade80"/><rect x="240" y="448" width="16" height="16" fill="#fbbf24"/><rect x="256" y="448" width="16" height="16" fill="#fbbf24"/><rect x="32" y="464" width="16" height="16" fill="#1e293b"/><rect x="464" y="464" width="16" height="16" fill="#1e293b"/><rect x="48" y="464" width="16" height="16" fill="#4ade80"/><rect x="448" y="464" width="16" height="16" fill="#4ade80"/><rect x="64" y="464" width="16" height="16" fill="#fbbf24"/><rect x="432" y="464" width="16" height="16" fill="#fbbf24"/><rect x="80" y="464" width="16" height="16" fill="#4ade80"/><rect x="416" y="464" width="16" height="16" fill="#4ade80"/><rect x="96" y="464" width="16" height="16" fill="#fbbf24"/><rect x="400" y="464" width="16" height="16" fill="#fbbf24"/><rect x="112" y="464" width="16" height="16" fill="#1e293b"/><rect x="384" y="464" width="16" height="16" fill="#1e293b"/><rect x="128" y="464" width="16" height="16" fill="#4ade80"/><rect x="368" y="464" width="16" height="16" fill="#4ade80"/><rect x="144" y="464" width="16" height="16" fill="#1e293b"/><rect x="352" y="464" width="16" height="16" fill="#1e293b"/><rect x="160" y="464" width="16" height="16" fill="#4ade80"/><rect x="336" y="464" width="16" height="16" fill="#4ade80"/><rect x="192" y="464" width="16" height="16" fill="#4ade80"/><rect x="304" y="464" width="16" height="16" fill="#4ade80"/><rect x="224" y="464" width="16" height="16" fill="#4ade80"/><rect x="272" y="464" width="16" height="16" fill="#4ade80"/><rect x="240" y="464" width="16" height="16" fill="#4ade80"/><rect x="256" y="464" width="16" height="16" fill="#4ade80"/><rect x="0" y="480" width="16" height="16" fill="#fbbf24"/><rect x="496" y="480" width="16" height="16" fill="#fbbf24"/><rect x="32" y="480" width="16" height="16" fill="#1e293b"/><rect x="464" y="480" width="16" height="16" fill="#1e293b"/><rect x="64" y="480" width="16" height="16" fill="#4ade80"/><rect x="432" y="480" width="16" height="16" fill="#4ade80"/><rect x="128" y="480" width="16" height="16" fill="#4ade80"/><rect x="368" y="480" width="16" height="16" fill="#4ade80"/><rect x="144" y="480" width="16" height="16" fill="#4ade80"/><rect x="352" y="480" width="16" height="16" fill="#4ade80"/><rect x="160" y="480" width="16" height="16" fill="#4ade80"/><rect x="336" y="480" width="16" height="16" fill="#4ade80"/><rect x="176" y="480" width="16" height="16" fill="#fbbf24"/><rect x="320" y="480" width="16" height="16" fill="#fbbf24"/><rect x="192" y="480" width="16" height="16" fill="#fbbf24"/><rect x="304" y="480" width="16" height="16" fill="#fbbf24"/><rect x="208" y="480" width="16" height="16" fill="#1e293b"/><rect x="288" y="480" width="16" height="16" fill="#1e293b"/><rect x="16" y="496" width="16" height="16" fill="#4ade80"/><rect x="480" y="496" width="16" height="16" fill="#4ade80"/><rect x="32" y="496" width="16" height="16" fill="#4ade80"/><rect x="464" y="496" width="16" height="16" fill="#4ade80"/><rect x="48" y="496" width="16" height="16" fill="#1e293b"/><rect x="448" y="496" width="16" height="16" fill="#1e293b"/><rect x="96" y="496" width="16" height="16" fill="#fbbf24"/><rect x="400" y="496" width="16" height="16" fill="#fbbf24"/><rect x="112" y="496" width="16" height="16" fill="#fbbf24"/><rect x="384" y="496" width="16" height="16" fill="#fbbf24"/><rect x="128" y="496" width="16" height="16" fill="#fbbf24"/><rect x="368" y="496" width="16" height="16" fill="#fbbf24"/><rect x="144" y="496" width="16" height="16" fill="#fbbf24"/><rect x="352" y="496" width="16" height="16" fill="#fbbf24"/><rect x="192" y="496" width="16" height="16" fill="#4ade80"/><rect x="304" y="496" width="16" height="16" fill="#4ade80"/><rect x="208" y="496" width="16" height="16" fill="#fbbf24"/><rect x="288" y="496" width="16" height="16" fill="#fbbf24"/><rect x="224" y="496" width="16" height="16" fill="#4ade80"/><rect x="272" y="496" width="16" height="16" fill="#4ade80"/><rect x="240" y="496" width="16" height="16" fill="#4ade80"/><rect x="256" y="496" width="16" height="16" fill="#4ade80"/>
  <text x="256" y="296" font-family="monospace" font-size="120" font-weight="bold" fill="#4ade80" text-anchor="middle" opacity="0.8">C</text>
  <text x="256" y="482" font-family="monospace" font-size="28" fill="#ffffff" text-anchor="middle" opacity="0.6">Carlo</text>
</svg>